<svg width="244" height="290" viewBox="0 0 244 290" fill="none" xmlns="http://www.w3.org/2000/svg">
<path d="M43.86 125.974C50.077 105.092 62.584 89.5309 81.805 79.1369C101.77 68.1619 125.303 65.7439 147.069 72.4299C167.186 78.4829 183.631 91.0639 193.631 109.723C196.27 114.581 198.322 119.737 199.746 125.082C206.362 129.907 210.982 139.844 212.166 147.852C213.501 156.888 211.818 166.666 207.389 174.683C206.081 177.052 203.925 179.217 203.439 181.47L203.538 181.729C204.116 183.213 205.023 184.967 205.624 186.515C206.984 190.016 209.456 199.434 209.425 202.914C209.649 203.552 209.719 203.573 210.244 204.04C216.245 208.767 218.593 215.723 213.752 222.25C212.757 221.528 211.596 221.213 210.522 220.653C208.323 219.5 206.057 218.65 203.77 217.697C203.013 217.446 202.637 217.324 201.912 216.965C199.994 216.445 197.823 215.64 195.88 215.049C193.026 214.199 190.149 213.422 187.257 212.718L187.067 212.639C186.492 212.535 185.918 212.435 185.342 212.339L185.051 212.304C184.879 212.806 184.523 213.7 184.059 213.946C177.835 212.857 173.828 212.326 167.477 212.062C166.852 211.939 166.496 211.989 166.122 211.597C166.016 211.071 165.902 210.671 165.753 210.156C164.989 210.175 164.621 210.196 163.858 210.078C163.813 209.847 163.701 209.559 163.624 209.329C159.735 210.523 155.815 211.614 151.868 212.599C151.059 212.809 148.394 213.539 147.745 213.567C147.545 213.703 147.351 213.795 147.23 213.971L146.569 216.07L146.464 216.476C143.936 223.769 141.655 229.359 134.265 232.959C133.5 233.269 132.75 233.604 131.952 233.806C125.475 235.845 119.307 235.777 112.772 234.059C111.926 233.753 111.082 233.442 110.24 233.125C104.101 230.25 100.861 225.643 98.773 219.278C98.56 218.402 98.035 216.927 97.756 215.943L97.32 213.94L97.201 213.858C92.538 212.674 87.876 211.342 83.284 210.191L78.154 208.587C74.594 207.559 70.855 206.178 67.402 204.837C65.564 204.123 63.792 203.267 61.929 202.562C61.417 202.276 60.933 202.071 60.4 201.835C54.385 198.731 50.582 196.515 45.904 191.433L44.662 189.968C42.806 187.289 41.29 184.387 40.1492 181.331C39.731 179.705 38.1249 177.991 37.1724 176.53C36.3846 175.306 35.6737 174.034 35.0438 172.72C27.7529 157.537 30.6477 136.992 43.86 125.974Z" fill="#FD74B8"/>
<path d="M97.3201 213.94C105.011 215.784 112.24 217.186 120.159 217.369C128.754 217.567 136.791 216.289 145.111 214.249C145.633 214.122 146.752 213.763 147.23 213.971L146.57 216.07L146.465 216.476C143.937 223.769 141.655 229.359 134.266 232.959C133.5 233.269 132.75 233.604 131.952 233.806C125.476 235.846 119.307 235.777 112.772 234.06C111.927 233.754 111.083 233.442 110.24 233.126C104.101 230.25 100.861 225.643 98.7731 219.278C98.5611 218.403 98.0361 216.927 97.7571 215.943L97.3201 213.94Z" fill="#FD7FBC"/>
<path d="M199.097 189.829C200.679 187.768 202.497 183.954 203.439 181.47L203.538 181.729C204.116 183.213 205.023 184.967 205.624 186.515C206.984 190.016 209.456 199.434 209.425 202.914C209.649 203.552 209.719 203.573 210.244 204.04C216.245 208.767 218.593 215.723 213.752 222.25C212.757 221.528 211.596 221.213 210.522 220.652C208.323 219.5 206.057 218.65 203.77 217.697C203.013 217.446 202.637 217.323 201.912 216.965C199.994 216.445 197.823 215.64 195.88 215.048C193.026 214.199 190.149 213.422 187.257 212.718L187.067 212.639C186.492 212.535 185.918 212.435 185.342 212.339C185.346 212.328 185.346 212.317 185.352 212.306C185.461 212.084 185.604 211.87 185.687 211.636C185.95 210.903 182.914 204.356 182.357 203.245C182.006 203.136 181.082 203.272 180.5 203.245L180.352 203.236C180.796 203.086 182.808 202.085 183.454 201.804C189.274 199.064 193.706 196.004 198.009 191.204C198.367 190.742 198.731 190.284 199.097 189.829Z" fill="#F13692"/>
<path d="M198.009 191.204C199.127 191.706 200.806 192.187 202.017 192.53C202.95 194.596 203.856 196.998 204.676 199.135C203.055 202.434 201.009 207.183 199.639 210.616C195.578 210.601 191.518 210.632 187.458 210.705C186.7 209.02 184.178 202.969 183.454 201.804C189.274 199.064 193.706 196.004 198.009 191.204Z" fill="#D60572"/>
<path d="M209.426 202.914C209.649 203.552 209.719 203.573 210.244 204.04C216.245 208.767 218.593 215.724 213.752 222.25C212.757 221.528 211.596 221.213 210.523 220.653C208.323 219.501 206.058 218.65 203.77 217.697C203.013 217.447 202.637 217.324 201.912 216.965L202.017 216.747C202.431 216.444 202.91 216.041 203.318 215.715C206.333 213.204 208.021 210.833 208.517 206.889L208.558 205.712C208.74 204.661 208.314 203.713 208.972 202.926L209.426 202.914Z" fill="#D60572"/>
<path d="M209.426 202.914C209.649 203.552 209.719 203.573 210.244 204.04C211.138 210.123 208.216 214.085 203.77 217.697C203.013 217.447 202.637 217.324 201.912 216.965L202.017 216.747C202.431 216.444 202.91 216.041 203.318 215.715C206.333 213.204 208.021 210.833 208.517 206.889L208.558 205.712C208.74 204.661 208.314 203.713 208.972 202.926L209.426 202.914Z" fill="#F13692"/>
<path d="M199.097 189.829C200.679 187.768 202.497 183.954 203.439 181.47L203.538 181.729C204.116 183.213 205.023 184.967 205.624 186.515C206.984 190.016 209.456 199.434 209.425 202.914L208.972 202.925C208.314 203.713 208.74 204.66 208.558 205.711C208.511 202.486 204.796 196.076 203.795 192.6C203.249 190.704 200.882 190.507 199.097 189.829Z" fill="#D60572"/>
<path d="M205.559 201.213C206.272 202.752 207.513 205.684 208.517 206.889C208.021 210.833 206.333 213.204 203.318 215.715C202.577 214.507 201.734 212.734 201.072 211.44L205.559 201.213Z" fill="#D60572"/>
<path d="M187.067 212.639C187.482 212.21 187.518 212.258 188.259 212.245C192.044 212.179 195.926 212.336 199.701 212.235C200.257 213.273 201.499 215.965 202.017 216.747L201.912 216.965C199.994 216.445 197.823 215.64 195.881 215.049C193.026 214.2 190.15 213.422 187.257 212.718L187.067 212.639Z" fill="#D60572"/>
<path d="M180.352 203.236L180.501 203.245C181.083 203.272 182.006 203.136 182.357 203.245C182.915 204.356 185.95 210.903 185.688 211.636C185.604 211.87 185.462 212.084 185.352 212.307C185.346 212.317 185.346 212.329 185.342 212.339L185.052 212.304C184.88 212.806 184.524 213.7 184.06 213.946C177.836 212.857 173.829 212.326 167.478 212.062C166.852 211.939 166.496 211.989 166.123 211.597C166.016 211.071 165.902 210.671 165.754 210.156C164.989 210.175 164.622 210.196 163.859 210.078C163.814 209.847 163.701 209.559 163.624 209.329C163.927 209.276 165.221 208.837 165.587 208.721C170.405 207.259 175.737 205.18 180.352 203.236Z" fill="#D60572"/>
<path d="M165.753 210.156C171.426 210.171 179.513 210.904 185.051 212.304C184.879 212.806 184.523 213.7 184.06 213.946C177.835 212.857 173.829 212.326 167.478 212.062C166.852 211.939 166.496 211.989 166.122 211.597C166.016 211.071 165.902 210.672 165.753 210.156Z" fill="#F13692"/>
<path d="M163.624 209.329C163.927 209.276 165.221 208.837 165.587 208.721C165.599 209.446 165.722 209.459 165.398 209.948C164.759 210.11 164.474 210.002 163.859 210.078C163.814 209.847 163.701 209.559 163.624 209.329Z" fill="#F13692"/>
<path d="M63.96 128.424C78.835 127.441 91.672 138.782 92.586 153.716C93.501 168.649 82.1441 181.483 67.2601 182.334C52.4701 183.181 39.7794 171.869 38.8708 157.028C37.9624 142.187 49.177 129.401 63.96 128.424Z" fill="#FEFEFE"/>
<path d="M66.069 134.214C77.717 134.374 87.031 143.978 86.876 155.668C86.721 167.358 77.155 176.709 65.507 176.557C53.854 176.405 44.532 166.799 44.687 155.104C44.842 143.408 54.416 134.055 66.069 134.214Z" fill="black"/>
<path d="M56.697 141.452C60.27 140.994 63.544 143.508 64.038 147.088C64.533 150.669 62.064 153.982 58.502 154.517C56.163 154.868 53.817 153.931 52.358 152.064C50.899 150.196 50.552 147.685 51.45 145.49C52.348 143.294 54.352 141.752 56.697 141.452Z" fill="#FEFEFE"/>
<path d="M175.875 128.579C190.657 127.267 203.699 138.23 205.005 153.066C206.309 167.901 195.382 180.989 180.6 182.296C165.824 183.601 152.788 172.639 151.484 157.808C150.178 142.977 161.099 129.892 175.875 128.579Z" fill="#FEFEFE"/>
<path d="M177.755 134.267C189.382 134.03 199.006 143.285 199.267 154.955C199.528 166.624 190.327 176.303 178.7 176.589C167.038 176.876 157.359 167.608 157.098 155.903C156.837 144.199 166.092 134.504 177.755 134.267Z" fill="black"/>
<path d="M168.998 141.504C172.583 141.008 175.894 143.518 176.397 147.116C176.901 150.714 174.406 154.042 170.823 154.556C167.227 155.072 163.897 152.559 163.392 148.948C162.887 145.338 165.399 142.002 168.998 141.504Z" fill="#FEFEFE"/>
<path d="M120.728 75.1251C124.542 74.7801 129.318 75.813 132.266 78.303C137.459 82.689 135.072 88.8061 129.439 91.1001C127.235 91.9971 125.737 92.388 123.342 92.538C119.794 92.958 115.194 91.8161 112.317 89.6841C108.929 87.1721 107.917 82.9031 110.778 79.5351C113.325 76.5361 116.967 75.4911 120.728 75.1251Z" fill="#F13692"/>
<path d="M105.288 94.421C109.685 94.097 115.631 95.296 116.689 100.445C116.999 101.98 116.674 103.576 115.79 104.866C114.334 107.017 111.775 108.039 109.341 108.553C97.2361 110.395 92.133 97.335 105.288 94.421Z" fill="#F13692"/>
<path d="M134.584 94.429C138.811 93.928 144.466 95.469 145.687 100.129C146.079 101.637 145.834 103.241 145.009 104.561C143.563 106.919 141.061 107.965 138.5 108.547C135.475 108.988 132.76 108.693 130.098 107.054C126.977 105.13 125.725 101.392 127.891 98.218C129.44 95.947 131.962 94.907 134.584 94.429Z" fill="#F13692"/>
<path d="M109.321 171.392C111.953 171.077 112.043 172.764 112.883 174.82C115.86 182.107 127.064 182.11 130.651 175.359C131.302 174.134 131.237 172.519 132.482 171.729C133.736 170.855 134.858 171.018 135.564 172.444C136.279 173.953 135.748 175.202 135.195 176.659C134.077 179.069 132.508 181.014 130.318 182.518C126.942 184.789 122.799 185.604 118.818 184.781C115.109 184.067 111.833 181.908 109.709 178.773C108.85 177.48 107.438 174.691 107.811 173.096C108.019 172.21 108.603 171.832 109.321 171.392Z" fill="black"/>
<path d="M183.249 185.51C193.94 185.364 196.33 195 184.642 196.225C182.13 196.452 179.194 195.919 177.143 194.329C175.127 192.766 174.552 190.052 176.387 188.071C178.238 186.071 180.67 185.704 183.249 185.51Z" fill="#FC95C7"/>
<path d="M59.3329 185.509C70.1599 185.4 71.4979 195.708 59.7499 196.203C48.0779 195.876 47.7609 186.201 59.3329 185.509Z" fill="#FC95C7"/>
<path d="M95.7679 80.832C104.389 79.854 107.658 89.858 97.5499 91.906C94.1779 92.068 89.7649 91.143 89.1779 87.123C88.9919 85.853 89.3299 84.562 90.1149 83.548C91.5029 81.738 93.6229 81.095 95.7679 80.832Z" fill="#F13692"/>
<path d="M147.205 80.8289C150.381 80.4479 154.618 82.172 155.212 85.664C155.416 86.929 155.103 88.223 154.343 89.253C153.085 90.981 151.188 91.584 149.198 91.908C145.75 92.071 141.273 91.051 140.658 86.973C140.466 85.707 140.817 84.419 141.622 83.426C143.003 81.688 145.108 81.0679 147.205 80.8289Z" fill="#F13692"/>
<path d="M121.134 110.687C130.131 110.239 131.417 120 122.516 120.974C114.091 121.696 112.109 111.965 121.134 110.687Z" fill="#F13692"/>
<path d="M161.195 92.382C168.019 91.897 170.134 99.45 162.679 100.983C160.083 101.039 156.93 100.398 156.426 97.319C156.251 96.255 156.529 95.166 157.194 94.317C158.204 93.025 159.652 92.581 161.195 92.382Z" fill="#F13692"/>
<path d="M81.8652 92.395C84.2842 92.152 87.1532 93.232 87.6792 95.879C87.8742 96.887 87.6522 97.932 87.0632 98.772C86.0482 100.251 84.6512 100.65 83.0262 100.977C80.4032 101.047 77.2192 100.221 76.8802 97.107C76.7752 96.09 77.0802 95.073 77.7292 94.285C78.7972 92.968 80.2702 92.561 81.8652 92.395Z" fill="#F13692"/>
<path d="M40.1495 181.331C41.29 184.388 42.806 187.289 44.662 189.968L45.904 191.434C50.582 196.515 54.385 198.731 60.4 201.835C60.933 202.071 61.417 202.276 61.929 202.563C63.793 203.267 65.564 204.123 67.402 204.838C70.856 206.179 74.594 207.559 78.155 208.587L83.284 210.191C87.876 211.342 92.538 212.674 97.201 213.859C96.964 214.511 97.039 215.219 96.727 215.727C95.482 215.855 90.519 214.276 88.626 213.961C88.726 219.853 86.609 224.412 83.706 229.529C83.232 229.164 82.589 228.634 82.108 228.314L81.223 229.701C79.657 231.726 78.517 233.177 76.763 235.049L75.496 236.357L72.294 239.118C70.543 240.513 68.769 241.879 66.972 243.214C59.438 248.379 51.462 253.41 43.038 257.356C32.328 262.182 17.9071 268.097 6.11897 264.598C-0.726229 262.247 -0.959131 255.438 1.22607 249.769C6.39887 236.354 18.2019 228.912 30.5777 223.178C30.3007 222.859 30.0012 222.448 29.7394 222.106C25.4552 215.606 27.0588 208.566 33.3172 204.057C34.0945 203.321 34.191 203.257 34.3016 202.205C34.8909 196.931 36.5386 190.672 38.2639 185.658C38.7037 184.38 39.5879 182.829 40.0996 181.467L40.1495 181.331Z" fill="#FD74B8"/>
<path d="M40.1496 181.331C41.291 184.388 42.806 187.289 44.662 189.968L45.904 191.434C50.582 196.515 54.385 198.731 60.4 201.835C60.933 202.071 61.417 202.276 61.929 202.563L61.869 202.716C61.267 204.242 57.685 210.833 58.173 212.078C58.198 212.141 58.23 212.203 58.258 212.264C57.949 212.323 57.023 212.519 56.762 212.52L55.335 212.903C54.975 213.967 55.265 213.999 55.14 214.781C51.015 215.896 47.619 216.794 43.574 218.186L41.663 218.88C41.071 218.231 40.7571 217.933 39.9222 217.693C38.8658 218.092 37.6436 218.545 36.6319 219.026C35.4367 219.511 30.5347 221.493 29.7394 222.106C25.4552 215.606 27.0589 208.566 33.3172 204.057C34.0945 203.321 34.1911 203.257 34.3017 202.205C34.891 196.931 36.5387 190.672 38.264 185.658C38.7037 184.38 39.588 182.829 40.0997 181.467L40.1496 181.331Z" fill="#F13692"/>
<path d="M45.904 191.434C50.582 196.515 54.385 198.731 60.4 201.835C59.076 204.788 57.725 207.729 56.349 210.658C52.106 210.622 47.864 210.608 43.621 210.617C42.26 207.659 39.9998 202.235 38.9199 199.146C39.5312 197.067 40.5217 194.58 41.359 192.583C42.386 192.403 44.79 191.709 45.904 191.434Z" fill="#D60572"/>
<path d="M34.3017 202.205L34.3861 202.861C34.7781 203.094 34.7461 203.031 35.24 203.082C34.9442 204.042 35.0822 206.117 35.1248 207.187C35.8691 211.094 36.9747 212.927 40.0453 215.52C40.5632 215.985 40.9724 216.329 41.524 216.752L42.057 216.872C42.721 217.294 43.116 217.533 43.574 218.186L41.663 218.88C41.071 218.231 40.7571 217.932 39.9222 217.692C38.8658 218.092 37.6436 218.544 36.6319 219.026C35.4367 219.51 30.5347 221.493 29.7394 222.106C25.4552 215.606 27.0589 208.566 33.3172 204.057C34.0945 203.321 34.1911 203.256 34.3017 202.205Z" fill="#D60572"/>
<path d="M34.3018 202.205L34.3863 202.861C34.7782 203.094 34.7463 203.031 35.2402 203.082C34.9444 204.042 35.0824 206.117 35.1249 207.187C35.8693 211.094 36.9748 212.927 40.0454 215.52C40.5634 215.985 40.9725 216.329 41.524 216.752L42.057 216.872C42.721 217.294 43.116 217.533 43.574 218.186L41.664 218.88C41.071 218.231 40.7572 217.932 39.9223 217.692C34.4665 214.059 33.3171 210.288 33.3174 204.057C34.0947 203.321 34.1913 203.256 34.3018 202.205Z" fill="#F13692"/>
<path d="M40.1496 181.331C41.291 184.388 42.806 187.289 44.662 189.968C43.426 190.295 41.176 190.825 40.0477 191.223C38.9166 193.858 36.5526 201.093 35.2401 203.082C34.7462 203.031 34.7782 203.094 34.3862 202.861L34.3018 202.205C34.8911 196.931 36.5387 190.672 38.264 185.658C38.7038 184.38 39.5881 182.829 40.0998 181.467L40.1496 181.331Z" fill="#D60572"/>
<path d="M43.5969 212.26C45.4639 212.245 55.6879 212.103 56.7619 212.52L55.3349 212.902C54.9749 213.967 55.2649 213.999 55.1399 214.781C51.0149 215.896 47.6189 216.793 43.5739 218.186C43.1159 217.533 42.7209 217.294 42.0569 216.873L41.5239 216.752C41.9119 215.441 42.9499 213.52 43.5969 212.26Z" fill="#D60572"/>
<path d="M42.0571 216.873C45.0541 215.731 52.2601 213.542 55.3351 212.902C54.9751 213.967 55.2651 213.999 55.1401 214.781C51.0151 215.896 47.6191 216.794 43.5741 218.186C43.1161 217.533 42.7211 217.294 42.0571 216.873Z" fill="#F13692"/>
<path d="M37.9028 201.564C38.64 202.898 41.563 209.947 42.054 211.374C41.547 212.533 40.7227 214.535 40.045 215.52C36.9744 212.927 35.8689 211.094 35.1245 207.187C36.2688 205.588 36.8676 203.382 37.9028 201.564Z" fill="#D60572"/>
<path d="M61.9291 202.562C63.7931 203.267 65.5641 204.123 67.4021 204.837C70.8551 206.178 74.5941 207.559 78.1541 208.587L83.2841 210.191C87.8761 211.342 92.5381 212.674 97.2011 213.858C96.9641 214.511 97.0391 215.218 96.7271 215.726C95.4821 215.855 90.5191 214.276 88.6261 213.961C88.7261 219.853 86.6091 224.412 83.7061 229.529C83.2321 229.164 82.5891 228.634 82.1081 228.313C83.9881 224.86 85.7891 221.304 86.5451 217.406C86.8721 215.718 86.8191 214.627 85.8881 213.17C82.2221 210.903 68.5381 212.365 64.1061 213.036C61.0991 213.519 58.1091 214.101 55.1401 214.781C55.2651 213.999 54.9751 213.967 55.3351 212.902L56.7611 212.52C57.0231 212.519 57.9491 212.323 58.2581 212.264C58.2301 212.203 58.1981 212.141 58.1731 212.078C57.6841 210.832 61.2671 204.242 61.8691 202.716L61.9291 202.562Z" fill="#F13692"/>
<path d="M61.9291 202.562C63.7931 203.267 65.5641 204.123 67.4021 204.837C70.8551 206.178 74.5942 207.559 78.1542 208.587C78.3792 209.247 78.5081 209.27 78.3841 209.843C77.6581 210.36 76.2112 209.939 74.8632 210.16C70.3442 210.288 66.1361 210.635 61.6931 211.55C60.7301 211.747 59.1692 211.982 58.2582 212.264C58.2302 212.203 58.1981 212.141 58.1731 212.078C57.6841 210.832 61.2672 204.242 61.8692 202.716L61.9291 202.562Z" fill="#D60572"/>
<path d="M78.155 208.586L83.284 210.191C82.302 210.254 80.974 210.135 79.951 210.148C78.256 210.17 76.558 210.184 74.863 210.16C76.211 209.939 77.659 210.359 78.384 209.842C78.508 209.27 78.379 209.247 78.155 208.586Z" fill="#F13692"/>
<path d="M29.7393 222.107C30.5345 221.493 35.4365 219.511 36.6317 219.026C37.0375 220.288 36.4858 220.069 36.7299 220.681C35.1811 221.389 32.1793 222.639 30.5775 223.178C30.3005 222.859 30.0011 222.448 29.7393 222.107Z" fill="#F13692"/>
<path d="M39.9221 217.692C40.7571 217.932 41.071 218.231 41.663 218.88C40.0973 219.44 38.2749 220.184 36.73 220.68C36.486 220.068 37.0376 220.288 36.6318 219.026C37.6436 218.544 38.8658 218.092 39.9221 217.692Z" fill="#F13692"/>
<path d="M26.6226 230.63C29.8113 230.101 32.8325 232.237 33.4106 235.428C33.9886 238.62 31.9099 241.687 28.7401 242.319C26.6429 242.738 24.4839 241.988 23.0919 240.359C21.6999 238.731 21.2913 236.475 22.023 234.458C22.7547 232.442 24.5129 230.978 26.6226 230.63Z" fill="#F13692"/>
<path d="M27.6473 244.799C30.5272 244.216 33.3267 246.103 33.8805 248.999C34.4342 251.895 32.5295 254.688 29.6399 255.218C26.786 255.741 24.0453 253.858 23.4985 250.999C22.9518 248.14 24.8034 245.373 27.6473 244.799Z" fill="#F13692"/>
<path d="M14.8733 239.013C17.6892 238.41 20.4596 240.209 21.0661 243.035C21.6726 245.859 19.8861 248.643 17.0729 249.258C14.2511 249.874 11.4669 248.075 10.8585 245.241C10.2502 242.408 12.049 239.618 14.8733 239.013Z" fill="#F13692"/>
<path d="M7.73472 249.713C10.1627 249.062 12.6566 250.513 13.3015 252.95C13.9465 255.388 12.4976 257.89 10.0673 258.532C7.64282 259.174 5.15852 257.724 4.51512 255.291C3.87172 252.859 5.31232 250.363 7.73472 249.713Z" fill="#F13692"/>
<path d="M38.4356 240.151C40.7607 239.839 42.896 241.481 43.2 243.817C43.505 246.15 41.863 248.289 39.5361 248.589C37.2178 248.888 35.0961 247.247 34.7927 244.92C34.4894 242.594 36.1189 240.461 38.4356 240.151Z" fill="#F13692"/>
<path d="M38.0412 229.868C39.8969 229.422 41.763 230.566 42.212 232.428C42.661 234.289 41.524 236.164 39.6706 236.62C37.8114 237.075 35.9363 235.93 35.4858 234.064C35.0352 232.196 36.1801 230.317 38.0412 229.868Z" fill="#F13692"/>
<path d="M18.3559 252.423C20.0955 252.141 21.7317 253.334 22.0008 255.082C22.2699 256.83 21.0689 258.462 19.3253 258.72C17.6002 258.974 15.9935 257.784 15.7271 256.054C15.4608 254.325 16.6346 252.703 18.3559 252.423Z" fill="#F13692"/>
<path d="M167.477 212.062C173.828 212.326 177.835 212.857 184.059 213.946L186.033 214.378C186.455 213.655 186.621 213.074 187.257 212.718C190.149 213.422 193.026 214.199 195.88 215.049C197.823 215.64 199.994 216.445 201.912 216.965C202.637 217.324 203.013 217.447 203.77 217.697C206.057 218.65 208.323 219.5 210.522 220.653C211.596 221.213 212.757 221.528 213.752 222.25L213.06 223.261C215.93 224.342 219.308 226.129 221.986 227.624C230.44 232.342 237.981 238.251 241.98 247.4C243.571 251.043 244.79 255.129 243.377 259.078C242.527 261.459 240.587 263.276 238.299 264.248C229.761 267.877 215.437 263.126 207.214 259.971C196.198 255.744 186.412 249.816 176.921 243.044L175.612 243.94C175.022 243.345 173.429 242.266 172.647 241.65C170.917 240.296 169.282 238.826 167.75 237.249L168.334 236.677C168.793 236.57 168.744 236.535 169.127 236.211L167.864 234.884C166.296 233.166 165.141 231.689 163.774 229.834C163.494 229.511 163.071 228.761 162.83 228.366C160.825 225.311 158.651 220.079 158.2 216.47C157.553 211.266 164.026 212.09 167.477 212.062Z" fill="#FD74B8"/>
<path d="M186.033 214.378C186.455 213.655 186.621 213.074 187.257 212.718C190.15 213.422 193.026 214.199 195.881 215.048C197.823 215.64 199.994 216.445 201.912 216.965C202.637 217.323 203.013 217.446 203.77 217.697C206.058 218.65 208.323 219.5 210.523 220.652C211.596 221.213 212.757 221.528 213.752 222.25L213.061 223.261C212.487 223.151 210.648 222.358 210.027 222.112C207.942 221.288 205.883 220.415 203.773 219.638C197.984 217.49 192.057 215.734 186.033 214.378Z" fill="#F13692"/>
<path d="M169.127 236.211C171.884 238.828 173.991 240.63 176.921 243.044L175.613 243.94C175.022 243.345 173.429 242.266 172.647 241.65C170.917 240.296 169.282 238.826 167.75 237.249L168.334 236.677C168.793 236.57 168.744 236.535 169.127 236.211Z" fill="#F13692"/>
<path d="M215.377 230.599C218.609 230.161 221.589 232.421 222.051 235.661C222.515 238.902 220.288 241.911 217.063 242.403C213.8 242.9 210.759 240.633 210.29 237.353C209.822 234.074 212.106 231.041 215.377 230.599Z" fill="#F13692"/>
<path d="M214.363 244.76C217.25 244.296 219.965 246.265 220.43 249.16C220.897 252.056 218.936 254.782 216.053 255.253C213.163 255.723 210.443 253.754 209.976 250.854C209.509 247.955 211.475 245.225 214.363 244.76Z" fill="#F13692"/>
<path d="M226.726 239.029C228.551 238.618 230.455 239.226 231.711 240.616C232.967 242.009 233.378 243.97 232.79 245.752C232.201 247.535 230.703 248.86 228.868 249.224C226.08 249.776 223.369 247.977 222.784 245.187C222.197 242.398 223.954 239.653 226.726 239.029Z" fill="#F13692"/>
<path d="M233.864 249.718C235.452 249.293 237.144 249.765 238.289 250.949C239.433 252.135 239.849 253.848 239.375 255.429C238.902 257.008 237.614 258.207 236.01 258.563C233.6 259.097 231.208 257.601 230.623 255.195C230.039 252.789 231.479 250.356 233.864 249.718Z" fill="#F13692"/>
<path d="M204.322 240.145C206.646 239.851 208.768 241.502 209.063 243.836C209.357 246.168 207.71 248.299 205.387 248.595C203.062 248.891 200.938 247.238 200.643 244.905C200.35 242.571 201.997 240.44 204.322 240.145Z" fill="#F13692"/>
<path d="M204.142 229.867C206.004 229.488 207.821 230.689 208.205 232.556C208.59 234.423 207.397 236.25 205.538 236.642C203.671 237.036 201.841 235.832 201.455 233.957C201.069 232.082 202.274 230.249 204.142 229.867Z" fill="#F13692"/>
<path d="M224.281 252.429C225.401 252.163 226.578 252.522 227.36 253.369C228.143 254.215 228.412 255.42 228.063 256.521C227.713 257.622 226.8 258.449 225.674 258.686C223.963 259.045 222.284 257.959 221.903 256.247C221.521 254.536 222.581 252.835 224.281 252.429Z" fill="#F13692"/>
<path d="M97.2012 213.858L97.3202 213.94L97.7562 215.943C98.0352 216.927 98.5602 218.403 98.7732 219.278C100.861 225.643 104.101 230.25 110.24 233.126C111.082 233.442 111.926 233.754 112.772 234.06C119.307 235.777 125.476 235.846 131.952 233.806C133.805 234.673 136.364 235.952 138.24 236.68C138.585 240.46 139.073 244.618 139.318 248.364L140.875 247.856L140.983 247.86L142.049 247.559L142.376 247.733C142.454 248.21 142.521 248.791 142.673 249.235L141.398 249.68L141.22 249.878C141.376 251.601 143.681 255.301 143.493 257.251L142.26 257.509C130.724 260.564 113.578 260.528 102.019 257.543L100.59 257.172L100.632 256.755L100.582 256.48C100.337 256.287 93.6282 254.448 92.6722 254.127C86.5732 252.095 80.6562 249.55 74.9852 246.516C74.4902 247.096 74.5072 247.248 73.8682 247.455C71.8312 246.314 70.2582 245.391 68.3122 244.111L66.9722 243.214C68.7692 241.878 70.5432 240.513 72.2942 239.117L75.4962 236.356L76.7632 235.049C78.5172 233.177 79.6572 231.726 81.2232 229.701L82.1082 228.313C82.5892 228.634 83.2322 229.164 83.7062 229.529C86.6092 224.412 88.7262 219.853 88.6262 213.961C90.5192 214.276 95.4822 215.855 96.7272 215.726C97.0392 215.218 96.9642 214.511 97.2012 213.858Z" fill="#D60572"/>
<path d="M97.2009 213.858L97.3199 213.94L97.7559 215.943C98.0349 216.927 98.5599 218.403 98.7729 219.278C100.861 225.643 104.101 230.25 110.24 233.126C111.082 233.442 111.926 233.754 112.772 234.06C110.772 234.875 108.781 235.661 106.809 236.545C106.706 237.678 105.936 248.027 105.654 248.302C105.635 248.32 105.611 248.335 105.589 248.351L104.177 247.988C99.2249 246.726 92.1939 243.79 87.6579 241.452L86.0459 240.662C83.8149 239.459 80.3559 237.639 78.3419 236.165C77.8099 235.802 77.2829 235.43 76.7629 235.049C78.5169 233.177 79.6569 231.726 81.2229 229.701L82.1079 228.313C82.5889 228.634 83.2319 229.164 83.7059 229.529C86.6089 224.412 88.7259 219.853 88.6259 213.961C90.5189 214.276 95.4819 215.855 96.7269 215.726C97.0389 215.218 96.9639 214.511 97.2009 213.858Z" fill="#D60572"/>
<path d="M97.2009 213.858L97.3199 213.94L97.7559 215.943C97.0899 216.556 96.9539 215.643 96.9479 216.716C96.9279 220.001 96.8099 223.286 96.6699 226.568C93.6529 228.423 90.6469 230.296 87.6519 232.187C86.2849 231.256 85.0079 230.394 83.5969 229.524C83.2689 229.955 82.9859 230.315 82.6989 230.774C84.0789 231.662 85.4439 232.569 86.7959 233.499C86.5739 235.889 86.3239 238.277 86.0459 240.662C83.8149 239.459 80.3559 237.639 78.3419 236.165C77.8099 235.802 77.2829 235.43 76.7629 235.049C78.5169 233.177 79.6569 231.726 81.2229 229.701L82.1079 228.313C82.5889 228.634 83.2319 229.164 83.7059 229.529C86.6089 224.412 88.7259 219.853 88.6259 213.961C90.5189 214.276 95.4819 215.855 96.7269 215.726C97.0389 215.218 96.9639 214.511 97.2009 213.858Z" fill="#D60572"/>
<path d="M81.2229 229.701C81.7039 230.041 82.2309 230.371 82.7179 230.7C81.8779 232.097 79.5279 234.9 78.3419 236.165C77.8099 235.801 77.2829 235.43 76.7629 235.049C78.5169 233.177 79.6569 231.726 81.2229 229.701Z" fill="#F13692"/>
<path d="M97.7562 215.943C98.0352 216.927 98.5602 218.403 98.7732 219.278C100.861 225.643 104.101 230.25 110.24 233.126C111.082 233.442 111.926 233.754 112.772 234.06C110.772 234.875 108.781 235.661 106.809 236.545C106.706 237.678 105.936 248.027 105.654 248.302C105.635 248.32 105.611 248.335 105.589 248.351L104.177 247.988C104.308 245.099 104.823 239.09 105.245 236.335C102.596 233.622 99.9792 230.877 97.3942 228.101C94.7302 229.84 91.1982 231.861 88.4192 233.473C88.1612 236.216 87.7862 238.683 87.6582 241.453L86.0472 240.662C86.3242 238.277 86.5742 235.89 86.7962 233.499C85.4452 232.569 82.6022 230.592 81.2222 229.705C81.5092 229.245 81.7832 228.753 82.1122 228.322C83.5232 229.192 86.2852 231.256 87.6532 232.187C90.6472 230.296 93.6532 228.423 96.6702 226.569C96.8112 223.286 96.9282 220.001 96.9482 216.716C96.9522 216.128 97.0662 213.858 97.2132 213.885C97.3212 213.885 97.7562 215.943 97.7562 215.943Z" fill="#F13692"/>
<path d="M98.7731 219.278C100.861 225.643 104.101 230.25 110.24 233.125C109.738 233.569 106.938 234.704 106.168 235.031C103.664 232.579 100.752 229.299 98.3311 226.694C98.3731 225.39 98.4471 220.077 98.7731 219.278Z" fill="#D60572"/>
<path d="M131.952 233.806C133.805 234.673 136.365 235.952 138.24 236.68C138.585 240.46 139.073 244.617 139.318 248.364L137.374 248.737C125.55 250.809 117.59 251.134 105.589 248.351C105.611 248.334 105.635 248.32 105.654 248.302C105.936 248.027 106.707 237.678 106.809 236.545C108.781 235.661 110.772 234.875 112.772 234.059C119.307 235.777 125.476 235.845 131.952 233.806Z" fill="#D60572"/>
<path d="M75.4962 236.356L76.7242 237.355C82.3642 241.211 89.0102 244.29 95.3172 246.893C98.1672 248.068 101.158 248.914 104.093 249.857C103.37 251.475 102.686 252.991 101.866 254.561C101.566 255.136 100.835 256.284 100.632 256.755L100.582 256.48C100.337 256.287 93.6282 254.448 92.6722 254.127C86.5732 252.095 80.6562 249.55 74.9852 246.516C74.4902 247.096 74.5072 247.248 73.8682 247.455C71.8312 246.314 70.2582 245.391 68.3122 244.111L66.9722 243.214C68.7692 241.878 70.5432 240.513 72.2942 239.117L75.4962 236.356Z" fill="#D60572"/>
<path d="M72.2942 239.118C72.7902 239.684 73.0222 239.807 73.3392 240.484C72.0832 241.636 69.7412 243.173 68.3122 244.111L66.9722 243.214C68.7692 241.879 70.5432 240.513 72.2942 239.118Z" fill="#F13692"/>
<path d="M75.4959 236.356L76.7239 237.355C75.4829 238.724 74.8209 239.4 73.3389 240.483C73.0219 239.807 72.7899 239.684 72.2939 239.117L75.4959 236.356Z" fill="#F13692"/>
<path d="M76.7631 235.049C77.2841 235.429 77.8101 235.801 78.3431 236.164C80.3561 237.639 83.8151 239.458 86.0471 240.662L87.6581 241.452C92.1941 243.79 99.2251 246.725 104.177 247.987L105.589 248.35C117.59 251.133 125.55 250.808 137.374 248.737L139.318 248.364L140.875 247.856L140.983 247.86L142.049 247.558L142.376 247.733C142.455 248.21 142.522 248.791 142.673 249.235L141.398 249.68L141.221 249.877C141.377 251.6 143.681 255.301 143.493 257.251L142.261 257.509C142.158 257.171 141.495 255.819 141.304 255.382C140.533 253.669 139.846 251.919 139.246 250.141L137.995 250.454C126.888 252.588 117.096 252.742 105.939 250.335C104.635 253.058 103.81 255.076 102.019 257.542L100.59 257.172L100.632 256.755C100.835 256.283 101.566 255.136 101.866 254.56C102.687 252.991 103.37 251.474 104.093 249.857C101.158 248.914 98.1671 248.068 95.3171 246.892C89.0101 244.289 82.3641 241.211 76.7241 237.355L75.4961 236.356L76.7631 235.049Z" fill="#F13692"/>
<path d="M142.049 247.559L142.375 247.733C142.454 248.21 142.521 248.791 142.673 249.235L141.398 249.68C141 249.413 141.033 248.361 140.982 247.86L142.049 247.559Z" fill="#F13692"/>
<path d="M167.864 234.884L169.128 236.212C168.744 236.535 168.794 236.57 168.334 236.677L167.751 237.25C169.282 238.826 170.917 240.296 172.647 241.65C173.429 242.267 175.022 243.345 175.613 243.94C173.746 245.339 172.062 246.259 170.058 247.424C170.757 247.973 171.787 250.011 172.245 250.892C177.264 260.559 182.626 276.154 175.681 285.901C171.374 291.946 161.84 289.791 157.247 285.446C150.947 280.012 147.032 272.327 144.8 264.399C144.255 262.46 143.686 260.218 143.6 258.213L143.493 257.252C143.681 255.302 141.377 251.601 141.221 249.878L141.399 249.68L142.674 249.235C142.522 248.791 142.455 248.21 142.376 247.733L142.049 247.559C146.99 246.155 153.355 243.294 157.895 240.889L159.414 240.081C160.256 239.677 161.026 239.217 161.834 238.749C163.152 237.951 165.109 236.863 166.257 235.944L166.346 235.958C166.916 235.453 167.228 235.278 167.864 234.884Z" fill="#FD74B8"/>
<path d="M167.864 234.884L169.128 236.212C168.744 236.535 168.794 236.57 168.334 236.677L167.751 237.25C169.282 238.826 170.917 240.296 172.647 241.65C173.429 242.267 175.022 243.345 175.613 243.94C173.746 245.339 172.062 246.259 170.058 247.424C169.53 247.182 169.419 246.958 169.042 246.487C160.826 250.564 152.797 254.168 143.788 256.136C143.533 256.192 143.595 257.976 143.6 258.213L143.493 257.252C143.681 255.302 141.377 251.601 141.221 249.878L141.399 249.68L142.674 249.235C142.522 248.791 142.455 248.21 142.376 247.733L142.049 247.559C146.99 246.155 153.355 243.294 157.895 240.889L159.414 240.081C160.256 239.677 161.026 239.217 161.834 238.749C163.152 237.951 165.109 236.863 166.257 235.944L166.346 235.958C166.916 235.453 167.228 235.278 167.864 234.884Z" fill="#D60572"/>
<path d="M167.864 234.884L169.127 236.212C168.744 236.535 168.793 236.57 168.334 236.677L167.75 237.25C166.108 238.128 164.689 239.243 163.002 240.126C156.581 243.908 149.764 246.963 142.673 249.235C142.521 248.791 142.454 248.21 142.376 247.733L142.049 247.559C146.989 246.155 153.355 243.294 157.894 240.889L159.414 240.081C160.256 239.677 161.026 239.217 161.834 238.749C163.151 237.951 165.109 236.863 166.257 235.944L166.346 235.958C166.916 235.453 167.228 235.278 167.864 234.884Z" fill="#F13692"/>
<path d="M167.864 234.884L169.127 236.212C168.744 236.535 168.793 236.57 168.334 236.677C167.978 236.838 167.956 236.859 167.577 236.927C166.957 236.446 166.925 236.632 166.346 235.958C166.916 235.453 167.228 235.278 167.864 234.884Z" fill="#F13692"/>
<path d="M170.35 268.253C172.04 267.821 173.759 268.853 174.177 270.553C174.596 272.253 173.556 273.97 171.86 274.378C170.179 274.784 168.489 273.752 168.073 272.068C167.659 270.385 168.675 268.681 170.35 268.253Z" fill="#F13692"/>
<path d="M168.974 278.646C170.602 278.208 172.275 279.182 172.705 280.817C173.136 282.452 172.16 284.128 170.528 284.553C168.906 284.977 167.247 284.004 166.818 282.377C166.391 280.75 167.353 279.082 168.974 278.646Z" fill="#F13692"/>
<path d="M165.714 272.881C167.345 272.847 168.694 274.141 168.737 275.775C168.777 277.41 167.494 278.771 165.865 278.82C164.226 278.868 162.86 277.571 162.819 275.926C162.777 274.282 164.076 272.916 165.714 272.881Z" fill="#F13692"/>
<path d="M161.896 278.451C163.249 278.198 164.564 279.054 164.884 280.4C165.205 281.743 164.419 283.105 163.098 283.494C162.18 283.765 161.19 283.506 160.52 282.821C159.851 282.136 159.613 281.136 159.9 280.222C160.189 279.307 160.955 278.625 161.896 278.451Z" fill="#F13692"/>
<path d="M158.068 273.207C159.303 272.812 160.628 273.477 161.055 274.705C161.483 275.933 160.858 277.28 159.646 277.743C158.832 278.054 157.913 277.896 157.248 277.331C156.583 276.768 156.275 275.883 156.446 275.027C156.616 274.169 157.238 273.472 158.068 273.207Z" fill="#F13692"/>
<path d="M163.434 267.935C164.493 267.628 165.6 268.241 165.906 269.304C166.214 270.368 165.603 271.48 164.544 271.788C163.484 272.096 162.375 271.484 162.067 270.42C161.761 269.355 162.372 268.243 163.434 267.935Z" fill="#F13692"/>
<path d="M172.761 275.397C173.721 275.022 174.805 275.491 175.193 276.448C175.582 277.406 175.134 278.499 174.186 278.906C173.559 279.174 172.837 279.083 172.296 278.666C171.755 278.25 171.48 277.573 171.577 276.896C171.673 276.218 172.125 275.646 172.761 275.397Z" fill="#F13692"/>
<path d="M73.8681 247.455C74.5071 247.248 74.4901 247.096 74.9851 246.516C80.6561 249.549 86.5731 252.095 92.6721 254.127C93.6281 254.448 100.337 256.287 100.582 256.48L100.632 256.755L100.59 257.172C100.275 258.103 99.7891 261.173 99.4331 262.501C97.0171 271.377 91.9031 283.141 83.4481 287.517C66.5561 296.261 61.7001 276.993 66.0651 264.324C67.2751 260.813 71.3171 248.892 73.8681 247.455Z" fill="#FD74B8"/>
<path d="M71.629 268.277C73.288 267.84 74.987 268.832 75.43 270.495C75.874 272.156 74.897 273.868 73.244 274.323C71.576 274.783 69.854 273.791 69.406 272.115C68.958 270.437 69.956 268.716 71.629 268.277Z" fill="#F13692"/>
<path d="M72.8061 278.65C74.4091 278.164 76.1011 279.076 76.5841 280.685C77.0671 282.294 76.1591 283.992 74.5561 284.477C72.9531 284.961 71.2611 284.051 70.7781 282.442C70.2941 280.833 71.2021 279.135 72.8061 278.65Z" fill="#F13692"/>
<path d="M77.387 272.882C78.97 272.702 80.408 273.821 80.629 275.405C80.85 276.989 79.772 278.461 78.2 278.723C77.147 278.899 76.081 278.486 75.417 277.647C74.753 276.809 74.594 275.673 75.004 274.683C75.413 273.693 76.325 273.004 77.387 272.882Z" fill="#F13692"/>
<path d="M80.5579 278.486C81.9929 278.245 83.3579 279.199 83.6279 280.635C83.8979 282.07 82.9749 283.459 81.5499 283.759C80.6029 283.96 79.6209 283.63 78.9849 282.897C78.3479 282.165 78.1559 281.143 78.4819 280.228C78.8089 279.313 79.6029 278.647 80.5579 278.486Z" fill="#F13692"/>
<path d="M84.0161 273.219C85.2801 272.828 86.6221 273.531 87.0261 274.796C87.4301 276.059 86.7461 277.415 85.4921 277.836C84.6671 278.113 83.7571 277.923 83.1101 277.338C82.4631 276.754 82.1791 275.866 82.3661 275.014C82.5541 274.16 83.1841 273.475 84.0161 273.219Z" fill="#F13692"/>
<path d="M79.1661 267.929C80.2091 267.673 81.268 268.292 81.558 269.33C81.848 270.368 81.265 271.45 80.241 271.775C79.548 271.995 78.7911 271.818 78.2661 271.314C77.7411 270.81 77.5311 270.059 77.7181 269.355C77.9061 268.65 78.4611 268.104 79.1661 267.929Z" fill="#F13692"/>
<path d="M69.5061 275.382C70.4821 275.069 71.5251 275.611 71.8331 276.592C72.1411 277.571 71.5981 278.616 70.6201 278.922C69.6481 279.227 68.6121 278.685 68.3061 277.71C67.9991 276.734 68.5361 275.694 69.5061 275.382Z" fill="#F13692"/>
<path d="M163.624 209.329C163.701 209.559 163.814 209.847 163.859 210.079C164.622 210.196 164.989 210.175 165.754 210.156C165.902 210.672 166.016 211.071 166.123 211.597C166.496 211.989 166.852 211.939 167.478 212.062C164.026 212.09 157.553 211.266 158.201 216.47C158.651 220.079 160.825 225.311 162.83 228.366C163.071 228.762 163.494 229.511 163.774 229.835C165.141 231.69 166.296 233.167 167.864 234.884C167.228 235.278 166.916 235.453 166.346 235.958L166.257 235.944C165.109 236.863 163.151 237.951 161.834 238.749C161.026 239.217 160.256 239.677 159.414 240.081L157.894 240.889C153.355 243.294 146.989 246.155 142.049 247.559L140.983 247.86L140.875 247.856L139.318 248.364C139.073 244.618 138.585 240.46 138.24 236.68C136.365 235.953 133.805 234.673 131.952 233.806C132.75 233.604 133.5 233.269 134.266 232.959C141.655 229.359 143.936 223.77 146.464 216.476L146.569 216.071L147.23 213.971C147.351 213.796 147.545 213.703 147.745 213.567C148.394 213.539 151.059 212.809 151.869 212.6C155.816 211.614 159.735 210.524 163.624 209.329Z" fill="#D60572"/>
<path d="M163.624 209.329C163.701 209.559 163.814 209.847 163.859 210.079C164.622 210.196 164.989 210.175 165.754 210.156C165.902 210.672 166.016 211.071 166.123 211.597C166.496 211.989 166.852 211.939 167.478 212.062C164.026 212.09 157.553 211.266 158.201 216.47C158.651 220.079 160.825 225.311 162.83 228.366C163.071 228.762 163.494 229.511 163.774 229.835C165.141 231.69 166.296 233.167 167.864 234.884C167.228 235.278 166.916 235.453 166.346 235.958L166.257 235.944C165.109 236.863 163.151 237.951 161.834 238.749C161.026 239.217 160.256 239.677 159.414 240.081C159.238 237.778 158.872 235.712 158.783 233.332C159.936 232.442 161.103 231.634 162.295 230.799L161.397 229.464C160.214 230.351 159.023 231.228 157.826 232.094C155.234 230.322 151.177 228.068 148.396 226.513L148.123 218.104C147.984 217.325 148.168 216.75 147.873 216.119C147.309 215.861 147.302 215.983 146.569 216.071L147.23 213.971C147.351 213.796 147.545 213.703 147.745 213.567C148.394 213.539 151.059 212.809 151.869 212.6C155.816 211.614 159.735 210.524 163.624 209.329Z" fill="#D60572"/>
<path d="M163.624 209.329C163.701 209.559 163.814 209.847 163.859 210.079C164.622 210.196 164.989 210.175 165.754 210.156C165.902 210.672 166.016 211.071 166.123 211.597C166.496 211.989 166.852 211.939 167.478 212.062C164.027 212.09 157.553 211.266 158.201 216.47C158.651 220.079 160.825 225.311 162.83 228.366L161.321 229.514C158.778 225.354 155.536 218.723 156.488 213.741C154.102 214.219 150.903 215.412 148.509 215.514C148.117 215.298 148.191 215.191 147.976 214.651C147.997 214.144 147.91 214.065 147.745 213.567C148.394 213.539 151.059 212.809 151.869 212.6C155.816 211.614 159.735 210.524 163.624 209.329Z" fill="#F13692"/>
<path d="M163.774 229.834C165.141 231.689 166.296 233.166 167.864 234.884C167.228 235.277 166.916 235.453 166.346 235.958L166.257 235.944C165.093 234.661 163.166 232.24 162.361 230.804L163.774 229.834Z" fill="#F13692"/>
<path d="M147.23 213.971C147.351 213.795 147.545 213.703 147.745 213.567C147.91 214.065 147.997 214.144 147.975 214.65C147.992 216.091 148.308 216.508 148.123 218.104C147.984 217.325 148.168 216.75 147.873 216.119C147.309 215.861 147.302 215.982 146.569 216.07L147.23 213.971Z" fill="#F13692"/>
<path d="M146.464 216.476L146.569 216.07C147.302 215.982 147.309 215.861 147.873 216.118C148.168 216.749 147.984 217.325 148.123 218.104L148.396 226.513C151.177 228.067 155.234 230.322 157.826 232.093C159.023 231.228 161.649 229.263 162.832 228.376L163.785 229.81C162.593 230.645 159.936 232.442 158.783 233.332C158.872 235.712 159.238 237.778 159.414 240.08L157.894 240.889C157.744 240.231 157.181 234.187 157.164 233.361C154.303 231.913 150.4 229.296 147.789 228.12C145.076 230.71 142.44 233.633 139.806 236.337C140.14 239.372 140.757 244.856 140.875 247.856L139.318 248.364C139.073 244.617 138.585 240.46 138.24 236.68C136.365 235.952 133.805 234.673 131.952 233.806C132.75 233.604 133.5 233.269 134.266 232.958C141.655 229.358 143.936 223.769 146.464 216.476Z" fill="#F13692"/>
<path d="M146.464 216.476C146.858 217.19 146.72 225.109 146.816 226.664C144.132 229.381 141.226 232.315 138.669 235.149C137.321 234.532 135.511 233.724 134.266 232.959C141.655 229.359 143.936 223.769 146.464 216.476Z" fill="#D60572"/>
<path d="M185.051 212.304L185.342 212.339C185.918 212.435 186.493 212.535 187.067 212.639L187.257 212.718C186.621 213.074 186.455 213.655 186.033 214.378L184.06 213.946C184.523 213.7 184.879 212.806 185.051 212.304Z" fill="#F13692"/>
<path d="M173.215 50.098C173.089 48.289 172.797 45.908 172.967 44.169C173.487 38.8743 176.363 32.9916 179.803 29.0197C184.28 23.7767 190.673 20.5486 197.552 20.0581C204.418 19.5996 211.187 21.8674 216.392 26.3694C221.231 30.5645 224.208 36.5077 224.67 42.895C225.013 48.113 224.112 53.057 221.758 57.737C221.129 58.988 220.039 60.547 219.593 61.463C219.96 62.593 220.11 63.049 220.283 64.26C220.269 65.514 219.995 67.587 220.89 68.471C221.427 70.118 221.127 70.246 219.869 71.398C221.143 73.254 222.369 75.319 221.925 77.693C221.718 78.865 221.048 79.904 220.064 80.575C216.898 82.726 212.52 80.183 210.84 77.31C210.107 76.054 209.687 74.935 209.324 73.532C208.707 73.501 208.116 73.4 207.558 73.625C208.291 76.445 208.552 80.462 206.3 82.664C205.48 83.464 204.37 83.896 203.225 83.862C197.695 83.699 195.152 76.129 195.277 71.438C194.796 70.74 192.659 70.269 191.671 69.962C189.122 68.914 187.521 68.166 185.191 66.651C182.717 64.931 181.57 64.12 179.496 61.906L178.889 61.208C177.881 61.551 176.683 62.192 175.683 62.692C171.421 64.819 164.516 65.907 160.612 62.568C158.369 60.648 159.031 57.256 161.192 55.444C164.553 52.626 168.232 52.596 172.373 52.804C172.405 51.553 172.594 51.161 173.215 50.098Z" fill="#FCBDDF"/>
<path d="M219.869 71.3979C221.143 73.2539 222.369 75.3199 221.926 77.6929C221.719 78.8659 221.048 79.905 220.065 80.576C216.899 82.727 212.52 80.184 210.841 77.31C210.107 76.055 209.687 74.936 209.325 73.533C212.688 73.457 216.889 73.1239 219.869 71.3979Z" fill="#FCBDDF"/>
<path d="M220.283 64.261C220.269 65.514 219.995 67.587 220.89 68.472C221.427 70.119 221.127 70.246 219.869 71.398C216.889 73.125 212.688 73.457 209.324 73.533C208.707 73.501 208.116 73.4 207.558 73.626L207.454 72.603C207.665 72.096 208.013 71.584 208.305 71.106C208.587 70.33 208.343 70.569 208.907 70.215C210.811 70.339 213.107 70.54 214.957 70.141C214.095 69.233 215.477 68.03 214.472 66.991C214.144 66.756 214.111 66.667 213.839 66.358C214.087 66.284 214.204 66.206 214.436 66.089C214.976 65.682 215.645 65.252 216.212 64.866L217.336 65.587C218.541 65.103 218.966 64.513 220.283 64.261Z" fill="#FC61A4"/>
<path d="M220.283 64.261C219.741 65.318 218.852 65.287 217.681 66.288C217.616 67.215 217.541 68.828 217.391 69.687L217.111 69.742C216.23 70.071 216.177 70.076 215.225 70.12L214.957 70.141C214.095 69.233 215.477 68.03 214.472 66.991C214.144 66.756 214.111 66.667 213.839 66.358C214.087 66.284 214.204 66.206 214.436 66.089C214.976 65.682 215.645 65.252 216.212 64.866L217.336 65.587C218.541 65.103 218.966 64.513 220.283 64.261Z" fill="#FD89BC"/>
<path d="M215.225 70.1199C215.253 68.9839 215.203 67.138 216.467 66.679C216.828 66.788 216.883 66.926 217.208 67.216C217.407 67.937 217.1 68.545 216.885 69.366L217.112 69.741C216.231 70.071 216.177 70.0759 215.225 70.1199Z" fill="#FC61A4"/>
<path d="M216.213 64.866L217.336 65.586L217.411 66.005C216.66 66.819 215.233 66.888 214.437 66.089C214.977 65.682 215.645 65.252 216.213 64.866Z" fill="#FC61A4"/>
<path d="M217.392 69.687C218.407 69.409 218.898 69.096 219.785 68.568L219.893 68.715C219.566 69.162 219.523 69.22 219.117 69.594C217.39 70.255 215.982 70.59 214.143 70.788C213.475 70.86 212.398 70.826 212.079 71.306L211.996 72.253L211.728 72.401C211.551 71.522 211.69 71.351 211.16 70.94C210.512 70.848 209.585 70.651 208.976 70.785L208.595 71.386L208.306 71.105C208.588 70.329 208.343 70.568 208.907 70.215C210.811 70.339 213.108 70.539 214.957 70.141L215.225 70.12C216.177 70.075 216.231 70.071 217.112 69.741L217.392 69.687Z" fill="#D7196F"/>
<path d="M206.034 67.88C209.888 67.566 210.422 67.123 213.839 66.358C214.111 66.668 214.144 66.756 214.472 66.991C215.477 68.03 214.095 69.233 214.957 70.141C213.107 70.54 210.811 70.339 208.906 70.216L208.52 70.082C207.398 69.409 206.935 68.819 206.034 67.88Z" fill="#FD89BC"/>
<path d="M214.472 66.99C215.477 68.03 214.095 69.232 214.956 70.14C213.107 70.539 210.811 70.339 208.906 70.215L208.52 70.081L209.186 69.714L209.675 70.068C210.608 69.948 210.487 68.721 211.112 68.42C212.126 67.932 213.431 67.42 214.472 66.99Z" fill="#FC61A4"/>
<path d="M182.136 60.709C182.932 61.336 183.311 61.543 183.819 62.437C183.957 63.833 184.758 65.213 185.191 66.652C182.717 64.932 181.57 64.121 179.496 61.906L181.741 61.111L182.136 60.709Z" fill="#FD89BC"/>
<path d="M182.135 60.709C182.932 61.336 183.31 61.543 183.819 62.437C183.023 62.353 182.384 61.653 181.741 61.111L182.135 60.709Z" fill="#FC61A4"/>
<path d="M219.593 61.463C219.96 62.593 220.11 63.049 220.283 64.26C218.966 64.513 218.541 65.103 217.336 65.586L216.212 64.866C217.405 63.878 218.548 62.615 219.593 61.463Z" fill="#FC61A4"/>
<path d="M205.991 69.717C205.569 69.212 205.179 68.85 205.007 68.225L205.22 67.958L206.034 67.88C206.935 68.819 207.399 69.409 208.52 70.082L208.907 70.215C208.343 70.569 208.587 70.33 208.305 71.106L208.193 70.61C207.572 70.08 206.797 69.95 205.991 69.717Z" fill="#FA4191"/>
<path d="M194.573 68.777C194.622 69.325 194.663 69.729 194.75 70.278C194.955 70.408 195.001 70.467 195.225 70.531C195.239 70.74 195.29 71.258 195.277 71.439C194.796 70.74 192.659 70.269 191.671 69.963C192.312 69.573 193.812 69.063 194.573 68.777Z" fill="#FD89BC"/>
<path d="M194.573 68.777C194.624 67.918 194.512 67.463 194.928 66.807C195.627 66.767 195.302 66.701 195.937 67.029C195.955 67.94 195.32 69.103 195.225 70.531C195.001 70.467 194.955 70.408 194.75 70.278C194.663 69.728 194.622 69.325 194.573 68.777Z" fill="#FD89BC"/>
<path d="M173.215 50.099L174.376 53.233L172.374 52.805C172.405 51.553 172.594 51.162 173.215 50.099Z" fill="#FA4191"/>
<path d="M205.991 69.717C206.797 69.95 207.572 70.08 208.193 70.609L208.306 71.105C208.014 71.584 207.665 72.095 207.454 72.603C207.038 71.913 206.376 70.485 205.991 69.717Z" fill="#FD89BC"/>
<path d="M178.889 61.209C180.519 60.342 180.564 59.694 182.135 60.709L181.741 61.111L179.496 61.906L178.889 61.209Z" fill="#F8268C"/>
<path d="M203.263 22.7729C205.873 22.6564 211.964 24.0383 207.978 27.4903C203.752 29.3558 200.785 25.3011 203.263 22.7729Z" fill="#FD89BC"/>
<path d="M206.957 29.4727C209.942 29.7861 212.299 32.6221 208.824 34.1639C208.566 34.1351 208.309 34.0982 208.055 34.0537C205.096 33.5528 203.468 31.3025 206.957 29.4727Z" fill="#FD89BC"/>
<path d="M199.014 27.1464C202.511 26.9636 204.343 30.3068 201.015 31.6783C200.723 31.6566 200.431 31.6272 200.14 31.5902C197.38 31.2178 196.288 28.9243 199.014 27.1464Z" fill="#FD89BC"/>
<path d="M192.832 52.598C194.614 52.952 193.684 54.32 194.937 55.431C196.668 56.965 198.204 54.661 199.533 54.655C199.982 55.178 199.838 54.867 199.838 55.674C196.621 58.892 192.045 56.976 192.832 52.598Z" fill="black"/>
<path d="M211.396 26.4346C213.425 26.6037 215.737 28.301 213.798 30.4449C211.184 30.5565 209.504 28.7353 211.396 26.4346Z" fill="#FD89BC"/>
<path d="M197.646 22.417C200.381 22.2068 202.196 23.1815 199.529 25.5581C199.261 25.5662 198.993 25.5701 198.725 25.5703C196.6 25.5544 195.095 23.9071 197.646 22.417Z" fill="#FD89BC"/>
<path d="M201.514 33.2021C202.847 33.3427 204.122 33.4194 204.485 34.8904C204.333 35.6598 204.207 35.7284 203.685 36.2948C201.638 36.5548 199.563 35.205 201.514 33.2021Z" fill="#FD89BC"/>
<path d="M214.781 31.3643C216.52 31.547 217.701 32.5534 216.749 34.3371C214.801 34.2251 213.601 33.4271 214.781 31.3643Z" fill="#FD89BC"/>
<path d="M192.956 24.5579C194.048 24.5151 194.628 24.5642 195.03 25.6289C194.918 26.3061 194.764 26.3729 194.265 26.8411C193.28 26.8937 192.473 26.7966 192.136 25.7661C192.282 25.0679 192.418 25.0188 192.956 24.5579Z" fill="#FD89BC"/>
<path d="M188.396 40.2244C191.322 42.4009 191.929 46.5369 189.753 49.4629C187.576 52.3879 183.44 52.9949 180.514 50.8169C177.59 48.6409 176.984 44.5059 179.16 41.5809C181.336 38.6562 185.471 38.049 188.396 40.2244Z" fill="#FEFEFE"/>
<path d="M187.814 41.5951C189.979 43.4471 190.237 46.7021 188.39 48.8721C186.543 51.0411 183.288 51.3061 181.115 49.4641C178.935 47.6161 178.669 44.3491 180.522 42.1731C182.375 39.9971 185.642 39.7382 187.814 41.5951Z" fill="black"/>
<path d="M185.061 41.468C185.843 42.005 186.091 43.031 185.616 43.763C185.141 44.494 184.123 44.654 183.339 44.121C182.553 43.586 182.301 42.556 182.777 41.822C183.254 41.088 184.277 40.9294 185.061 41.468Z" fill="#FEFEFE"/>
<path d="M215.102 49.223C218.028 51.4 218.636 55.536 216.459 58.462C214.283 61.387 210.146 61.994 207.221 59.817C204.297 57.64 203.69 53.505 205.866 50.58C208.042 47.655 212.177 47.048 215.102 49.223Z" fill="#FEFEFE"/>
<path d="M214.521 50.595C216.686 52.446 216.944 55.701 215.097 57.871C213.25 60.04 209.995 60.305 207.822 58.463C205.642 56.615 205.376 53.348 207.229 51.172C209.082 48.996 212.349 48.737 214.521 50.595Z" fill="black"/>
<path d="M211.768 50.467C212.549 51.004 212.797 52.03 212.323 52.762C211.848 53.493 210.829 53.653 210.046 53.12C209.259 52.585 209.008 51.555 209.484 50.821C209.96 50.087 210.984 49.928 211.768 50.467Z" fill="#FEFEFE"/>
<path d="M100.388 40.0907C86.932 20.1862 109.084 -6.92189 131.776 1.61701C146.539 7.17251 152.467 22.5201 147.456 36.9338C148.351 38.4652 148.369 39.1583 149.041 40.5899L149.015 40.9205C149.285 42.551 149.104 43.926 150.194 44.743C150.983 45.304 150.713 44.955 151.097 45.78C151.077 46.778 150.681 47.313 150.037 48.075C151.819 50.084 153.295 52.019 153.159 54.873C153.043 57.299 150.963 58.99 148.584 58.648C144.716 58.094 142.877 54.96 141.443 51.784L139.924 52.112C139.908 51.68 139.841 51.16 139.797 50.722L139.474 50.516C138.161 50.855 137.075 49.173 135.878 48.185V47.987C135.34 47.463 134.865 47.091 134.55 46.417C132.371 46.936 129.008 47.507 127.135 48.021C127.086 48.498 127.112 48.885 126.893 49.272C126.932 49.807 126.928 50.275 127.116 50.775C127.127 51.561 127.102 52.557 127.204 53.316C125.988 53.472 124.052 53.298 122.834 53.164C121.529 53.001 120.496 52.809 119.205 52.551C115.011 51.706 113.451 50.856 109.706 48.964C107.659 47.796 105.067 45.247 103.224 43.603C102.804 43.755 101.707 44.188 101.332 44.281C100.641 43.525 100.379 43.081 99.83 42.232C99.955 41.615 100.222 40.7232 100.388 40.0907Z" fill="#FC61A4"/>
<path d="M146.161 39.2053L147.456 36.9341C148.351 38.4654 148.369 39.1586 149.041 40.5902L149.016 40.9208C149.286 42.551 149.104 43.926 150.194 44.744C150.983 45.304 150.713 44.955 151.097 45.78C151.078 46.778 150.681 47.313 150.037 48.075C151.819 50.085 153.295 52.019 153.159 54.873C153.043 57.3 150.963 58.99 148.584 58.648C144.716 58.094 142.877 54.961 141.444 51.784L139.924 52.112C139.908 51.681 139.841 51.16 139.798 50.722L139.474 50.517C138.161 50.855 137.075 49.173 135.879 48.185V47.987C135.34 47.463 134.865 47.091 134.55 46.417C135.301 46.191 135.975 45.916 136.701 45.632C137.806 45.091 139.535 44.486 140.762 43.964C141.355 43.557 142.167 43.119 142.81 42.757C144.318 41.634 145.045 40.6747 146.161 39.2053Z" fill="#C7055E"/>
<path d="M150.037 48.075C151.819 50.084 153.296 52.019 153.16 54.873C153.043 57.3 150.964 58.99 148.584 58.648C144.716 58.094 142.877 54.96 141.444 51.784C144.21 50.989 147.762 49.873 150.037 48.075Z" fill="#FC61A4"/>
<path d="M140.762 43.964C141.355 43.557 142.167 43.119 142.81 42.757C143.202 43.144 143.409 43.432 143.939 43.568C144.267 43.43 144.566 43.308 144.899 43.183C145.493 43.511 145.735 44.115 146.224 44.745C146.348 45.48 146.547 46.367 146.494 47.095C143.833 48.031 140.793 48.761 138.177 47.334L138.055 47.638C136.892 47.302 136.982 47.317 135.879 47.987C135.34 47.464 134.865 47.091 134.55 46.417C135.301 46.191 135.975 45.916 136.701 45.632C137.806 45.091 139.535 44.486 140.762 43.964Z" fill="#F8268C"/>
<path d="M140.762 43.964C141.355 43.557 142.167 43.119 142.81 42.757C143.202 43.144 143.409 43.432 143.939 43.568C144.267 43.43 144.566 43.308 144.9 43.183C145.493 43.511 145.735 44.115 146.224 44.745C146.348 45.48 146.548 46.367 146.494 47.095C146.051 46.409 146.098 45.967 145.832 45.251C145.055 43.158 142.7 44.761 141.448 45.388C141.13 46.452 141.053 47.035 140.401 47.922C140.279 46.345 141.556 46.093 140.762 43.964Z" fill="#FA4191"/>
<path d="M136.701 45.631C137.184 46.226 137.623 46.802 138.177 47.334L138.055 47.638C136.892 47.301 136.982 47.317 135.879 47.987C135.34 47.463 134.865 47.091 134.55 46.417C135.301 46.191 135.975 45.916 136.701 45.631Z" fill="#B30353"/>
<path d="M150.195 44.743C150.983 45.304 150.713 44.955 151.098 45.78C151.078 46.778 150.682 47.313 150.037 48.075C147.762 49.872 144.21 50.989 141.444 51.783L139.924 52.112C139.908 51.68 139.841 51.16 139.798 50.722L139.475 50.516C138.162 50.855 137.076 49.173 135.879 48.185V47.987C136.983 47.317 136.892 47.301 138.055 47.637C138.272 47.971 139.331 48.422 139.747 48.625C139.802 49.107 139.863 49.589 139.932 50.07L140.163 50.014C140.245 49.585 140.32 49.27 140.431 48.848C141.066 48.62 143.975 48.269 144.632 48.364C144.862 48.846 144.933 48.991 145.233 49.428L145.422 49.261C145.341 48.921 145.259 48.583 145.17 48.246C146.053 47.168 149.276 47.068 149.659 44.935L150.195 44.743Z" fill="#F8268C"/>
<path d="M146.161 39.2051L146.455 39.6676C146.593 41.136 148.121 41.589 146.276 42.911L146.625 43.012C146.603 43.887 146.654 44.025 146.224 44.744C145.736 44.115 145.493 43.51 144.9 43.183C144.567 43.308 144.267 43.43 143.94 43.568C143.409 43.432 143.202 43.143 142.81 42.757C144.318 41.634 145.046 40.6745 146.161 39.2051Z" fill="#F8268C"/>
<path d="M149.658 44.935C149.067 45.213 148.948 45.908 148.114 46.072C147.825 45.296 147.744 42.487 147.797 41.571L149.015 40.9204C149.285 42.551 149.104 43.926 150.194 44.743L149.658 44.935Z" fill="#EB0C75"/>
<path d="M146.161 39.2053L147.456 36.9341C148.351 38.4654 148.369 39.1586 149.041 40.5902C147.46 40.9432 147.59 40.7368 146.455 39.6678L146.161 39.2053Z" fill="#EB0C75"/>
<path d="M146.624 43.012L147.048 43.139C147.529 44.443 147.61 45.117 147.44 46.487C147.109 46.895 146.993 46.879 146.494 47.094C146.547 46.367 146.348 45.48 146.224 44.745C146.654 44.025 146.603 43.888 146.624 43.012Z" fill="#EB0C75"/>
<path d="M116.182 48.325C116.408 48.197 116.746 48.008 117.01 48.022C120.542 48.215 123.589 48.428 127.136 48.021C127.087 48.498 127.112 48.885 126.893 49.272C126.933 49.807 126.929 50.275 127.116 50.775C127.128 51.561 127.102 52.557 127.205 53.316C125.989 53.471 124.053 53.298 122.834 53.164C121.529 53.001 120.496 52.809 119.205 52.551C117.49 51.102 116.027 50.574 114.812 48.324C115.487 48.238 115.502 48.245 116.182 48.325Z" fill="#FD89BC"/>
<path d="M116.182 48.325C116.408 48.197 116.746 48.008 117.009 48.022C120.541 48.215 123.589 48.428 127.135 48.021C127.086 48.498 127.112 48.885 126.893 49.272C126.822 49.026 126.879 49.189 126.658 48.812C122.659 49.318 120.043 49.219 116.182 48.325Z" fill="#FA4191"/>
<path d="M122.834 53.164C124.823 52.443 125.556 52.269 127.116 50.775C127.128 51.561 127.102 52.557 127.204 53.316C125.988 53.472 124.052 53.298 122.834 53.164Z" fill="#FA4191"/>
<path d="M103.88 43.322C105.95 44.55 107.303 45.115 109.585 45.892C110.785 46.219 113.435 46.82 114.333 47.577L114.697 48.352L114.811 48.324C116.026 50.574 117.489 51.103 119.204 52.551C115.01 51.706 113.45 50.856 109.706 48.964C107.659 47.796 105.066 45.247 103.224 43.603L103.88 43.322Z" fill="#F8268C"/>
<path d="M109.586 45.892C110.786 46.219 113.436 46.82 114.334 47.577L114.698 48.352C113.079 48.748 110.319 47.443 109.586 45.892Z" fill="#C7055E"/>
<path d="M100.388 40.0903C101.639 41.55 102.381 42.113 103.88 43.321L103.224 43.603C102.804 43.755 101.707 44.187 101.332 44.281C100.64 43.524 100.379 43.08 99.8301 42.231C99.9551 41.615 100.222 40.7227 100.388 40.0903Z" fill="#EB0C75"/>
<path d="M120.447 2.4701C123.867 2.1929 129.951 2.62011 124.549 6.83841C120.847 8.40051 116.884 4.1952 120.447 2.4701Z" fill="#FA4191"/>
<path d="M125.665 8.13262C128.76 8.03662 131.585 10.0971 128.186 12.2326C126.424 12.3178 125.263 12.5256 124.09 10.9473C123.739 9.51283 124.591 8.87482 125.665 8.13262Z" fill="#FA4191"/>
<path d="M117.609 8.13236C121.147 8.03016 122.809 11.1136 119.284 12.2428C117.853 12.3039 116.603 12.448 115.799 11.0092C114.995 9.56766 116.549 8.60056 117.609 8.13236Z" fill="#FA4191"/>
<path d="M119.223 34.6006C120.758 34.8852 120.439 35.8818 121.561 36.5873C123.922 38.0733 125.016 35.0057 126.398 34.7861C126.832 35.3148 126.664 35.0016 126.657 35.9027C124.559 39.7101 118.822 38.7059 119.223 34.6006Z" fill="black"/>
<path d="M139.951 37.7417C141.063 37.8803 141.822 37.9783 142.39 39.0231C142.402 40.4963 141.458 40.6465 140.229 40.9402C139.088 40.8117 138.126 40.6295 137.6 39.5205C137.649 38.0774 138.759 37.9676 139.951 37.7417Z" fill="#FD89BC"/>
<path d="M115.367 3.78781C116.309 3.74751 116.531 3.71321 117.207 4.31651C117.827 5.89931 116.647 6.79071 115.299 7.28891L114.936 7.2364C113.772 7.0736 113.03 6.83451 113.021 5.50191C113.598 4.28041 114.044 4.26701 115.367 3.78781Z" fill="#FA4191"/>
<path d="M128.803 3.78782C130.781 3.76062 134.004 4.50482 131.869 7.03742C129.446 7.46872 127.185 6.53332 128.803 3.78782Z" fill="#FA4191"/>
<path d="M105.272 37.9163C106.549 37.8755 108.59 38.0107 108.16 39.8208C107.682 40.444 107.292 40.5169 106.537 40.8383C105.147 40.9197 104.565 40.8828 103.617 39.8348C103.412 39.1167 103.406 39.4713 103.695 38.736C104.319 38.169 104.439 38.1759 105.272 37.9163Z" fill="#FD89BC"/>
<path d="M121.809 13.2912C122.986 13.2477 124.589 13.2266 124.642 14.7636C124.334 15.4256 124.127 15.4936 123.524 15.8972C122.276 15.9591 121.021 15.9595 120.756 14.4606C121.04 13.7496 121.182 13.7137 121.809 13.2912Z" fill="#FA4191"/>
<path d="M133.947 7.50977C134.915 7.51667 135.827 7.48276 136.391 8.39916C136.442 9.19406 136.474 8.89776 135.983 9.67856C135.019 9.72256 134.154 9.84696 133.552 8.92636C133.499 8.04216 133.47 8.37067 133.947 7.50977Z" fill="#FA4191"/>
<path d="M110.51 7.47656C111.457 7.55026 112.04 7.53927 112.415 8.50047C112.164 9.29827 112.227 9.06086 111.535 9.70726C110.557 9.77136 109.779 9.86526 109.529 8.75276C109.715 8.05016 109.952 7.94416 110.51 7.47656Z" fill="#FA4191"/>
<path d="M127.136 48.021C129.008 47.507 132.371 46.936 134.55 46.417C134.865 47.091 135.34 47.463 135.879 47.987V48.185C137.075 49.173 138.161 50.855 139.474 50.516L139.798 50.722C139.841 51.16 139.908 51.68 139.924 52.112C139.87 52.757 140.288 53.629 140.574 54.263C141.871 57.146 142.776 60.548 140.669 63.314C138.615 65.803 135.269 65.245 133.123 63.227C130.83 61.071 129.46 58.833 128.6 55.816C128.409 55.147 128.249 53.981 127.92 53.511L127.205 53.316C127.102 52.557 127.128 51.561 127.116 50.775C126.929 50.275 126.932 49.807 126.893 49.272C127.112 48.885 127.086 48.498 127.136 48.021Z" fill="#FC61A4"/>
<path d="M127.136 48.021C129.008 47.507 132.371 46.936 134.55 46.417C134.865 47.091 135.34 47.463 135.879 47.987V48.185C134.189 47.906 131.894 47.738 130.244 48.186C127.329 48.978 127.849 51.425 127.92 53.511L127.205 53.316C127.102 52.557 127.128 51.561 127.116 50.775C126.929 50.275 126.932 49.807 126.893 49.272C127.112 48.885 127.086 48.498 127.136 48.021Z" fill="#EB0C75"/>
<path d="M137.04 59.744C137.878 59.786 138.536 59.946 139.104 60.655C139.411 61.031 139.532 61.526 139.433 62.001C139.271 62.756 138.652 63.054 138.033 63.397C135.469 63.152 134.152 61.226 137.04 59.744Z" fill="#FA4191"/>
<path d="M135.555 55.994C137.742 56.109 138.432 57.7 136.31 59.028C133.811 58.945 134.055 57.398 135.555 55.994Z" fill="#FA4191"/>
<path d="M133.415 58.853C134.105 58.685 134.8 59.1 134.978 59.786C135.157 60.472 134.753 61.175 134.069 61.364C133.618 61.489 133.135 61.361 132.803 61.029C132.474 60.698 132.346 60.214 132.474 59.762C132.6 59.311 132.961 58.964 133.415 58.853Z" fill="#FA4191"/>
<path d="M139.155 55.752C139.81 55.801 139.502 55.703 140.074 56.139C140.622 57.188 140.592 58.031 139.545 58.693C138.627 58.339 138.39 58.323 138.171 57.332C138.384 56.525 138.579 56.403 139.155 55.752Z" fill="#FA4191"/>
<path d="M103.224 43.604C105.067 45.247 107.659 47.797 109.706 48.964C107.4 53.032 105.829 55.053 101.846 57.864C97.2561 61.103 89.5471 60.568 91.5411 53.233C92.7591 48.753 97.3971 46.326 101.332 44.281C101.707 44.188 102.804 43.756 103.224 43.604Z" fill="#FC61A4"/>
<path d="M94.1969 54.566C96.8459 54.646 97.6489 56.087 95.7189 58.142C93.4239 58.373 92.4869 56.373 94.1969 54.566Z" fill="#FA4191"/>
<path d="M99.136 54.47C99.884 54.324 100.613 54.796 100.787 55.537C100.961 56.279 100.518 57.025 99.784 57.228C99.283 57.366 98.747 57.22 98.386 56.846C98.025 56.472 97.898 55.93 98.055 55.434C98.211 54.939 98.626 54.569 99.136 54.47Z" fill="#FA4191"/>
<path d="M108.949 23.9935C112.59 24.1841 115.388 27.291 115.197 30.9326C115.005 34.5741 111.898 37.3708 108.256 37.1789C104.616 36.9869 101.82 33.8804 102.011 30.2399C102.202 26.5995 105.308 23.8031 108.949 23.9935Z" fill="#FEFEFE"/>
<path d="M109.224 25.4566C112.052 25.7983 114.071 28.3655 113.735 31.195C113.399 34.0244 110.836 36.048 108.006 35.7182C105.168 35.3875 103.136 32.8151 103.473 29.9772C103.81 27.1393 106.387 25.1138 109.224 25.4566Z" fill="black"/>
<path d="M106.862 26.8759C107.81 26.8899 108.585 27.607 108.595 28.4788C108.605 29.3507 107.846 30.0484 106.898 30.0386C105.947 30.0289 105.166 29.3106 105.156 28.4357C105.147 27.5608 105.911 26.8619 106.862 26.8759Z" fill="#FEFEFE"/>
<path d="M137.793 23.8617C141.435 24.0523 144.232 27.1591 144.041 30.8006C143.849 34.4421 140.742 37.2389 137.1 37.0469C133.46 36.8549 130.664 33.7485 130.856 30.1081C131.047 26.4676 134.153 23.6713 137.793 23.8617Z" fill="#FEFEFE"/>
<path d="M138.068 25.3248C140.897 25.6666 142.915 28.2338 142.579 31.0632C142.244 33.8927 139.681 35.9163 136.851 35.5865C134.012 35.2557 131.981 32.6834 132.318 29.8455C132.654 27.0075 135.231 24.982 138.068 25.3248Z" fill="black"/>
<path d="M135.706 26.7441C136.654 26.7581 137.429 27.4752 137.439 28.347C137.449 29.2188 136.69 29.9166 135.742 29.9068C134.791 29.897 134.011 29.1787 134.001 28.3038C133.991 27.429 134.755 26.73 135.706 26.7441Z" fill="#FEFEFE"/>
<path d="M22.0743 61.372L21.9495 61.211C13.0026 49.644 14.5798 33.3421 26.3372 24.3293C31.7787 20.1642 38.6501 18.3273 45.444 19.2213C51.955 20.0936 57.842 23.5431 61.786 28.7956C65.995 34.3485 68.516 40.6572 67.527 47.662C69.515 49.083 69.875 49.358 68.64 51.61C67.87 51.813 67.658 51.721 67.279 52.408C66.639 53.568 65.572 56.095 64.628 56.987C63.761 58.245 63.221 58.971 62.226 60.125C60.233 61.952 57.753 64.268 55.376 65.552C53.467 67.097 49.646 68.63 47.277 69.303L45.68 69.658C45.384 73.789 44.863 77.451 41.678 80.443C39.6139 82.382 36.1798 83.049 34.2526 80.616C31.7951 77.514 32.8988 73.444 34.0387 70.135L32.8898 69.689L32.4825 70.314C31.6021 73.057 31.2478 73.973 29.2581 76.26C25.7483 80.296 18.327 80.312 18.246 73.792C18.2115 71.016 20.1101 69.035 22.1619 67.227C21.1981 66.49 20.4697 65.92 20.6638 64.629C21.1397 63.985 21.1019 64.002 21.7997 63.628C22.1806 62.945 22.0783 62.174 22.0743 61.372Z" fill="#F8268C"/>
<path d="M35.2111 67.661C37.9395 67.241 40.8683 66.657 43.619 66.544C45.332 66.474 45.483 67.409 45.617 68.832C45.644 69.107 45.665 69.382 45.68 69.658C45.385 73.789 44.863 77.451 41.678 80.443C39.614 82.382 36.1799 83.049 34.2527 80.616C31.7952 77.514 32.8989 73.444 34.0388 70.135C34.4437 69.317 34.8346 68.492 35.2111 67.661Z" fill="#F8268C"/>
<path d="M22.162 67.2271C24.2729 68.0701 25.877 68.7111 28.0811 69.3251C28.879 69.5471 32.0708 70.143 32.4826 70.314C31.6022 73.057 31.2479 73.973 29.2582 76.26C25.7484 80.296 18.3271 80.3121 18.2461 73.7921C18.2116 71.0161 20.1102 69.0351 22.162 67.2271Z" fill="#F8268C"/>
<path d="M22.1619 67.2261C21.1981 66.4901 20.4696 65.9201 20.6638 64.6291C21.1397 63.9851 21.1019 64.0021 21.7997 63.6281L22.1295 63.9701C23.197 64.8331 23.4831 65.0361 24.7751 65.4471C26.5923 66.0841 27.4431 66.0761 29.3419 65.7051L29.8777 65.8861C31.8049 66.4811 33.8498 66.4741 35.877 66.5791C35.3711 66.8191 35.4961 66.7201 35.0817 67.0771L35.211 67.6611C34.8345 68.4921 34.4436 69.317 34.0387 70.135L32.8898 69.689L32.4825 70.314C32.0707 70.143 28.8788 69.5471 28.081 69.3251C25.8769 68.7101 24.2728 68.0701 22.1619 67.2261Z" fill="#EB0C75"/>
<path d="M29.8775 65.886C31.8047 66.482 33.8496 66.474 35.8768 66.58C35.3709 66.819 35.4959 66.721 35.0815 67.078L35.2108 67.661C34.8343 68.493 34.4434 69.318 34.0385 70.136L32.8896 69.689C33.3944 68.973 33.6704 68.812 33.466 67.941C32.4052 66.983 29.1333 67.659 26.9106 66.556C27.7449 66.427 29.2154 66.292 29.8775 65.886Z" fill="#C7055E"/>
<path d="M22.1294 63.9709C23.1969 64.8329 23.4829 65.0359 24.775 65.4479C26.5922 66.0839 27.443 66.0759 29.3418 65.7049L29.8776 65.8859C29.2154 66.2919 27.745 66.4269 26.9107 66.5559C25.463 66.2399 22.4095 65.6179 22.1294 63.9709Z" fill="#B30353"/>
<path d="M67.527 47.662C69.515 49.083 69.875 49.358 68.64 51.61C67.87 51.814 67.658 51.721 67.279 52.408C66.64 53.568 65.572 56.095 64.628 56.987C63.762 58.245 63.221 58.972 62.226 60.125C60.233 61.952 57.753 64.268 55.376 65.552C56.195 64.312 57.503 62.831 56.722 61.34L57.213 61.063L56.346 60.745C61.541 56.447 65.805 55.178 67.527 47.662Z" fill="#C7055E"/>
<path d="M57.213 61.0631C59.296 59.9971 62.304 57.4281 64.628 56.9871C63.762 58.2451 63.221 58.9711 62.226 60.1251C60.233 61.9521 57.753 64.2671 55.376 65.5521C56.195 64.3111 57.503 62.8311 56.722 61.3401L57.213 61.0631Z" fill="#EB0C75"/>
<path d="M56.722 61.34C57.503 62.831 56.195 64.311 55.376 65.552C53.466 67.097 49.646 68.63 47.277 69.303C46.913 68.085 47.065 67.231 46.488 65.684C49.584 64.986 54.121 63.165 56.722 61.34Z" fill="#F8268C"/>
<path d="M56.345 60.745L57.212 61.063L56.722 61.34C54.12 63.165 49.584 64.986 46.488 65.684C47.065 67.231 46.913 68.085 47.277 69.303L45.679 69.658C45.665 69.382 45.644 69.107 45.617 68.832C45.483 67.409 45.332 66.474 43.619 66.544C40.8681 66.657 37.9392 67.241 35.2109 67.661L35.0815 67.077C35.4959 66.72 35.3709 66.819 35.8768 66.579C43.015 66.45 50.09 64.077 56.345 60.745Z" fill="#C7055E"/>
<path d="M22.0744 61.3719C22.6114 61.8889 24.4176 63.3529 24.4454 63.9719C24.4773 64.6819 24.3377 64.4999 24.811 65.2549L24.7752 65.4469C23.4831 65.0359 23.1971 64.8329 22.1296 63.9699L21.7998 63.6279C22.1807 62.9449 22.0784 62.1729 22.0744 61.3719Z" fill="#D7196F"/>
<path d="M24.8113 65.2551C24.9282 64.7801 24.937 64.6171 24.8974 64.1291L25.0551 64.0551C26.0532 64.4791 28.3065 65.4541 29.3422 65.7051C27.4434 66.0761 26.5926 66.0841 24.7754 65.4481L24.8113 65.2551Z" fill="#EB0C75"/>
<path d="M35.6131 22.0752C40.0067 21.5825 39.0626 26.5685 34.5616 27.2185C33.2483 26.9021 32.1419 26.4741 31.6836 25.1168C31.7368 22.9617 33.9154 22.5065 35.6131 22.0752Z" fill="#EB0C75"/>
<path d="M33.0037 28.7598C33.3109 28.8213 33.6148 28.898 33.9145 28.9898C37.0781 29.9838 35.1474 32.5199 32.5491 33.261C29.0796 33.1648 29.5523 29.5469 33.0037 28.7598Z" fill="#EB0C75"/>
<path d="M40.0409 26.3943C43.507 26.213 44.468 29.1174 40.7901 30.56C37.2042 31.1993 36.8065 27.9509 40.0409 26.3943Z" fill="#EB0C75"/>
<path d="M47.4461 50.476C50.4541 51.508 46.3031 57.629 41.8991 54.301C41.3891 53.609 41.3081 53.533 41.3351 52.708L41.6171 52.49C42.7781 52.592 43.9851 54.958 45.7111 53.816C46.9841 52.973 47.0091 51.753 47.4461 50.476Z" fill="black"/>
<path d="M30.726 59.716C31.4694 59.704 31.9466 59.851 32.4669 60.389C32.7253 62.169 30.8259 62.743 29.459 63.018C28.7942 63.006 28.4361 62.846 27.9349 62.44C27.5332 60.702 29.3778 60.021 30.726 59.716Z" fill="#FD89BC"/>
<path d="M28.9258 25.5894C29.7758 25.8697 29.8267 25.9184 30.3203 26.5687C30.8236 28.3587 29.1318 29.245 27.6992 29.648C24.7703 28.3642 27.1498 26.3605 28.9258 25.5894Z" fill="#EB0C75"/>
<path d="M62.0911 48.871C63.1481 48.852 63.6271 48.761 64.2221 49.725C64.1861 51.263 62.7751 51.713 61.5751 52.122C60.7431 52.169 60.7801 52.16 59.9811 51.892C59.4631 51.347 59.5861 51.661 59.5781 50.925C60.2871 49.562 60.7161 49.504 62.0911 48.871Z" fill="#FD89BC"/>
<path d="M41.0629 21.4316C42.3499 21.4372 44.3809 21.5669 44.3639 23.2794C43.9749 24.0319 43.8519 24.0599 43.1299 24.5651C40.6113 24.9976 38.8229 23.4188 41.0629 21.4316Z" fill="#EB0C75"/>
<path d="M38.3399 32.2715C39.0545 32.3231 39.4545 32.5203 39.8612 33.0987C39.9643 34.5342 39.0831 34.9326 37.8991 35.3385C37.1088 35.1889 36.9221 35.0992 36.4048 34.5188C36.1976 33.0801 37.1764 32.7182 38.3399 32.2715Z" fill="#EB0C75"/>
<path d="M68.6401 51.61C72.2181 51.672 76.6901 52.43 79.0391 55.135C84.0701 60.929 77.9161 64.893 72.1351 64.022C67.7211 63.358 65.8471 62.189 62.2261 60.125C63.2211 58.972 63.7621 58.245 64.6281 56.987C65.5721 56.095 66.6401 53.568 67.2791 52.408C67.6581 51.721 67.8701 51.814 68.6401 51.61Z" fill="#F8268C"/>
<path d="M26.2628 46.763C29.245 44.665 33.3637 45.381 35.462 48.363C37.56 51.346 36.8426 55.465 33.8598 57.562C30.878 59.659 26.7606 58.942 24.6632 55.96C22.5654 52.979 23.2818 48.862 26.2628 46.763Z" fill="#FEFEFE"/>
<path d="M27.3827 47.744C29.8186 46.267 32.9912 47.04 34.4744 49.473C35.9575 51.905 35.1911 55.08 32.7614 56.568C30.3243 58.061 27.1383 57.291 25.6508 54.851C24.1634 52.411 24.9393 49.227 27.3827 47.744Z" fill="black"/>
<path d="M26.4011 50.319C27.1551 49.745 28.208 49.83 28.7542 50.51C29.3003 51.19 29.1339 52.207 28.3823 52.785C27.6282 53.364 26.5708 53.281 26.0228 52.599C25.4748 51.917 25.6442 50.896 26.4011 50.319Z" fill="#FEFEFE"/>
<path d="M52.7871 37.663C55.8161 35.6327 59.9171 36.4428 61.9471 39.4722C63.9771 42.502 63.1661 46.603 60.1361 48.632C57.1071 50.66 53.0071 49.85 50.9781 46.821C48.9491 43.793 49.7591 39.6926 52.7871 37.663Z" fill="#FEFEFE"/>
<path d="M53.8839 38.6696C56.3529 37.2477 59.5069 38.093 60.9349 40.559C62.3619 43.025 61.5239 46.181 59.0599 47.613C56.5899 49.05 53.4219 48.209 51.9909 45.735C50.5589 43.262 51.4079 40.0959 53.8839 38.6696Z" fill="black"/>
<path d="M52.8439 41.222C53.6109 40.6648 54.6619 40.7739 55.1919 41.466C55.7229 42.158 55.5329 43.171 54.7689 43.732C54.0019 44.294 52.9459 44.187 52.4139 43.492C51.8819 42.798 52.0749 41.78 52.8439 41.222Z" fill="#FEFEFE"/>
</svg>
