<svg width="80" height="81" viewBox="0 0 80 81" fill="none" xmlns="http://www.w3.org/2000/svg">
<g clip-path="url(#clip0_81_742)">
<path d="M32.0299 33.8979C32.2371 32.931 32.0985 31.9114 31.5806 31.061C31.179 30.4014 30.9575 29.5386 30.9575 28.4119C30.9575 23.6072 34.9571 19.7135 39.8889 19.7135C44.8207 19.7135 48.8203 23.6072 48.8203 28.4119C48.8203 29.5401 48.5988 30.4014 48.1973 31.061C47.6905 31.8928 47.5455 32.8907 47.7288 33.842C47.7543 33.977 47.775 34.081 47.7893 34.1369C48.1861 35.8362 48.3964 36.6649 48.2546 37.1739C48.1319 37.6116 47.8371 37.9468 47.4228 38.1175C47.23 38.1966 47.0229 38.237 46.8094 38.237C46.5098 38.237 46.1991 38.1578 45.9059 38.0026C45.4756 37.7745 44.6422 36.6587 43.8152 35.4327C43.6941 36.4787 43.5316 37.3757 43.3292 37.6938C43.0775 38.0927 42.6855 38.3441 42.2265 38.4015C42.1628 38.4092 42.0991 38.4139 42.0353 38.4139C41.6051 38.4139 41.1749 38.2385 40.8338 37.9157C40.5677 37.6643 40.2331 36.8729 39.8889 35.8595C39.5447 36.8713 39.2117 37.6643 38.944 37.9157C38.6014 38.237 38.1728 38.4139 37.7425 38.4139C37.6788 38.4139 37.615 38.4108 37.5513 38.4015C37.0924 38.3456 36.7004 38.0942 36.4486 37.6938C36.2463 37.3741 36.0837 36.4787 35.9626 35.4311C35.1356 36.6571 34.3022 37.773 33.872 38.0011C33.5804 38.1563 33.2697 38.2354 32.9685 38.2354C32.755 38.2354 32.5478 38.1966 32.355 38.1159C31.9423 37.9437 31.6459 37.6085 31.5232 37.1724C31.3798 36.6634 31.6204 35.6453 32.0172 33.9475C32.0204 33.9336 32.0252 33.9165 32.0283 33.8963L32.0299 33.8979Z" fill="#FFB330"/>
<path d="M40.9995 31.6477C40.3765 32.3057 39.2292 32.2902 38.7782 31.6198" stroke="black" stroke-width="0.5" stroke-miterlimit="10" stroke-linecap="round"/>
<path d="M35.9136 32.7713C35.3257 32.7713 34.8492 32.5114 34.8492 32.1909C34.8492 31.8703 35.3257 31.6105 35.9136 31.6105C36.5015 31.6105 36.978 31.8703 36.978 32.1909C36.978 32.5114 36.5015 32.7713 35.9136 32.7713Z" fill="#FF75C3"/>
<path d="M43.8648 32.7713C43.2769 32.7713 42.8003 32.5114 42.8003 32.1909C42.8003 31.8703 43.2769 31.6105 43.8648 31.6105C44.4526 31.6105 44.9292 31.8703 44.9292 32.1909C44.9292 32.5114 44.4526 32.7713 43.8648 32.7713Z" fill="#FF75C3"/>
<path d="M44.2642 31.2533C42.6906 31.2533 41.415 30.011 41.415 28.4785C41.415 26.9461 42.6906 25.7037 44.2642 25.7037C45.8377 25.7037 47.1133 26.9461 47.1133 28.4785C47.1133 30.011 45.8377 31.2533 44.2642 31.2533Z" fill="white"/>
<path d="M44.2641 30.6419C43.0373 30.6419 42.0428 29.6733 42.0428 28.4785C42.0428 27.2837 43.0373 26.3152 44.2641 26.3152C45.4908 26.3152 46.4854 27.2837 46.4854 28.4785C46.4854 29.6733 45.4908 30.6419 44.2641 30.6419Z" fill="black"/>
<path d="M44.8438 28.4106C44.6055 28.4109 44.4122 28.5985 44.4121 28.8306C44.4121 29.0627 44.6055 29.2512 44.8438 29.2515C45.0822 29.2515 45.2764 29.0628 45.2764 28.8306C45.2762 28.5984 45.0822 28.4106 44.8438 28.4106ZM46.0459 27.3813C45.6975 27.3813 45.4142 27.6563 45.4141 27.9956C45.4141 28.335 45.6974 28.6108 46.0459 28.6108C46.3942 28.6107 46.6768 28.3349 46.6768 27.9956C46.6766 27.6564 46.3941 27.3815 46.0459 27.3813Z" fill="white"/>
<path d="M35.5781 31.2533C34.0046 31.2533 32.729 30.011 32.729 28.4785C32.729 26.9461 34.0046 25.7037 35.5781 25.7037C37.1517 25.7037 38.4272 26.9461 38.4272 28.4785C38.4272 30.011 37.1517 31.2533 35.5781 31.2533Z" fill="white"/>
<path d="M35.578 30.6419C34.3512 30.6419 33.3567 29.6733 33.3567 28.4785C33.3567 27.2837 34.3512 26.3152 35.578 26.3152C36.8048 26.3152 37.7993 27.2837 37.7993 28.4785C37.7993 29.6733 36.8048 30.6419 35.578 30.6419Z" fill="black"/>
<path d="M36.1577 28.4106C35.9195 28.4109 35.7262 28.5985 35.7261 28.8306C35.7261 29.0627 35.9194 29.2512 36.1577 29.2515C36.3962 29.2515 36.5903 29.0628 36.5903 28.8306C36.5902 28.5984 36.3961 28.4106 36.1577 28.4106ZM37.3599 27.3813C37.0115 27.3813 36.7282 27.6563 36.728 27.9956C36.728 28.335 37.0114 28.6108 37.3599 28.6108C37.7082 28.6107 37.9907 28.3349 37.9907 27.9956C37.9906 27.6564 37.7081 27.3815 37.3599 27.3813Z" fill="white"/>
</g>
<g clip-path="url(#clip1_81_742)">
<path d="M60.5753 44.5203C60.7825 43.5535 60.6439 42.5339 60.126 41.6834C59.7244 41.0239 59.5029 40.161 59.5029 39.0343C59.5029 34.2297 63.5025 30.3359 68.4343 30.3359C73.3661 30.3359 77.3657 34.2297 77.3657 39.0343C77.3657 40.1626 77.1442 41.0239 76.7427 41.6834C76.236 42.5152 76.0909 43.5131 76.2742 44.4644C76.2997 44.5994 76.3204 44.7034 76.3347 44.7593C76.7315 46.4586 76.9419 47.2873 76.8 47.7964C76.6773 48.234 76.3826 48.5692 75.9683 48.7399C75.7754 48.8191 75.5683 48.8594 75.3548 48.8594C75.0552 48.8594 74.7445 48.7803 74.4513 48.6251C74.021 48.3969 73.1876 47.2811 72.3606 46.0551C72.2395 47.1011 72.077 47.9981 71.8746 48.3162C71.6229 48.7151 71.2309 48.9665 70.7719 49.0239C70.7082 49.0317 70.6445 49.0363 70.5807 49.0363C70.1505 49.0363 69.7203 48.861 69.3793 48.5382C69.1131 48.2868 68.7785 47.4953 68.4343 46.4819C68.0901 47.4937 67.7571 48.2868 67.4894 48.5382C67.1468 48.8594 66.7182 49.0363 66.2879 49.0363C66.2242 49.0363 66.1605 49.0332 66.0967 49.0239C65.6378 48.968 65.2458 48.7166 64.994 48.3162C64.7917 47.9966 64.6291 47.1011 64.508 46.0536C63.681 47.2796 62.8476 48.3954 62.4174 48.6235C62.1258 48.7787 61.8151 48.8579 61.5139 48.8579C61.3004 48.8579 61.0932 48.8191 60.9004 48.7384C60.4877 48.5661 60.1913 48.2309 60.0686 47.7948C59.9252 47.2858 60.1658 46.2677 60.5626 44.57C60.5658 44.556 60.5706 44.5389 60.5738 44.5188L60.5753 44.5203Z" fill="#FFB330"/>
<path d="M69.5449 42.2701C68.9219 42.9281 67.7746 42.9126 67.3236 42.2422" stroke="black" stroke-width="0.5" stroke-miterlimit="10" stroke-linecap="round"/>
<path d="M64.459 43.3937C63.8711 43.3937 63.3946 43.1339 63.3946 42.8133C63.3946 42.4928 63.8711 42.2329 64.459 42.2329C65.0469 42.2329 65.5234 42.4928 65.5234 42.8133C65.5234 43.1339 65.0469 43.3937 64.459 43.3937Z" fill="#FF75C3"/>
<path d="M72.4102 43.3937C71.8223 43.3937 71.3457 43.1339 71.3457 42.8133C71.3457 42.4928 71.8223 42.2329 72.4102 42.2329C72.998 42.2329 73.4746 42.4928 73.4746 42.8133C73.4746 43.1339 72.998 43.3937 72.4102 43.3937Z" fill="#FF75C3"/>
<path d="M72.8096 41.8758C71.236 41.8758 69.9604 40.6334 69.9604 39.101C69.9604 37.5685 71.236 36.3262 72.8096 36.3262C74.3831 36.3262 75.6587 37.5685 75.6587 39.101C75.6587 40.6334 74.3831 41.8758 72.8096 41.8758Z" fill="white"/>
<path d="M72.8095 41.2643C71.5827 41.2643 70.5882 40.2958 70.5882 39.101C70.5882 37.9062 71.5827 36.9376 72.8095 36.9376C74.0363 36.9376 75.0308 37.9062 75.0308 39.101C75.0308 40.2958 74.0363 41.2643 72.8095 41.2643Z" fill="black"/>
<path d="M73.3892 39.0331C73.1509 39.0333 72.9577 39.221 72.9575 39.453C72.9575 39.6851 73.1509 39.8737 73.3892 39.8739C73.6277 39.8739 73.8218 39.6853 73.8218 39.453C73.8216 39.2208 73.6276 39.0331 73.3892 39.0331ZM74.5913 38.0038C74.2429 38.0038 73.9596 38.2788 73.9595 38.618C73.9595 38.9574 74.2428 39.2333 74.5913 39.2333C74.9396 39.2331 75.2222 38.9573 75.2222 38.618C75.222 38.2789 74.9396 38.004 74.5913 38.0038Z" fill="white"/>
<path d="M64.1235 41.8758C62.55 41.8758 61.2744 40.6334 61.2744 39.101C61.2744 37.5685 62.55 36.3262 64.1235 36.3262C65.6971 36.3262 66.9727 37.5685 66.9727 39.101C66.9727 40.6334 65.6971 41.8758 64.1235 41.8758Z" fill="white"/>
<path d="M64.1234 41.2643C62.8966 41.2643 61.9021 40.2958 61.9021 39.101C61.9021 37.9062 62.8966 36.9376 64.1234 36.9376C65.3502 36.9376 66.3447 37.9062 66.3447 39.101C66.3447 40.2958 65.3502 41.2643 64.1234 41.2643Z" fill="black"/>
<path d="M64.7031 39.0331C64.4649 39.0333 64.2716 39.221 64.2715 39.453C64.2715 39.6851 64.4648 39.8737 64.7031 39.8739C64.9416 39.8739 65.1357 39.6853 65.1357 39.453C65.1356 39.2208 64.9415 39.0331 64.7031 39.0331ZM65.9053 38.0038C65.5569 38.0038 65.2736 38.2788 65.2734 38.618C65.2734 38.9574 65.5568 39.2333 65.9053 39.2333C66.2536 39.2331 66.5361 38.9573 66.5361 38.618C66.536 38.2789 66.2535 38.004 65.9053 38.0038Z" fill="white"/>
</g>
<g clip-path="url(#clip2_81_742)">
<path d="M2.91079 44.5203C3.11794 43.5535 2.97931 42.5339 2.46143 41.6834C2.05988 41.0239 1.83839 40.161 1.83839 39.0343C1.83839 34.2297 5.83799 30.3359 10.7698 30.3359C15.7016 30.3359 19.7012 34.2297 19.7012 39.0343C19.7012 40.1626 19.4797 41.0239 19.0781 41.6834C18.5714 42.5152 18.4264 43.5131 18.6096 44.4644C18.6351 44.5994 18.6559 44.7034 18.6702 44.7593C19.067 46.4586 19.2773 47.2873 19.1355 47.7964C19.0128 48.234 18.718 48.5692 18.3037 48.7399C18.1109 48.8191 17.9037 48.8594 17.6902 48.8594C17.3906 48.8594 17.0799 48.7803 16.7867 48.6251C16.3565 48.3969 15.5231 47.2811 14.6961 46.0551C14.575 47.1011 14.4124 47.9981 14.2101 48.3162C13.9583 48.7151 13.5663 48.9665 13.1074 49.0239C13.0437 49.0317 12.9799 49.0363 12.9162 49.0363C12.4859 49.0363 12.0557 48.861 11.7147 48.5382C11.4486 48.2868 11.114 47.4953 10.7698 46.4819C10.4256 47.4937 10.0926 48.2868 9.82485 48.5382C9.48226 48.8594 9.05361 49.0363 8.62338 49.0363C8.55964 49.0363 8.4959 49.0332 8.43216 49.0239C7.97324 48.968 7.58125 48.7166 7.32948 48.3162C7.12711 47.9966 6.96458 47.1011 6.84347 46.0536C6.01646 47.2796 5.18308 48.3954 4.75284 48.6235C4.46124 48.7787 4.15051 48.8579 3.84935 48.8579C3.63582 48.8579 3.42867 48.8191 3.23586 48.7384C2.82315 48.5661 2.52677 48.2309 2.40407 47.7948C2.26066 47.2858 2.50127 46.2677 2.89805 44.57C2.90123 44.556 2.90601 44.5389 2.9092 44.5188L2.91079 44.5203Z" fill="#FFB330"/>
<path d="M11.8804 42.2701C11.2573 42.9281 10.11 42.9126 9.65908 42.2422" stroke="black" stroke-width="0.5" stroke-miterlimit="10" stroke-linecap="round"/>
<path d="M6.79445 43.3937C6.20658 43.3937 5.73001 43.1339 5.73001 42.8133C5.73001 42.4928 6.20658 42.2329 6.79445 42.2329C7.38232 42.2329 7.85889 42.4928 7.85889 42.8133C7.85889 43.1339 7.38232 43.3937 6.79445 43.3937Z" fill="#FF75C3"/>
<path d="M14.7456 43.3937C14.1577 43.3937 13.6812 43.1339 13.6812 42.8133C13.6812 42.4928 14.1577 42.2329 14.7456 42.2329C15.3335 42.2329 15.8101 42.4928 15.8101 42.8133C15.8101 43.1339 15.3335 43.3937 14.7456 43.3937Z" fill="#FF75C3"/>
<path d="M15.145 41.8758C13.5715 41.8758 12.2959 40.6334 12.2959 39.101C12.2959 37.5685 13.5715 36.3262 15.145 36.3262C16.7185 36.3262 17.9941 37.5685 17.9941 39.101C17.9941 40.6334 16.7185 41.8758 15.145 41.8758Z" fill="white"/>
<path d="M15.1449 41.2643C13.9181 41.2643 12.9236 40.2958 12.9236 39.101C12.9236 37.9062 13.9181 36.9376 15.1449 36.9376C16.3717 36.9376 17.3662 37.9062 17.3662 39.101C17.3662 40.2958 16.3717 41.2643 15.1449 41.2643Z" fill="black"/>
<path d="M15.7246 39.0331C15.4864 39.0333 15.2931 39.221 15.293 39.453C15.293 39.6851 15.4863 39.8737 15.7246 39.8739C15.9631 39.8739 16.1572 39.6853 16.1572 39.453C16.1571 39.2208 15.963 39.0331 15.7246 39.0331ZM16.9268 38.0038C16.5783 38.0038 16.2951 38.2788 16.2949 38.618C16.2949 38.9574 16.5783 39.2333 16.9268 39.2333C17.2751 39.2331 17.5576 38.9573 17.5576 38.618C17.5575 38.2789 17.275 38.004 16.9268 38.0038Z" fill="white"/>
<path d="M6.45898 41.8758C4.88546 41.8758 3.60986 40.6334 3.60986 39.101C3.60986 37.5685 4.88546 36.3262 6.45898 36.3262C8.03251 36.3262 9.30811 37.5685 9.30811 39.101C9.30811 40.6334 8.03251 41.8758 6.45898 41.8758Z" fill="white"/>
<path d="M6.45888 41.2643C5.23209 41.2643 4.23759 40.2958 4.23759 39.101C4.23759 37.9062 5.23209 36.9376 6.45888 36.9376C7.68567 36.9376 8.68018 37.9062 8.68018 39.101C8.68018 40.2958 7.68567 41.2643 6.45888 41.2643Z" fill="black"/>
<path d="M7.03857 39.0331C6.80036 39.0333 6.60707 39.221 6.60693 39.453C6.60693 39.6851 6.80028 39.8737 7.03857 39.8739C7.27707 39.8739 7.47119 39.6853 7.47119 39.453C7.47106 39.2208 7.27698 39.0331 7.03857 39.0331ZM8.24072 38.0038C7.89231 38.0038 7.60903 38.2788 7.60889 38.618C7.60889 38.9574 7.89222 39.2333 8.24072 39.2333C8.58906 39.2331 8.87158 38.9573 8.87158 38.618C8.87144 38.2789 8.58897 38.004 8.24072 38.0038Z" fill="white"/>
</g>
<g clip-path="url(#clip3_81_742)">
<path d="M34.9746 10.6169C35.1046 10.01 35.0176 9.36999 34.6925 8.83618C34.4405 8.42218 34.3014 7.88058 34.3014 7.17338C34.3014 4.15754 36.8119 1.7135 39.9075 1.7135C43.0032 1.7135 45.5137 4.15754 45.5137 7.17338C45.5137 7.88155 45.3746 8.42218 45.1226 8.83618C44.8045 9.3583 44.7135 9.98465 44.8285 10.5818C44.8445 10.6665 44.8575 10.7318 44.8665 10.7669C45.1156 11.8335 45.2476 12.3537 45.1586 12.6732C45.0816 12.9479 44.8965 13.1583 44.6365 13.2655C44.5155 13.3151 44.3854 13.3405 44.2514 13.3405C44.0634 13.3405 43.8683 13.2908 43.6843 13.1934C43.4143 13.0502 42.8911 12.3498 42.372 11.5802C42.296 12.2368 42.194 12.7998 42.067 12.9995C41.9089 13.2499 41.6629 13.4077 41.3748 13.4437C41.3348 13.4486 41.2948 13.4515 41.2548 13.4515C40.9848 13.4515 40.7147 13.3414 40.5007 13.1388C40.3336 12.981 40.1236 12.4842 39.9075 11.8481C39.6915 12.4832 39.4825 12.981 39.3144 13.1388C39.0994 13.3405 38.8303 13.4515 38.5603 13.4515C38.5203 13.4515 38.4803 13.4496 38.4403 13.4437C38.1522 13.4086 37.9061 13.2508 37.7481 12.9995C37.6211 12.7989 37.5191 12.2368 37.4431 11.5793C36.9239 12.3488 36.4008 13.0492 36.1308 13.1924C35.9478 13.2898 35.7527 13.3395 35.5637 13.3395C35.4296 13.3395 35.2996 13.3151 35.1786 13.2645C34.9195 13.1564 34.7335 12.9459 34.6565 12.6722C34.5665 12.3527 34.7175 11.7137 34.9666 10.648C34.9686 10.6393 34.9716 10.6285 34.9736 10.6159L34.9746 10.6169Z" fill="#799975"/>
<path d="M40.6045 9.20442C40.2134 9.61745 39.4933 9.6077 39.2102 9.18689" stroke="black" stroke-width="0.5" stroke-miterlimit="10" stroke-linecap="round"/>
<path d="M37.4119 9.90966C37.0429 9.90966 36.7438 9.74655 36.7438 9.54535C36.7438 9.34414 37.0429 9.18103 37.4119 9.18103C37.7809 9.18103 38.0801 9.34414 38.0801 9.54535C38.0801 9.74655 37.7809 9.90966 37.4119 9.90966Z" fill="#FF75C3"/>
<path d="M42.4032 9.90966C42.0342 9.90966 41.735 9.74655 41.735 9.54535C41.735 9.34414 42.0342 9.18103 42.4032 9.18103C42.7722 9.18103 43.0713 9.34414 43.0713 9.54535C43.0713 9.74655 42.7722 9.90966 42.4032 9.90966Z" fill="#FF75C3"/>
<path d="M42.654 8.95692C41.6663 8.95692 40.8657 8.17713 40.8657 7.21522C40.8657 6.2533 41.6663 5.47351 42.654 5.47351C43.6417 5.47351 44.4424 6.2533 44.4424 7.21522C44.4424 8.17713 43.6417 8.95692 42.654 8.95692Z" fill="white"/>
<path d="M42.6541 8.57311C41.884 8.57311 41.2598 7.96516 41.2598 7.21521C41.2598 6.46526 41.884 5.8573 42.6541 5.8573C43.4241 5.8573 44.0483 6.46526 44.0483 7.21521C44.0483 7.96516 43.4241 8.57311 42.6541 8.57311Z" fill="black"/>
<path d="M43.0181 7.172C42.8684 7.17205 42.7476 7.29089 42.7476 7.43665C42.7478 7.58225 42.8685 7.70026 43.0181 7.70032C43.1676 7.70032 43.2894 7.58228 43.2896 7.43665C43.2896 7.29085 43.1678 7.172 43.0181 7.172ZM43.772 6.52649C43.5534 6.52663 43.3765 6.69928 43.3765 6.91223C43.3765 7.12518 43.5534 7.29783 43.772 7.29797C43.9907 7.29797 44.1684 7.12527 44.1685 6.91223C44.1685 6.69919 43.9907 6.52649 43.772 6.52649Z" fill="white"/>
<path d="M37.2019 8.95692C36.2142 8.95692 35.4135 8.17713 35.4135 7.21522C35.4135 6.2533 36.2142 5.47351 37.2019 5.47351C38.1896 5.47351 38.9902 6.2533 38.9902 7.21522C38.9902 8.17713 38.1896 8.95692 37.2019 8.95692Z" fill="white"/>
<path d="M37.2019 8.57311C36.4319 8.57311 35.8076 7.96516 35.8076 7.21521C35.8076 6.46526 36.4319 5.8573 37.2019 5.8573C37.972 5.8573 38.5962 6.46526 38.5962 7.21521C38.5962 7.96516 37.972 8.57311 37.2019 8.57311Z" fill="black"/>
<path d="M37.5659 7.172C37.4163 7.17205 37.2954 7.29089 37.2954 7.43665C37.2956 7.58225 37.4164 7.70026 37.5659 7.70032C37.7155 7.70032 37.8372 7.58228 37.8374 7.43665C37.8374 7.29085 37.7156 7.172 37.5659 7.172ZM38.3198 6.52649C38.1012 6.52663 37.9243 6.69928 37.9243 6.91223C37.9243 7.12518 38.1012 7.29783 38.3198 7.29797C38.5386 7.29797 38.7163 7.12527 38.7163 6.91223C38.7163 6.69919 38.5386 6.52649 38.3198 6.52649Z" fill="white"/>
</g>
<g clip-path="url(#clip4_81_742)">
<path d="M55.9057 21.5429C56.0357 20.936 55.9487 20.296 55.6237 19.7622C55.3716 19.3482 55.2326 18.8066 55.2326 18.0994C55.2326 15.0836 57.7431 12.6395 60.8387 12.6395C63.9343 12.6395 66.4448 15.0836 66.4448 18.0994C66.4448 18.8076 66.3058 19.3482 66.0537 19.7622C65.7357 20.2843 65.6447 20.9107 65.7597 21.5078C65.7757 21.5926 65.7887 21.6578 65.7977 21.6929C66.0467 22.7595 66.1788 23.2797 66.0898 23.5992C66.0127 23.8739 65.8277 24.0843 65.5676 24.1915C65.4466 24.2412 65.3166 24.2665 65.1826 24.2665C64.9945 24.2665 64.7995 24.2168 64.6155 24.1194C64.3454 23.9762 63.8223 23.2758 63.3032 22.5063C63.2272 23.1628 63.1252 23.7259 62.9981 23.9255C62.8401 24.1759 62.5941 24.3337 62.306 24.3697C62.266 24.3746 62.226 24.3775 62.186 24.3775C61.9159 24.3775 61.6459 24.2675 61.4318 24.0648C61.2648 23.907 61.0547 23.4102 60.8387 22.7741C60.6227 23.4093 60.4136 23.907 60.2456 24.0648C60.0305 24.2665 59.7615 24.3775 59.4914 24.3775C59.4514 24.3775 59.4114 24.3756 59.3714 24.3697C59.0833 24.3347 58.8373 24.1769 58.6793 23.9255C58.5522 23.7249 58.4502 23.1628 58.3742 22.5053C57.8551 23.2748 57.332 23.9752 57.0619 24.1184C56.8789 24.2158 56.6839 24.2655 56.4948 24.2655C56.3608 24.2655 56.2308 24.2412 56.1098 24.1905C55.8507 24.0824 55.6647 23.872 55.5876 23.5982C55.4976 23.2787 55.6487 22.6397 55.8977 21.574C55.8997 21.5653 55.9027 21.5546 55.9047 21.5419L55.9057 21.5429Z" fill="#799975"/>
<path d="M61.5356 20.1304C61.1446 20.5435 60.4244 20.5337 60.1414 20.1129" stroke="black" stroke-width="0.5" stroke-miterlimit="10" stroke-linecap="round"/>
<path d="M58.3431 20.8357C57.9741 20.8357 57.675 20.6726 57.675 20.4714C57.675 20.2702 57.9741 20.1071 58.3431 20.1071C58.7121 20.1071 59.0112 20.2702 59.0112 20.4714C59.0112 20.6726 58.7121 20.8357 58.3431 20.8357Z" fill="#FF75C3"/>
<path d="M63.3343 20.8357C62.9653 20.8357 62.6662 20.6726 62.6662 20.4714C62.6662 20.2702 62.9653 20.1071 63.3343 20.1071C63.7033 20.1071 64.0024 20.2702 64.0024 20.4714C64.0024 20.6726 63.7033 20.8357 63.3343 20.8357Z" fill="#FF75C3"/>
<path d="M63.5852 19.8829C62.5975 19.8829 61.7968 19.1032 61.7968 18.1412C61.7968 17.1793 62.5975 16.3995 63.5852 16.3995C64.5729 16.3995 65.3735 17.1793 65.3735 18.1412C65.3735 19.1032 64.5729 19.8829 63.5852 19.8829Z" fill="white"/>
<path d="M63.5852 19.4991C62.8152 19.4991 62.1909 18.8912 62.1909 18.1412C62.1909 17.3913 62.8152 16.7833 63.5852 16.7833C64.3553 16.7833 64.9795 17.3913 64.9795 18.1412C64.9795 18.8912 64.3553 19.4991 63.5852 19.4991Z" fill="black"/>
<path d="M63.9492 18.098C63.7996 18.0981 63.6787 18.2169 63.6787 18.3627C63.6789 18.5083 63.7997 18.6263 63.9492 18.6263C64.0988 18.6263 64.2205 18.5083 64.2207 18.3627C64.2207 18.2169 64.0989 18.098 63.9492 18.098ZM64.7031 17.4525C64.4845 17.4527 64.3076 17.6253 64.3076 17.8383C64.3076 18.0512 64.4845 18.2239 64.7031 18.224C64.9219 18.224 65.0996 18.0513 65.0996 17.8383C65.0996 17.6252 64.9219 17.4525 64.7031 17.4525Z" fill="white"/>
<path d="M58.133 19.8829C57.1453 19.8829 56.3447 19.1032 56.3447 18.1412C56.3447 17.1793 57.1453 16.3995 58.133 16.3995C59.1207 16.3995 59.9214 17.1793 59.9214 18.1412C59.9214 19.1032 59.1207 19.8829 58.133 19.8829Z" fill="white"/>
<path d="M58.1331 19.4991C57.363 19.4991 56.7388 18.8912 56.7388 18.1412C56.7388 17.3913 57.363 16.7833 58.1331 16.7833C58.9031 16.7833 59.5273 17.3913 59.5273 18.1412C59.5273 18.8912 58.9031 19.4991 58.1331 19.4991Z" fill="black"/>
<path d="M58.4971 18.098C58.3474 18.0981 58.2266 18.2169 58.2266 18.3627C58.2268 18.5083 58.3475 18.6263 58.4971 18.6263C58.6467 18.6263 58.7684 18.5083 58.7686 18.3627C58.7686 18.2169 58.6468 18.098 58.4971 18.098ZM59.251 17.4525C59.0324 17.4527 58.8555 17.6253 58.8555 17.8383C58.8555 18.0512 59.0324 18.2239 59.251 18.224C59.4697 18.224 59.6475 18.0513 59.6475 17.8383C59.6475 17.6252 59.4697 17.4525 59.251 17.4525Z" fill="white"/>
</g>
<g clip-path="url(#clip5_81_742)">
<path d="M14.1557 21.5429C14.2857 20.936 14.1987 20.296 13.8737 19.7622C13.6216 19.3482 13.4826 18.8066 13.4826 18.0994C13.4826 15.0836 15.9931 12.6395 19.0887 12.6395C22.1843 12.6395 24.6948 15.0836 24.6948 18.0994C24.6948 18.8076 24.5558 19.3482 24.3037 19.7622C23.9857 20.2843 23.8947 20.9107 24.0097 21.5078C24.0257 21.5926 24.0387 21.6578 24.0477 21.6929C24.2967 22.7595 24.4288 23.2797 24.3398 23.5992C24.2627 23.8739 24.0777 24.0843 23.8176 24.1915C23.6966 24.2412 23.5666 24.2665 23.4326 24.2665C23.2445 24.2665 23.0495 24.2168 22.8655 24.1194C22.5954 23.9762 22.0723 23.2758 21.5532 22.5063C21.4772 23.1628 21.3752 23.7259 21.2481 23.9255C21.0901 24.1759 20.8441 24.3337 20.556 24.3697C20.516 24.3746 20.476 24.3775 20.436 24.3775C20.1659 24.3775 19.8959 24.2675 19.6818 24.0648C19.5148 23.907 19.3047 23.4102 19.0887 22.7741C18.8727 23.4093 18.6636 23.907 18.4956 24.0648C18.2805 24.2665 18.0115 24.3775 17.7414 24.3775C17.7014 24.3775 17.6614 24.3756 17.6214 24.3697C17.3333 24.3347 17.0873 24.1769 16.9293 23.9255C16.8022 23.7249 16.7002 23.1628 16.6242 22.5053C16.1051 23.2748 15.582 23.9752 15.3119 24.1184C15.1289 24.2158 14.9339 24.2655 14.7448 24.2655C14.6108 24.2655 14.4808 24.2412 14.3598 24.1905C14.1007 24.0824 13.9147 23.872 13.8376 23.5982C13.7476 23.2787 13.8987 22.6397 14.1477 21.574C14.1497 21.5653 14.1527 21.5546 14.1547 21.5419L14.1557 21.5429Z" fill="#799975"/>
<path d="M19.7856 20.1304C19.3946 20.5435 18.6744 20.5337 18.3914 20.1129" stroke="black" stroke-width="0.5" stroke-miterlimit="10" stroke-linecap="round"/>
<path d="M16.5931 20.8357C16.2241 20.8357 15.925 20.6726 15.925 20.4714C15.925 20.2702 16.2241 20.1071 16.5931 20.1071C16.9621 20.1071 17.2612 20.2702 17.2612 20.4714C17.2612 20.6726 16.9621 20.8357 16.5931 20.8357Z" fill="#FF75C3"/>
<path d="M21.5843 20.8357C21.2153 20.8357 20.9162 20.6726 20.9162 20.4714C20.9162 20.2702 21.2153 20.1071 21.5843 20.1071C21.9533 20.1071 22.2524 20.2702 22.2524 20.4714C22.2524 20.6726 21.9533 20.8357 21.5843 20.8357Z" fill="#FF75C3"/>
<path d="M21.8352 19.8829C20.8475 19.8829 20.0468 19.1032 20.0468 18.1412C20.0468 17.1793 20.8475 16.3995 21.8352 16.3995C22.8229 16.3995 23.6235 17.1793 23.6235 18.1412C23.6235 19.1032 22.8229 19.8829 21.8352 19.8829Z" fill="white"/>
<path d="M21.8352 19.4991C21.0652 19.4991 20.4409 18.8912 20.4409 18.1412C20.4409 17.3913 21.0652 16.7833 21.8352 16.7833C22.6053 16.7833 23.2295 17.3913 23.2295 18.1412C23.2295 18.8912 22.6053 19.4991 21.8352 19.4991Z" fill="black"/>
<path d="M22.1992 18.098C22.0496 18.0981 21.9287 18.2169 21.9287 18.3627C21.9289 18.5083 22.0497 18.6263 22.1992 18.6263C22.3488 18.6263 22.4705 18.5083 22.4707 18.3627C22.4707 18.2169 22.3489 18.098 22.1992 18.098ZM22.9531 17.4525C22.7345 17.4527 22.5576 17.6253 22.5576 17.8383C22.5576 18.0512 22.7345 18.2239 22.9531 18.224C23.1719 18.224 23.3496 18.0513 23.3496 17.8383C23.3496 17.6252 23.1719 17.4525 22.9531 17.4525Z" fill="white"/>
<path d="M16.383 19.8829C15.3953 19.8829 14.5947 19.1032 14.5947 18.1412C14.5947 17.1793 15.3953 16.3995 16.383 16.3995C17.3707 16.3995 18.1714 17.1793 18.1714 18.1412C18.1714 19.1032 17.3707 19.8829 16.383 19.8829Z" fill="white"/>
<path d="M16.3831 19.4991C15.613 19.4991 14.9888 18.8912 14.9888 18.1412C14.9888 17.3913 15.613 16.7833 16.3831 16.7833C17.1531 16.7833 17.7773 17.3913 17.7773 18.1412C17.7773 18.8912 17.1531 19.4991 16.3831 19.4991Z" fill="black"/>
<path d="M16.7471 18.098C16.5974 18.0981 16.4766 18.2169 16.4766 18.3627C16.4768 18.5083 16.5975 18.6263 16.7471 18.6263C16.8967 18.6263 17.0184 18.5083 17.0186 18.3627C17.0186 18.2169 16.8968 18.098 16.7471 18.098ZM17.501 17.4525C17.2824 17.4527 17.1055 17.6253 17.1055 17.8383C17.1055 18.0512 17.2824 18.2239 17.501 18.224C17.7197 18.224 17.8975 18.0513 17.8975 17.8383C17.8975 17.6252 17.7197 17.4525 17.501 17.4525Z" fill="white"/>
</g>
<g clip-path="url(#clip6_81_742)">
<path d="M24.8146 71.3425C25.2075 69.4593 24.9445 67.4732 23.9621 65.8167C23.2003 64.532 22.7802 62.8513 22.7802 60.6567C22.7802 51.2979 30.3676 43.7135 39.7233 43.7135C49.0791 43.7135 56.6665 51.2979 56.6665 60.6567C56.6665 62.8543 56.2463 64.532 55.4846 65.8167C54.5233 67.437 54.2482 69.3807 54.5958 71.2337C54.6442 71.4967 54.6835 71.6992 54.7107 71.808C55.4634 75.1181 55.8624 76.7323 55.5934 77.7238C55.3606 78.5762 54.8014 79.2292 54.0154 79.5617C53.6497 79.7158 53.2567 79.7944 52.8516 79.7944C52.2833 79.7944 51.6939 79.6403 51.1377 79.338C50.3215 78.8936 48.7405 76.7202 47.1717 74.3321C46.9419 76.3695 46.6336 78.1168 46.2497 78.7364C45.7721 79.5133 45.0285 80.003 44.1579 80.1149C44.037 80.13 43.916 80.1391 43.7951 80.1391C42.979 80.1391 42.1628 79.7975 41.5159 79.1687C41.0111 78.679 40.3763 77.1373 39.7233 75.1634C39.0704 77.1343 38.4386 78.679 37.9308 79.1687C37.2809 79.7944 36.4677 80.1391 35.6515 80.1391C35.5306 80.1391 35.4097 80.133 35.2888 80.1149C34.4182 80.006 33.6746 79.5163 33.197 78.7364C32.8131 78.1137 32.5047 76.3695 32.275 74.3291C30.7061 76.7172 29.1252 78.8906 28.309 79.335C27.7558 79.6373 27.1663 79.7914 26.595 79.7914C26.19 79.7914 25.797 79.7158 25.4312 79.5587C24.6483 79.2231 24.086 78.5702 23.8533 77.7208C23.5812 76.7293 24.0377 74.7463 24.7904 71.4392C24.7964 71.412 24.8055 71.3788 24.8115 71.3395L24.8146 71.3425Z" fill="#F43BA6"/>
<path d="M41.8301 66.9596C40.6481 68.2413 38.4717 68.211 37.6162 66.9052" stroke="black" stroke-width="1.20915" stroke-miterlimit="10" stroke-linecap="round"/>
<path d="M32.1814 69.1481C31.0662 69.1481 30.1621 68.6419 30.1621 68.0175C30.1621 67.3931 31.0662 66.887 32.1814 66.887C33.2966 66.887 34.2007 67.3931 34.2007 68.0175C34.2007 68.6419 33.2966 69.1481 32.1814 69.1481Z" fill="#FF75C3"/>
<path d="M47.2654 69.1481C46.1502 69.1481 45.2461 68.6419 45.2461 68.0175C45.2461 67.3931 46.1502 66.887 47.2654 66.887C48.3806 66.887 49.2847 67.3931 49.2847 68.0175C49.2847 68.6419 48.3806 69.1481 47.2654 69.1481Z" fill="#FF75C3"/>
<path d="M48.0233 66.1914C45.0383 66.1914 42.6184 63.7715 42.6184 60.7865C42.6184 57.8014 45.0383 55.3816 48.0233 55.3816C51.0084 55.3816 53.4282 57.8014 53.4282 60.7865C53.4282 63.7715 51.0084 66.1914 48.0233 66.1914Z" fill="white"/>
<path d="M48.0234 65.0004C45.6962 65.0004 43.8096 63.1138 43.8096 60.7865C43.8096 58.4592 45.6962 56.5726 48.0234 56.5726C50.3507 56.5726 52.2373 58.4592 52.2373 60.7865C52.2373 63.1138 50.3507 65.0004 48.0234 65.0004Z" fill="black"/>
<path d="M49.1235 60.6532C48.6712 60.6533 48.3042 61.0202 48.3042 61.4725C48.3042 61.9249 48.6712 62.2918 49.1235 62.2919C49.576 62.2919 49.9429 61.925 49.9429 61.4725C49.9428 61.0201 49.5759 60.6532 49.1235 60.6532ZM51.4028 58.6493C50.7417 58.6493 50.2056 59.1855 50.2056 59.8466C50.2057 60.5076 50.7418 61.0438 51.4028 61.0438C52.0639 61.0438 52.6 60.5076 52.6001 59.8466C52.6001 59.1854 52.0639 58.6493 51.4028 58.6493Z" fill="white"/>
<path d="M31.5453 66.1914C28.5603 66.1914 26.1404 63.7715 26.1404 60.7865C26.1404 57.8014 28.5603 55.3816 31.5453 55.3816C34.5303 55.3816 36.9502 57.8014 36.9502 60.7865C36.9502 63.7715 34.5303 66.1914 31.5453 66.1914Z" fill="white"/>
<path d="M31.5454 65.0004C29.2181 65.0004 27.3315 63.1138 27.3315 60.7865C27.3315 58.4592 29.2181 56.5726 31.5454 56.5726C33.8727 56.5726 35.7593 58.4592 35.7593 60.7865C35.7593 63.1138 33.8727 65.0004 31.5454 65.0004Z" fill="black"/>
<path d="M32.6455 60.6532C32.1932 60.6533 31.8262 61.0202 31.8262 61.4725C31.8262 61.9249 32.1931 62.2918 32.6455 62.2919C33.0979 62.2919 33.4648 61.925 33.4648 61.4725C33.4648 61.0201 33.0979 60.6532 32.6455 60.6532ZM34.9248 58.6493C34.2637 58.6493 33.7275 59.1855 33.7275 59.8466C33.7277 60.5076 34.2638 61.0438 34.9248 61.0438C35.5858 61.0438 36.1219 60.5076 36.1221 59.8466C36.1221 59.1854 35.5859 58.6493 34.9248 58.6493Z" fill="white"/>
</g>
<defs>
<clipPath id="clip0_81_742">
<rect width="17.9227" height="18.7019" fill="white" transform="matrix(-1 0 0 1 48.8203 19.7135)"/>
</clipPath>
<clipPath id="clip1_81_742">
<rect width="17.9227" height="18.7019" fill="white" transform="matrix(-1 0 0 1 77.3657 30.3359)"/>
</clipPath>
<clipPath id="clip2_81_742">
<rect width="17.9227" height="18.7019" fill="white" transform="matrix(-1 0 0 1 19.7012 30.3359)"/>
</clipPath>
<clipPath id="clip3_81_742">
<rect width="11.2499" height="11.739" fill="white" transform="matrix(-1 0 0 1 45.5137 1.7135)"/>
</clipPath>
<clipPath id="clip4_81_742">
<rect width="11.2499" height="11.739" fill="white" transform="matrix(-1 0 0 1 66.4448 12.6395)"/>
</clipPath>
<clipPath id="clip5_81_742">
<rect width="11.2499" height="11.739" fill="white" transform="matrix(-1 0 0 1 24.6948 12.6395)"/>
</clipPath>
<clipPath id="clip6_81_742">
<rect width="34" height="36.4286" fill="white" transform="matrix(-1 0 0 1 56.6665 43.7135)"/>
</clipPath>
</defs>
</svg>
