<svg width="84" height="90" viewBox="0 0 84 90" fill="none" xmlns="http://www.w3.org/2000/svg">
<g clip-path="url(#clip0_156_1515)">
<path d="M78.6931 68.2599C77.7222 63.6072 78.3719 58.7005 80.7991 54.6079C82.6811 51.4339 83.7192 47.2816 83.7192 41.8596C83.7192 18.7379 64.9739 0 41.8596 0C18.7453 0 0 18.7379 0 41.8596C0 47.289 1.03809 51.4339 2.92009 54.6079C5.295 58.6109 5.97461 63.413 5.11576 67.991C4.99627 68.6408 4.89918 69.1412 4.83196 69.41C2.97237 77.5878 1.98656 81.5758 2.65123 84.0254C3.22629 86.1314 4.60792 87.7446 6.54966 88.5661C7.45332 88.947 8.4242 89.1412 9.42494 89.1412C10.829 89.1412 12.2853 88.7603 13.6594 88.0134C15.6759 86.9156 19.5818 81.5459 23.4578 75.646C24.0254 80.6796 24.7872 84.9963 25.7356 86.5273C26.9156 88.4466 28.7528 89.6565 30.9037 89.9328C31.2024 89.9701 31.5011 89.9925 31.7999 89.9925C33.8163 89.9925 35.8327 89.1486 37.4309 87.5952C38.6781 86.3854 40.2465 82.5766 41.8596 77.6998C43.4727 82.5691 45.0336 86.3854 46.2883 87.5952C47.894 89.1412 49.9029 89.9925 51.9193 89.9925C52.2181 89.9925 52.5168 89.9776 52.8155 89.9328C54.9664 89.6639 56.8036 88.4541 57.9836 86.5273C58.932 84.9888 59.6938 80.6796 60.2614 75.6385C64.1374 81.5385 68.0433 86.9081 70.0597 88.006C71.4264 88.7528 72.8828 89.1337 74.2943 89.1337C75.295 89.1337 76.2659 88.947 77.1695 88.5586C79.1038 87.7297 80.4929 86.1165 81.068 84.0179C81.7401 81.5683 80.6124 76.6692 78.7528 68.4989C78.7379 68.4317 78.7155 68.3495 78.7005 68.2524L78.6931 68.2599Z" fill="#F43BA6"/>
<path d="M36.6542 57.4313C39.5743 60.5978 44.9514 60.5232 47.0649 57.2969" stroke="black" stroke-width="2.9873" stroke-miterlimit="10" stroke-linecap="round"/>
<path d="M60.493 62.8382C63.2482 62.8382 65.4818 61.5877 65.4818 60.0451C65.4818 58.5025 63.2482 57.252 60.493 57.252C57.7377 57.252 55.5042 58.5025 55.5042 60.0451C55.5042 61.5877 57.7377 62.8382 60.493 62.8382Z" fill="#FF75C3"/>
<path d="M23.2263 62.8382C25.9816 62.8382 28.2151 61.5877 28.2151 60.0451C28.2151 58.5025 25.9816 57.252 23.2263 57.252C20.4711 57.252 18.2375 58.5025 18.2375 60.0451C18.2375 61.5877 20.4711 62.8382 23.2263 62.8382Z" fill="#FF75C3"/>
<path d="M21.3532 55.5336C28.728 55.5336 34.7065 49.5552 34.7065 42.1804C34.7065 34.8056 28.728 28.8271 21.3532 28.8271C13.9785 28.8271 8 34.8056 8 42.1804C8 49.5552 13.9785 55.5336 21.3532 55.5336Z" fill="white"/>
<path d="M21.3532 52.5911C27.1029 52.5911 31.764 47.9301 31.764 42.1804C31.764 36.4307 27.1029 31.7696 21.3532 31.7696C15.6035 31.7696 10.9425 36.4307 10.9425 42.1804C10.9425 47.9301 15.6035 52.5911 21.3532 52.5911Z" fill="black"/>
<path d="M18.6348 41.8516C19.7525 41.8516 20.6592 42.7582 20.6592 43.876C20.659 44.9936 19.7524 45.8994 18.6348 45.8994C17.5171 45.8994 16.6115 44.9936 16.6113 43.876C16.6113 42.7582 17.517 41.8516 18.6348 41.8516ZM13.0039 36.9004C14.6371 36.9005 15.9608 38.2243 15.9609 39.8574C15.9609 41.4907 14.6372 42.8153 13.0039 42.8154C11.3706 42.8154 10.0459 41.4908 10.0459 39.8574C10.0461 38.2242 11.3707 36.9004 13.0039 36.9004Z" fill="white"/>
<path d="M62.0635 55.5336C69.4383 55.5336 75.4167 49.5552 75.4167 42.1804C75.4167 34.8056 69.4383 28.8271 62.0635 28.8271C54.6887 28.8271 48.7102 34.8056 48.7102 42.1804C48.7102 49.5552 54.6887 55.5336 62.0635 55.5336Z" fill="white"/>
<path d="M62.0635 52.5911C67.8132 52.5911 72.4742 47.9301 72.4742 42.1804C72.4742 36.4307 67.8132 31.7696 62.0635 31.7696C56.3138 31.7696 51.6527 36.4307 51.6527 42.1804C51.6527 47.9301 56.3138 52.5911 62.0635 52.5911Z" fill="black"/>
<path d="M59.345 41.8516C60.4628 41.8516 61.3694 42.7582 61.3694 43.876C61.3692 44.9936 60.4627 45.8994 59.345 45.8994C58.2273 45.8994 57.3217 44.9936 57.3215 43.876C57.3215 42.7582 58.2272 41.8516 59.345 41.8516ZM53.7141 36.9004C55.3473 36.9005 56.671 38.2243 56.6712 39.8574C56.6712 41.4907 55.3474 42.8153 53.7141 42.8154C52.0808 42.8154 50.7561 41.4908 50.7561 39.8574C50.7563 38.2242 52.0809 36.9004 53.7141 36.9004Z" fill="white"/>
</g>
<defs>
<clipPath id="clip0_156_1515">
<rect width="84" height="90" fill="white"/>
</clipPath>
</defs>
</svg>
