<svg width="1734" height="561" viewBox="0 0 1734 561" fill="none" xmlns="http://www.w3.org/2000/svg">
<path d="M1066.35 191.654C1063.5 180.246 1053.08 178.144 1045.41 178.144C1033.8 178.161 1024.4 184.5 1024.42 196.062L1024.49 210.436V282.938C1024.49 283.362 1024.55 283.785 1024.65 284.175V286.379C1024.67 297.042 1033.5 309.721 1043.85 310.569C1044.71 310.637 1045.59 310.637 1046.49 310.603C1058.01 310.128 1066.45 297.855 1066.42 286.294L1066.3 256.307V232.066C1066.5 230.676 1066.62 229.32 1066.62 228.032L1066.3 207.826V202.486C1066.3 202.317 1066.26 202.147 1066.25 201.977C1066.37 198.468 1067.1 194.553 1066.37 191.654H1066.35ZM1215.34 191.484C1212.56 180.076 1202.39 177.974 1194.9 177.991C1185.92 178.008 1178.31 182.026 1175.54 189.433C1174.49 192.162 1170.51 193.298 1168.03 191.247C1159.46 184.195 1148.87 179.771 1137.08 179.771C1108.57 179.534 1081.5 203.978 1081.5 240.271C1081.5 276.564 1108.8 299.585 1137.08 299.585C1148.31 299.585 1158.68 295.448 1167.21 288.702C1169.67 286.752 1173.66 288.379 1173.66 291.515C1173.66 312.637 1162.5 318.079 1143.02 318.079C1142.39 318.079 1141.82 318.095 1141.32 318.146C1132.92 317.231 1122.99 315.485 1122.99 315.485C1107.72 314.146 1097.95 320.316 1096.14 329.216H1096.17C1096.01 329.962 1095.91 330.724 1095.84 331.504C1095.08 341.539 1111.18 348.116 1118.34 350.574C1125.5 353.032 1138.21 355.779 1147.6 354.795C1148.04 354.745 1148.4 354.677 1148.7 354.592C1196.18 353.456 1215.46 332.979 1215.46 289.871C1215.46 276.581 1215.68 230.778 1215.69 198.045C1215.69 197.384 1215.66 196.706 1215.61 196.027C1215.69 194.383 1215.68 192.824 1215.35 191.468L1215.34 191.484ZM1149.65 263.783C1136.58 263.783 1125.65 253.815 1125.65 240.288C1125.65 226.761 1136.35 216.081 1149.65 216.081C1162.96 216.081 1174.12 226.761 1174.12 240.288C1174.12 253.815 1162.72 263.783 1149.65 263.783ZM866.994 253.578V225.099C866.994 197.807 850.362 181.212 826.864 181.212C811.998 181.212 801.953 187.992 795.688 195.061C792.84 198.299 786.73 198.045 784.032 194.705C777.006 186.026 766.588 181.212 754.658 181.212C743.492 181.212 734.821 185.789 728.559 191.383C725.845 193.807 720.55 192.451 719.464 189.23C719.43 189.128 719.277 188.925 719.04 188.688C718.327 187.179 717.377 185.84 716.257 184.636C716.172 184.433 716.053 184.28 715.85 184.195C711.981 180.314 706.126 178.161 699.576 178.161C687.969 178.177 678.568 184.517 678.585 196.079L678.636 208.012V253.544C678.636 253.9 678.585 254.239 678.585 254.595L678.636 266.529V267.139C678.636 267.139 678.636 267.156 678.636 267.173L678.721 286.667C678.721 297.33 687.63 310.009 698.032 310.874C698.897 310.942 699.797 310.942 700.696 310.908C712.286 310.434 720.788 298.161 720.754 286.599L720.669 265.393V235.83C720.669 225.625 726.608 218.268 736.586 218.268C746.089 218.268 751.553 224.201 751.553 237.966V254.477C751.553 254.477 751.553 254.544 751.553 254.595V255.866V267.139C751.553 267.309 751.587 267.478 751.604 267.648L751.688 286.651C751.688 297.313 760.597 309.992 771.015 310.857C771.879 310.925 772.78 310.925 773.681 310.891C785.27 310.417 793.772 298.144 793.736 286.582L793.601 255.256V237.983C793.601 223.269 801.44 218.285 809.756 218.285C819.258 218.285 824.726 224.218 824.726 237.983V253.426C824.705 253.815 824.674 254.205 824.674 254.595L824.809 286.651C824.809 297.313 833.787 310.009 844.288 310.857C845.174 310.925 846.069 310.925 846.97 310.891C858.662 310.417 867.216 298.144 867.18 286.582L867.045 254.527C867.045 254.222 867.009 253.934 866.994 253.629V253.578ZM1362.61 277.191C1365.16 285.548 1354.59 292.939 1349.12 296.414C1344.29 299.483 1334.56 305.229 1326.88 307.196C1319.9 309.484 1312.11 310.908 1303.37 310.908C1255.64 310.908 1228.56 283.531 1228.56 244.763C1228.56 205.995 1255.87 178.619 1296.49 178.619C1333.07 178.619 1360.85 206.47 1360.85 245.238V251.917C1360.85 254.781 1358.57 257.104 1355.76 257.104H1278.06C1274.75 257.104 1272.28 260.325 1273.8 263.325C1278.89 273.462 1289.53 277.937 1304.56 277.937C1307.48 277.937 1310.23 278.073 1312.83 278.225C1321.21 277.87 1332.88 271.123 1337.08 268.902C1349.48 264.8 1358.76 268.139 1361.94 275.31C1362.2 275.903 1362.44 276.547 1362.63 277.191H1362.61ZM1270.49 231.66H1311.28C1314.66 231.66 1317.12 228.337 1315.56 225.286C1311.4 217.183 1304.17 212.759 1294.01 212.759C1281.43 212.759 1273.81 219.539 1270.49 231.643V231.66ZM1044.59 122.983C1031.58 123 1021.04 131.544 1021.06 142.054L1021.21 143.461C1021.21 153.157 1031.19 168.854 1042.86 169.617C1043.83 169.668 1044.85 169.685 1045.85 169.651C1058.85 169.21 1068.37 153.903 1068.35 143.393L1068.2 141.986C1068.16 131.476 1057.61 122.983 1044.59 122.983ZM1596.94 200.469C1596.6 192.62 1587.06 186.467 1577.97 184.246L1578 184.043C1575.19 184.043 1572.91 181.771 1572.91 178.957V150.699C1572.91 150.699 1572.9 150.581 1572.9 150.513C1572.93 150.174 1572.96 149.818 1572.96 149.462C1572.96 141.071 1563.54 134.256 1551.94 134.256C1540.33 134.256 1530.91 141.071 1530.91 149.462C1530.91 149.513 1530.91 149.58 1530.91 149.631C1530.86 149.902 1530.85 150.174 1530.85 150.445V178.957C1530.85 181.771 1528.57 184.043 1525.76 184.043V184.162C1516.69 186.212 1506.11 192.637 1505.48 199.96H1505.49C1505.43 200.706 1505.41 201.469 1505.44 202.232C1505.8 210.453 1516.29 216.844 1525.76 218.742V219.166C1528.57 219.166 1530.85 221.438 1530.85 224.252V251.205C1530.69 252.205 1530.59 253.239 1530.59 254.29L1530.73 286.345C1530.73 297.008 1539.68 309.704 1550.15 310.552C1551.02 310.62 1551.94 310.62 1552.84 310.586C1564.5 310.111 1573.03 297.838 1573.02 286.278L1572.88 255.849V219.149C1582.45 218.285 1596.15 211.081 1596.87 202.723H1596.85C1596.92 201.977 1596.94 201.215 1596.91 200.452L1596.94 200.469ZM568.574 120C512.983 120 470 161.752 470 213.962C470 266.173 513.475 308.399 568.574 308.399C623.673 308.399 666.911 266.173 666.911 213.962C666.911 161.989 624.148 120 568.574 120ZM568.574 266.156C538.641 266.156 516.309 243.136 516.309 214.183C516.309 185.23 539.116 162.209 568.574 162.209C598.033 162.209 620.585 185.23 620.585 214.183C620.585 243.136 598.491 266.156 568.574 266.156ZM1005.95 225.116C1005.95 197.841 987.185 181.229 963.92 181.229C950.701 181.229 940.303 185.924 932.92 191.569C930.745 193.231 927.472 192.62 925.81 190.756C925.52 190.332 925.251 189.891 924.977 189.433C924.977 189.433 924.977 189.433 924.977 189.416C921.973 184.382 919.276 178.194 905.818 178.161C894.214 178.177 884.811 184.517 884.827 196.079V199.35V267.122C884.827 267.376 884.863 267.614 884.899 267.851L884.982 286.616C884.982 297.279 893.924 309.976 904.379 310.823C905.243 310.891 906.144 310.891 907.04 310.857C918.68 310.382 927.203 298.109 927.167 286.549L927.084 267.122C927.084 267.122 927.084 267.105 927.084 267.088V235.779C927.084 225.574 936.347 218.454 945.849 218.454C956.303 218.454 963.905 223.913 963.905 237.914V267.088C963.905 267.292 963.941 267.495 963.972 267.699L964.06 286.599C964.06 297.262 972.95 309.942 983.353 310.806C984.218 310.874 985.119 310.874 986.015 310.84C997.587 310.365 1006.07 298.093 1006.06 286.532L1005.97 265.885V225.099L1005.95 225.116ZM1498.21 225.116C1498.21 197.841 1479.44 181.229 1456.18 181.229C1442.96 181.229 1432.56 185.924 1425.18 191.569C1422.18 193.875 1417 191.874 1417 188.077C1417 187.619 1416.22 186.06 1415.08 185.026C1411.25 180.652 1405.07 178.161 1398.06 178.161C1386.45 178.177 1377.05 184.517 1377.07 196.079V199.35V267.122C1377.07 267.376 1377.11 267.614 1377.14 267.851L1377.23 286.616C1377.23 297.279 1386.17 309.976 1396.62 310.823C1397.48 310.891 1398.38 310.891 1399.28 310.857C1410.92 310.382 1419.44 298.109 1419.41 286.549L1419.32 267.122C1419.32 267.122 1419.32 267.105 1419.32 267.088V235.779C1419.32 225.574 1428.59 218.454 1438.09 218.454C1448.55 218.454 1456.15 223.913 1456.15 237.914V267.088C1456.15 267.292 1456.18 267.495 1456.22 267.699L1456.3 286.599C1456.3 297.262 1465.19 309.942 1475.59 310.806C1476.46 310.874 1477.36 310.874 1478.26 310.84C1489.83 310.365 1498.32 298.093 1498.3 286.532L1498.21 265.885V225.099V225.116Z" fill="white"/>
<path d="M190.293 212.265L190.107 212.131C187.518 210.248 183.473 206.479 181.012 204.154C168.88 192.686 153.208 179.437 149.725 162.304C147.404 150.892 155.396 141.92 166.327 140.246C177.869 138.479 187.555 143.313 198.354 146.336C210.453 149.721 226.628 153.168 238.692 148.153C251.889 142.667 255.841 122.063 259.335 109.415C260.808 104.237 262.325 99.0707 263.884 93.9179C268.427 78.5028 276.436 50.3577 295.004 46.9473C304.05 45.7034 309.955 51.011 314.743 57.8515C319.865 65.1672 321.372 71.7541 324.312 79.7863C330.549 96.8239 332.553 121.259 341.899 136.541C343.594 139.323 345.805 141.75 348.412 143.69C360.469 152.564 381.725 147.009 394.491 142.066C398.227 140.61 401.924 139.053 405.576 137.399C414.454 133.358 425.472 127.481 434.747 134.197C438.099 136.624 440.469 141.736 440.73 145.823C442.4 171.971 422.39 192.131 404.433 207.833L396.095 215.045C391.72 218.811 388.414 221.468 385.038 226.304C377.194 237.544 380.83 249.191 384.847 261.019C389.25 273.978 394.691 286.91 395.505 300.758C395.991 309.333 395.274 319.441 389.861 326.509C386.721 330.61 382.103 332.839 377.029 333.329C357.227 335.049 337.732 318.567 322.609 307.592C317.192 303.661 310.774 298.683 304.734 296.359C301.291 295.002 297.558 294.563 293.897 295.088C284.554 296.39 275.899 305.128 268.44 311.081C253.444 323.052 232.709 338.892 212.316 332.554C204.591 330.154 200.507 320.608 200.091 313.218C199.562 305.055 200.797 295.989 202.155 287.91C201.988 287.78 201.548 287.565 201.349 287.499C197.163 286.083 193.712 289.439 190.662 291.591C185.917 294.937 176.775 302.057 170.69 299.455C161.493 295.525 167.788 280.064 168.987 272.905C169.25 271.343 169.772 269.653 169.548 268.095C169.363 266.806 168.829 265.595 168.005 264.591C166.782 263.073 165.083 262.03 163.533 260.769C159.193 257.239 152.907 253.14 150.416 248C149.553 246.219 149.465 243.783 150.276 241.987C153.724 235.005 165.17 234.64 171.77 233.781C177.992 232.972 183.057 233.461 185.05 226.223C185.381 225.022 186.027 223.499 186.444 222.288C187.61 218.897 188.822 215.534 190.293 212.265Z" fill="#F53B9D"/>
<path d="M190.293 212.264C190.82 210.319 193.918 206.323 195.945 205.385C201.305 202.904 204.907 206.443 207.373 210.868C210.916 217.228 211.747 224.471 215.498 230.578C216.183 231.693 218.012 232.671 219.231 233.035C222.389 233.906 225.586 233.919 228.78 234.201C233.391 234.605 239.658 235.41 243.576 237.87C244.822 238.652 245.932 240.027 246.799 241.132C247.374 244.949 247.423 246.854 245.029 250.241C243.299 252.69 241.088 254.63 239.006 256.743C237.689 257.694 237.095 258.077 236.019 259.293C227.077 266.564 228.271 267.878 231.412 278.799C232.354 282.072 232.484 285.077 233.206 288.14L233.423 290.084C233.189 291.425 232.913 293.98 232.359 295.057C229.138 300.703 223.92 299.747 218.771 297.732C216.213 296.911 209.995 292.764 207.598 291.181C205.657 289.9 204.493 288.739 202.155 287.91C201.988 287.78 201.548 287.565 201.349 287.499C197.163 286.083 193.712 289.439 190.662 291.591C185.917 294.937 176.775 302.057 170.69 299.455C161.493 295.525 167.788 280.064 168.987 272.905C169.25 271.343 169.772 269.653 169.548 268.094C169.363 266.806 168.829 265.595 168.005 264.591C166.782 263.073 165.083 262.029 163.533 260.768C159.193 257.238 152.907 253.14 150.416 248C149.553 246.218 149.465 243.782 150.276 241.987C153.724 235.005 165.17 234.639 171.77 233.781C177.992 232.972 183.057 233.461 185.05 226.223C185.381 225.022 186.027 223.499 186.444 222.288C187.61 218.897 188.822 215.534 190.293 212.264Z" fill="#4DC5A0"/>
<path d="M176.637 282.401C184.061 281.975 181.814 291.76 176.272 293.292C175.29 293.322 174.374 293.398 173.497 292.961C169.907 291.173 171.423 286.191 173.825 284.037C174.925 283.051 175.338 282.846 176.637 282.401Z" fill="#26A079"/>
<path d="M220.586 282.407C221.651 282.313 222.12 282.271 223.121 282.7C225.031 283.537 226.54 285.094 227.322 287.036C228.365 289.683 228.044 292.095 225.19 293.119C224.655 293.179 224.116 293.197 223.578 293.172C219.449 292.998 217.877 288.233 218.079 284.692C218.872 283.507 219.403 283.117 220.586 282.407Z" fill="#26A079"/>
<path d="M198.075 211.424C198.882 211.361 199.703 211.392 200.515 211.403C203.787 213.404 203.852 218.58 200.214 220.252C194.687 221.513 194.299 212.686 198.075 211.424Z" fill="#26A079"/>
<path d="M157.734 241.965C159.166 241.891 160.225 241.769 161.536 242.5C163.794 243.758 163.97 245.837 162.792 247.926C162.306 248.26 161.689 248.604 161.176 248.908C156.172 249.808 153.28 244.215 157.734 241.965Z" fill="#26A079"/>
<path d="M237.265 241.788C238.431 241.714 239.313 241.816 240.428 242.144C242.797 244.951 242.474 247.714 238.743 248.916C233.431 249.127 232.353 243.924 237.265 241.788Z" fill="#26A079"/>
<path d="M194.129 263.201C196.889 263.114 195.384 265.867 197.554 267.137C198.361 267.565 199.906 267.503 200.717 267.212C202.811 266.463 201.688 263.705 204.048 263.031C205.437 263.343 205.254 264.961 204.998 266.018C204.83 266.483 204.608 267.025 204.329 267.428C203.359 268.852 201.835 269.793 200.136 270.022C198.442 270.271 196.723 269.79 195.4 268.698C193.823 267.404 192.531 264.974 194.129 263.201Z" fill="black"/>
<path d="M197.849 222.28C199.435 222.176 201.32 222.287 202.151 223.818C203.457 226.223 202.561 228.186 200.434 229.387C199.645 229.452 198.845 229.403 198.052 229.379C195.705 228.029 195.716 227.023 195.788 224.523C196.439 223.384 196.759 222.992 197.849 222.28Z" fill="#26A079"/>
<path d="M215.029 275.583C218.725 275.189 219.338 277.389 219.163 280.522C218.369 281.379 217.999 281.738 216.95 282.24C215.414 282.303 213.985 281.995 213.138 280.556C212.672 279.763 212.564 278.808 212.841 277.93C213.236 276.646 213.918 276.155 215.029 275.583Z" fill="#26A079"/>
<path d="M182.213 275.57C186.186 275.289 186.525 277.259 186.255 280.623C185.473 281.345 184.949 281.663 184.06 282.243C179.363 282.352 178.36 277.735 182.213 275.57Z" fill="#26A079"/>
<path d="M167.269 245.694C171.418 245.653 172.184 249.969 168.579 251.855C167.915 251.941 167.192 251.946 166.572 251.663C165.796 251.304 165.206 250.632 164.947 249.813C164.644 248.894 164.748 247.886 165.234 247.049C165.765 246.134 166.313 245.929 167.269 245.694Z" fill="#26A079"/>
<path d="M229.474 245.697C229.609 245.689 229.744 245.684 229.879 245.68C232.948 245.611 233.121 247.606 233.042 250.065C232.311 251.091 231.996 251.372 230.854 251.879C230.284 251.884 229.862 251.876 229.303 251.728C228.496 251.515 227.818 250.965 227.441 250.216C226.43 248.243 227.688 246.537 229.474 245.697Z" fill="#26A079"/>
<path d="M232.36 295.057C239.795 300.214 237.858 309.422 233.388 315.843C229.555 321.349 221.384 326.107 215.127 321.786C208.679 317.331 211.403 307.278 215.186 302.014C216.293 300.474 217.663 299.183 218.771 297.732C223.92 299.747 229.138 300.703 232.36 295.057Z" fill="#E60C7F"/>
<path d="M233.206 288.141C233.139 286.599 233.126 285.667 233.721 284.188C235.027 280.943 237.816 279.014 241.309 279.021C245.713 279.029 248.959 282.64 248.7 287.026C248.464 291.955 244.658 295.15 239.822 294.645C237.149 294.365 235.772 293.13 234.184 291.115C233.917 290.782 233.663 290.437 233.423 290.084L233.206 288.141Z" fill="#E60C7F"/>
<path d="M239.006 256.743C238.905 259.035 237.855 258.96 236.019 259.293C237.095 258.077 237.688 257.694 239.006 256.743Z" fill="#E60C7F"/>
<path d="M367.504 293.187C375.538 291.987 382.576 301.53 383.542 308.676C384.392 314.972 382.064 321.305 374.995 322.079C370.725 322.122 369.298 321.51 365.766 319.135C357.313 313.456 354.027 294.672 367.504 293.187Z" fill="#E60C7F"/>
<path d="M295.552 58.8081C309.272 57.5971 311.855 78.7999 303.949 86.5294C302.203 88.2382 301.103 88.659 298.771 89.1779C292.592 90.2186 288.412 85.8236 286.683 80.3293C285.04 75.2647 285.512 69.7456 287.992 65.0377C289.793 61.6319 291.919 59.9075 295.552 58.8081Z" fill="#E60C7F"/>
<path d="M423.468 142.215C440.378 141.581 433.857 166.632 417.38 169.295C413.532 169.371 409.413 168.462 407.794 164.39C404.11 155.118 414.414 142.888 423.468 142.215Z" fill="#E60C7F"/>
<path d="M167.822 149.835C185.196 148.781 194.181 171.082 177.692 173.643C160.537 174.248 151.128 152.393 167.822 149.835Z" fill="#E60C7F"/>
<path d="M295.76 93.8584C301.383 92.9472 306.668 96.8209 307.529 102.486C308.392 108.152 304.499 113.438 298.861 114.26C293.287 115.073 288.103 111.21 287.251 105.608C286.399 100.005 290.197 94.7597 295.76 93.8584Z" fill="#E60C7F"/>
<path d="M295.712 119.113C300.496 118.187 305.127 121.32 306.077 126.128C307.028 130.935 303.945 135.613 299.172 136.601C294.356 137.598 289.654 134.46 288.695 129.609C287.735 124.757 290.883 120.047 295.712 119.113Z" fill="#E60C7F"/>
<path d="M283.789 219.371C284.785 219.277 285.661 219.157 286.491 219.817C287.684 220.763 287.75 222.414 288.097 223.784C288.911 227 291.126 229.142 294.364 229.676C298.404 230.343 302.583 229.041 304.3 224.998C305.106 223.35 304.688 220.777 306.41 219.68C307.76 218.819 309.687 219.243 310.416 220.722C311.277 222.467 310.664 224.749 310.135 226.499C307.642 233.255 300.713 236.973 293.776 235.784C290.399 235.246 286.323 232.967 284.429 230.003C282.545 227.057 280.036 221.83 283.789 219.371Z" fill="black"/>
<path d="M397.13 164.423C401.52 163.9 405.504 167.053 406.03 171.47C406.557 175.886 403.428 179.898 399.039 180.435C394.641 180.973 390.643 177.817 390.115 173.391C389.586 168.964 392.73 164.947 397.13 164.423Z" fill="#E60C7F"/>
<path d="M342.352 263.092C346.687 262.855 350.388 266.206 350.607 270.568C350.827 274.932 347.48 278.642 343.145 278.845C338.832 279.048 335.167 275.704 334.949 271.366C334.731 267.027 338.04 263.328 342.352 263.092Z" fill="#E60C7F"/>
<path d="M353.593 279.167C357.799 278.219 361.974 280.87 362.937 285.097C363.9 289.322 361.288 293.538 357.091 294.529C352.866 295.525 348.638 292.875 347.669 288.617C346.698 284.361 349.356 280.121 353.593 279.167Z" fill="#E60C7F"/>
<path d="M250.949 263.366C255.124 262.293 259.372 264.833 260.43 269.036C261.487 273.24 258.952 277.508 254.772 278.562C250.606 279.614 246.38 277.072 245.326 272.883C244.271 268.693 246.787 264.437 250.949 263.366Z" fill="#E60C7F"/>
<path d="M376.359 174.811C380.496 173.921 384.566 176.569 385.458 180.728C386.351 184.888 383.728 188.989 379.596 189.895C375.451 190.805 371.36 188.157 370.465 183.985C369.57 179.813 372.211 175.702 376.359 174.811Z" fill="#E60C7F"/>
<path d="M194.686 166.203C198.847 165.848 202.517 168.925 202.92 173.107C203.323 177.288 200.308 181.017 196.158 181.473C193.428 181.772 190.749 180.572 189.144 178.33C187.54 176.089 187.257 173.152 188.404 170.642C189.551 168.132 191.95 166.437 194.686 166.203Z" fill="#E60C7F"/>
<path d="M212.79 174.666C216.92 174.459 220.428 177.674 220.606 181.83C220.785 185.986 217.567 189.493 213.435 189.646C209.341 189.797 205.894 186.595 205.717 182.478C205.54 178.36 208.699 174.871 212.79 174.666Z" fill="#E60C7F"/>
<path d="M330.498 168.725C344.115 167.823 355.866 178.234 356.703 191.942C357.54 205.649 347.144 217.43 333.519 218.211C319.98 218.989 308.363 208.605 307.531 194.982C306.699 181.359 316.966 169.622 330.498 168.725Z" fill="#FEFEFE"/>
<path d="M332.428 174.041C343.091 174.187 351.618 183.003 351.475 193.734C351.333 204.464 342.576 213.048 331.914 212.908C321.247 212.769 312.713 203.951 312.855 193.216C312.997 182.48 321.761 173.895 332.428 174.041Z" fill="black"/>
<path d="M323.849 180.684C327.12 180.264 330.117 182.571 330.569 185.858C331.022 189.145 328.762 192.186 325.501 192.677C323.36 192.999 321.212 192.139 319.877 190.425C318.541 188.71 318.223 186.406 319.045 184.39C319.867 182.375 321.702 180.959 323.849 180.684Z" fill="#FEFEFE"/>
<path d="M259.573 168.725C273.19 167.823 284.942 178.234 285.778 191.942C286.615 205.649 276.219 217.43 262.595 218.211C249.055 218.989 237.438 208.605 236.606 194.982C235.775 181.359 246.041 169.622 259.573 168.725Z" fill="#FEFEFE"/>
<path d="M261.504 174.041C272.167 174.187 280.693 183.003 280.551 193.734C280.409 204.464 271.652 213.048 260.99 212.908C250.322 212.769 241.788 203.951 241.93 193.216C242.073 182.48 250.837 173.895 261.504 174.041Z" fill="black"/>
<path d="M252.925 180.684C256.195 180.264 259.192 182.571 259.645 185.858C260.098 189.145 257.837 192.186 254.577 192.677C252.436 192.999 250.288 192.139 248.952 190.425C247.617 188.71 247.299 186.406 248.121 184.39C248.943 182.375 250.777 180.959 252.925 180.684Z" fill="#FEFEFE"/>
<path d="M184.81 240.721C190.837 240.322 196.038 244.929 196.408 250.996C196.778 257.063 192.177 262.276 186.147 262.622C180.155 262.966 175.014 258.371 174.646 252.342C174.278 246.313 178.821 241.118 184.81 240.721Z" fill="#FEFEFE"/>
<path d="M185.664 243.074C190.383 243.138 194.157 247.04 194.094 251.789C194.031 256.538 190.156 260.337 185.437 260.275C180.716 260.213 176.939 256.311 177.002 251.56C177.065 246.809 180.943 243.009 185.664 243.074Z" fill="black"/>
<path d="M181.868 246.014C183.315 245.828 184.642 246.849 184.842 248.303C185.042 249.758 184.042 251.104 182.599 251.321C181.651 251.464 180.701 251.083 180.11 250.325C179.519 249.566 179.378 248.546 179.742 247.654C180.106 246.762 180.918 246.136 181.868 246.014Z" fill="#FEFEFE"/>
<path d="M212.115 240.721C218.141 240.322 223.342 244.929 223.712 250.996C224.082 257.063 219.481 262.276 213.452 262.622C207.459 262.966 202.318 258.371 201.95 252.342C201.582 246.313 206.126 241.118 212.115 240.721Z" fill="#FEFEFE"/>
<path d="M212.969 243.074C217.688 243.138 221.462 247.04 221.399 251.789C221.336 256.538 217.46 260.337 212.741 260.275C208.02 260.213 204.244 256.311 204.306 251.56C204.369 246.809 208.248 243.009 212.969 243.074Z" fill="black"/>
<path d="M209.172 246.014C210.619 245.828 211.946 246.849 212.146 248.303C212.347 249.758 211.346 251.104 209.903 251.321C208.956 251.464 208.005 251.083 207.414 250.325C206.823 249.566 206.682 248.546 207.046 247.654C207.41 246.762 208.222 246.136 209.172 246.014Z" fill="#FEFEFE"/>
<path d="M81.569 492.909C79.7151 492.909 78.2087 492.484 77.05 491.635C75.9685 490.785 75.3119 489.665 75.0802 488.274C74.8485 486.807 75.1188 485.184 75.8913 483.407L106.481 415.617C107.485 413.377 108.683 411.793 110.073 410.866C111.541 409.862 113.202 409.36 115.056 409.36C116.832 409.36 118.416 409.862 119.806 410.866C121.274 411.793 122.51 413.377 123.514 415.617L154.22 483.407C155.069 485.184 155.378 486.807 155.147 488.274C154.915 489.742 154.259 490.901 153.177 491.751C152.095 492.523 150.667 492.909 148.89 492.909C146.727 492.909 145.028 492.407 143.792 491.403C142.633 490.321 141.59 488.699 140.663 486.536L133.132 469.038L139.389 473.094H90.491L96.7482 469.038L89.3323 486.536C88.3281 488.777 87.2852 490.399 86.2038 491.403C85.1224 492.407 83.5774 492.909 81.569 492.909ZM114.824 426.394L98.602 464.983L95.5891 461.274H134.29L131.393 464.983L115.056 426.394H114.824ZM204.464 492.909C202.147 492.909 200.37 492.292 199.134 491.055C197.898 489.742 197.28 487.888 197.28 485.493V441.69C197.28 439.296 197.898 437.48 199.134 436.244C200.37 435.008 202.108 434.39 204.349 434.39C206.589 434.39 208.327 435.008 209.563 436.244C210.798 437.48 211.417 439.296 211.417 441.69V450.15L210.142 446.673C211.687 442.811 214.082 439.759 217.326 437.519C220.571 435.278 224.433 434.158 228.913 434.158C233.471 434.158 237.217 435.24 240.152 437.403C243.088 439.566 245.135 442.888 246.294 447.369H244.672C246.217 443.274 248.766 440.068 252.319 437.75C255.873 435.356 259.966 434.158 264.601 434.158C268.927 434.158 272.48 435.008 275.262 436.708C278.12 438.407 280.244 440.995 281.634 444.472C283.025 447.871 283.72 452.197 283.72 457.45V485.493C283.72 487.888 283.063 489.742 281.75 491.055C280.514 492.292 278.737 492.909 276.42 492.909C274.103 492.909 272.326 492.292 271.09 491.055C269.854 489.742 269.236 487.888 269.236 485.493V458.029C269.236 453.703 268.502 450.536 267.035 448.527C265.644 446.519 263.249 445.514 259.851 445.514C256.066 445.514 253.092 446.866 250.929 449.57C248.766 452.197 247.684 455.866 247.684 460.579V485.493C247.684 487.888 247.066 489.742 245.83 491.055C244.595 492.292 242.818 492.909 240.5 492.909C238.183 492.909 236.368 492.292 235.055 491.055C233.818 489.742 233.2 487.888 233.2 485.493V458.029C233.2 453.703 232.467 450.536 230.999 448.527C229.608 446.519 227.252 445.514 223.931 445.514C220.146 445.514 217.172 446.866 215.009 449.57C212.846 452.197 211.764 455.866 211.764 460.579V485.493C211.764 490.437 209.331 492.909 204.464 492.909ZM326.587 493.141C320.175 493.141 314.652 491.944 310.017 489.549C305.383 487.154 301.791 483.755 299.241 479.351C296.77 474.948 295.534 469.733 295.534 463.708C295.534 457.836 296.731 452.699 299.126 448.296C301.597 443.892 304.958 440.454 309.206 437.982C313.532 435.433 318.437 434.158 323.922 434.158C327.938 434.158 331.531 434.815 334.698 436.128C337.942 437.441 340.685 439.334 342.925 441.806C345.242 444.278 346.98 447.291 348.139 450.845C349.375 454.321 349.993 458.261 349.993 462.665C349.993 464.055 349.491 465.137 348.486 465.909C347.56 466.605 346.208 466.952 344.431 466.952H307.236V458.609H339.796L337.942 460.347C337.942 456.793 337.402 453.819 336.32 451.424C335.316 449.029 333.809 447.214 331.801 445.978C329.87 444.665 327.437 444.008 324.501 444.008C321.257 444.008 318.476 444.781 316.158 446.326C313.918 447.793 312.18 449.918 310.944 452.699C309.785 455.403 309.206 458.647 309.206 462.433V463.244C309.206 469.579 310.674 474.33 313.609 477.497C316.622 480.587 321.025 482.132 326.819 482.132C328.827 482.132 331.067 481.901 333.539 481.437C336.088 480.896 338.483 480.008 340.723 478.772C342.345 477.845 343.774 477.459 345.01 477.613C346.246 477.69 347.212 478.115 347.907 478.888C348.679 479.66 349.143 480.626 349.298 481.785C349.452 482.866 349.22 483.987 348.602 485.145C348.061 486.304 347.096 487.308 345.705 488.158C343.002 489.858 339.873 491.132 336.32 491.983C332.844 492.755 329.599 493.141 326.587 493.141ZM387.192 493.141C382.171 493.141 377.961 492.292 374.562 490.592C371.24 488.892 368.768 486.42 367.146 483.175C365.524 479.854 364.713 475.759 364.713 470.892V446.21H358.688C356.833 446.21 355.405 445.746 354.401 444.819C353.396 443.815 352.894 442.463 352.894 440.763C352.894 438.987 353.396 437.635 354.401 436.708C355.405 435.781 356.833 435.317 358.688 435.317H364.713V424.772C364.713 422.377 365.331 420.562 366.567 419.326C367.88 418.09 369.695 417.472 372.013 417.472C374.33 417.472 376.107 418.09 377.343 419.326C378.579 420.562 379.197 422.377 379.197 424.772V435.317H391.479C393.333 435.317 394.762 435.781 395.766 436.708C396.77 437.635 397.273 438.987 397.273 440.763C397.273 442.463 396.77 443.815 395.766 444.819C394.762 445.746 393.333 446.21 391.479 446.21H379.197V470.081C379.197 473.789 380.008 476.57 381.63 478.424C383.252 480.278 385.878 481.205 389.509 481.205C390.822 481.205 391.981 481.09 392.986 480.858C393.99 480.626 394.878 480.472 395.65 480.395C396.577 480.317 397.35 480.626 397.968 481.321C398.586 481.939 398.895 483.253 398.895 485.261C398.895 486.806 398.624 488.197 398.083 489.433C397.62 490.592 396.732 491.403 395.418 491.866C394.414 492.175 393.101 492.446 391.479 492.678C389.857 492.987 388.428 493.141 387.192 493.141ZM424.362 493.141C420.268 493.141 416.599 492.369 413.354 490.823C410.187 489.201 407.677 487.038 405.822 484.334C404.046 481.63 403.157 478.579 403.157 475.18C403.157 471.008 404.239 467.725 406.402 465.33C408.565 462.858 412.079 461.081 416.946 459.999C421.813 458.918 428.34 458.377 436.528 458.377H442.322V466.72H436.644C431.855 466.72 428.031 466.952 425.173 467.416C422.315 467.88 420.268 468.69 419.032 469.849C417.873 470.931 417.294 472.476 417.294 474.484C417.294 477.034 418.182 479.12 419.959 480.742C421.735 482.364 424.207 483.175 427.374 483.175C429.923 483.175 432.164 482.596 434.095 481.437C436.103 480.201 437.687 478.54 438.846 476.454C440.005 474.369 440.584 471.974 440.584 469.27V455.944C440.584 452.081 439.734 449.3 438.035 447.601C436.335 445.901 433.477 445.051 429.46 445.051C427.22 445.051 424.787 445.321 422.16 445.862C419.611 446.403 416.908 447.33 414.049 448.643C412.582 449.338 411.269 449.532 410.11 449.223C409.028 448.914 408.178 448.296 407.561 447.369C406.943 446.364 406.634 445.283 406.634 444.124C406.634 442.965 406.943 441.845 407.561 440.763C408.178 439.605 409.221 438.755 410.689 438.214C414.243 436.746 417.641 435.703 420.886 435.086C424.207 434.467 427.22 434.158 429.923 434.158C435.485 434.158 440.043 435.008 443.597 436.708C447.227 438.407 449.931 440.995 451.707 444.472C453.484 447.871 454.372 452.274 454.372 457.682V485.493C454.372 487.888 453.793 489.742 452.634 491.055C451.476 492.292 449.815 492.909 447.652 492.909C445.489 492.909 443.789 492.292 442.554 491.055C441.395 489.742 440.815 487.888 440.815 485.493V479.931H441.742C441.202 482.635 440.12 484.991 438.498 486.999C436.953 488.931 434.983 490.437 432.589 491.519C430.194 492.6 427.452 493.141 424.362 493.141ZM474.403 466.72C472.704 466.72 471.275 466.18 470.116 465.098C469.035 463.939 468.494 462.549 468.494 460.926C468.494 459.227 469.035 457.836 470.116 456.755C471.275 455.673 472.704 455.132 474.403 455.132H499.085C500.706 455.132 502.058 455.673 503.139 456.755C504.3 457.836 504.88 459.227 504.88 460.926C504.88 462.549 504.3 463.939 503.139 465.098C502.058 466.18 500.706 466.72 499.085 466.72H474.403ZM526.499 492.909C524.182 492.909 522.405 492.292 521.168 491.055C519.931 489.742 519.315 487.888 519.315 485.493V416.66C519.315 414.266 519.931 412.45 521.168 411.214C522.405 409.978 524.182 409.36 526.499 409.36C528.816 409.36 530.593 409.978 531.83 411.214C533.143 412.45 533.799 414.266 533.799 416.66V446.673H532.178C533.875 442.579 536.5 439.489 540.054 437.403C543.688 435.24 547.778 434.158 552.337 434.158C556.895 434.158 560.641 435.008 563.579 436.708C566.513 438.407 568.714 440.995 570.183 444.472C571.652 447.871 572.384 452.197 572.384 457.45V485.493C572.384 487.888 571.768 489.742 570.531 491.055C569.294 492.292 567.517 492.909 565.2 492.909C562.883 492.909 561.066 492.292 559.753 491.055C558.516 489.742 557.9 487.888 557.9 485.493V458.145C557.9 453.742 557.052 450.536 555.351 448.527C553.73 446.519 551.18 445.514 547.702 445.514C543.456 445.514 540.054 446.866 537.505 449.57C535.036 452.197 533.799 455.712 533.799 460.115V485.493C533.799 490.437 531.366 492.909 526.499 492.909ZM605.749 493.141C601.655 493.141 597.985 492.369 594.744 490.823C591.574 489.201 589.064 487.038 587.212 484.334C585.435 481.63 584.546 478.579 584.546 475.18C584.546 471.008 585.627 467.725 587.792 465.33C589.953 462.858 593.467 461.081 598.333 459.999C603.2 458.918 609.728 458.377 617.916 458.377H623.711V466.72H618.032C613.241 466.72 609.42 466.952 606.562 467.416C603.705 467.88 601.655 468.69 600.418 469.849C599.262 470.931 598.682 472.476 598.682 474.484C598.682 477.034 599.57 479.12 601.347 480.742C603.124 482.364 605.593 483.175 608.763 483.175C611.313 483.175 613.554 482.596 615.483 481.437C617.492 480.201 619.077 478.54 620.233 476.454C621.394 474.369 621.97 471.974 621.97 469.27V455.944C621.97 452.081 621.122 449.3 619.421 447.601C617.724 445.901 614.867 445.051 610.848 445.051C608.607 445.051 606.174 445.321 603.548 445.862C600.999 446.403 598.298 447.33 595.436 448.643C593.971 449.338 592.659 449.532 591.498 449.223C590.417 448.914 589.564 448.296 588.948 447.369C588.332 446.364 588.02 445.283 588.02 444.124C588.02 442.965 588.332 441.845 588.948 440.763C589.564 439.605 590.609 438.755 592.078 438.214C595.632 436.746 599.03 435.703 602.276 435.086C605.593 434.467 608.607 434.158 611.313 434.158C616.871 434.158 621.43 435.008 624.984 436.708C628.614 438.407 631.319 440.995 633.096 444.472C634.873 447.871 635.762 452.274 635.762 457.682V485.493C635.762 487.888 635.182 489.742 634.021 491.055C632.864 492.292 631.203 492.909 629.038 492.909C626.877 492.909 625.176 492.292 623.944 491.055C622.783 489.742 622.202 487.888 622.202 485.493V479.931H623.131C622.591 482.635 621.51 484.991 619.885 486.999C618.34 488.931 616.371 490.437 613.978 491.519C611.581 492.6 608.839 493.141 605.749 493.141ZM657.876 492.909C655.483 492.909 653.63 492.292 652.318 491.055C651.081 489.742 650.46 487.888 650.46 485.493V441.69C650.46 439.296 651.081 437.48 652.318 436.244C653.55 435.008 655.291 434.39 657.528 434.39C659.769 434.39 661.506 435.008 662.743 436.244C663.98 437.48 664.596 439.296 664.596 441.69V448.991H663.439C664.52 444.356 666.645 440.841 669.811 438.446C672.981 436.051 677.191 434.622 682.442 434.158C684.062 434.004 685.339 434.429 686.264 435.433C687.268 436.36 687.849 437.828 688.005 439.836C688.157 441.768 687.697 443.351 686.612 444.587C685.607 445.746 684.062 446.441 681.977 446.673L679.428 446.905C674.718 447.369 671.164 448.836 668.77 451.308C666.373 453.703 665.176 457.102 665.176 461.506V485.493C665.176 487.888 664.56 489.742 663.323 491.055C662.087 492.292 660.274 492.909 657.876 492.909ZM703.02 492.909C700.703 492.909 698.926 492.292 697.689 491.055C696.457 489.742 695.836 487.888 695.836 485.493V441.69C695.836 439.296 696.457 437.48 697.689 436.244C698.926 435.008 700.663 434.39 702.904 434.39C705.145 434.39 706.882 435.008 708.119 436.244C709.356 437.48 709.972 439.296 709.972 441.69V449.57L708.699 446.673C710.396 442.579 713.026 439.489 716.58 437.403C720.21 435.24 724.304 434.158 728.858 434.158C733.417 434.158 737.163 435.008 740.1 436.708C743.034 438.407 745.235 440.995 746.704 444.472C748.173 447.871 748.905 452.197 748.905 457.45V485.493C748.905 487.888 748.289 489.742 747.052 491.055C745.815 492.292 744.038 492.909 741.721 492.909C739.404 492.909 737.587 492.292 736.274 491.055C735.042 489.742 734.421 487.888 734.421 485.493V458.145C734.421 453.742 733.573 450.536 731.872 448.527C730.251 446.519 727.702 445.514 724.223 445.514C719.977 445.514 716.58 446.866 714.03 449.57C711.557 452.197 710.32 455.712 710.32 460.115V485.493C710.32 490.437 707.887 492.909 703.02 492.909ZM791.54 493.141C785.128 493.141 779.605 491.944 774.971 489.549C770.336 487.154 766.746 483.755 764.197 479.351C761.724 474.948 760.487 469.733 760.487 463.708C760.487 457.836 761.683 452.699 764.081 448.296C766.55 443.892 769.912 440.454 774.163 437.982C778.484 435.433 783.391 434.158 788.879 434.158C792.892 434.158 796.487 434.815 799.652 436.128C802.898 437.441 805.64 439.334 807.881 441.806C810.198 444.278 811.935 447.291 813.091 450.845C814.328 454.321 814.949 458.261 814.949 462.665C814.949 464.055 814.444 465.137 813.44 465.909C812.515 466.605 811.163 466.952 809.386 466.952H772.189V458.609H804.751L802.898 460.347C802.898 456.793 802.358 453.819 801.273 451.424C800.268 449.029 798.764 447.214 796.754 445.978C794.826 444.665 792.392 444.008 789.455 444.008C786.213 444.008 783.432 444.781 781.114 446.326C778.873 447.793 777.136 449.918 775.899 452.699C774.738 455.403 774.163 458.647 774.163 462.433V463.244C774.163 469.579 775.627 474.33 778.565 477.497C781.579 480.587 785.981 482.132 791.772 482.132C793.781 482.132 796.022 481.901 798.496 481.437C801.041 480.896 803.438 480.008 805.68 478.772C807.3 477.845 808.729 477.459 809.966 477.613C811.203 477.69 812.167 478.115 812.864 478.888C813.636 479.66 814.096 480.626 814.252 481.785C814.408 482.866 814.176 483.987 813.556 485.145C813.015 486.304 812.051 487.308 810.658 488.158C807.957 489.858 804.827 491.132 801.273 491.983C797.799 492.755 794.553 493.141 791.54 493.141ZM847.158 493.141C843.836 493.141 840.322 492.793 836.616 492.098C832.906 491.403 829.584 490.205 826.651 488.506C825.414 487.733 824.526 486.845 823.985 485.841C823.521 484.759 823.329 483.716 823.405 482.712C823.561 481.63 823.945 480.703 824.566 479.931C825.258 479.158 826.111 478.656 827.111 478.424C828.196 478.193 829.352 478.386 830.589 479.004C833.679 480.472 836.576 481.514 839.277 482.132C841.983 482.673 844.649 482.944 847.274 482.944C850.984 482.944 853.726 482.326 855.503 481.09C857.356 479.777 858.284 478.077 858.284 475.991C858.284 474.214 857.664 472.862 856.427 471.935C855.27 470.931 853.493 470.197 851.1 469.733L839.51 467.532C834.723 466.605 831.053 464.866 828.504 462.317C826.03 459.69 824.794 456.33 824.794 452.235C824.794 448.527 825.798 445.321 827.807 442.617C829.892 439.914 832.75 437.828 836.384 436.36C840.014 434.892 844.184 434.158 848.895 434.158C852.297 434.158 855.462 434.544 858.396 435.317C861.41 436.012 864.307 437.132 867.089 438.678C868.245 439.296 869.018 440.107 869.406 441.111C869.87 442.115 869.987 443.158 869.754 444.24C869.522 445.244 869.058 446.171 868.361 447.021C867.669 447.793 866.781 448.296 865.696 448.527C864.696 448.682 863.535 448.45 862.222 447.832C859.829 446.596 857.512 445.708 855.27 445.167C853.105 444.626 851.02 444.356 849.011 444.356C845.229 444.356 842.407 445.012 840.554 446.326C838.777 447.639 837.889 449.377 837.889 451.54C837.889 453.163 838.429 454.514 839.51 455.596C840.595 456.678 842.255 457.411 844.492 457.798L856.079 459.999C861.102 460.926 864.888 462.626 867.437 465.098C870.062 467.57 871.375 470.892 871.375 475.064C871.375 480.703 869.174 485.145 864.772 488.39C860.369 491.557 854.498 493.141 847.158 493.141ZM903.736 493.141C900.414 493.141 896.9 492.793 893.19 492.098C889.484 491.403 886.163 490.205 883.225 488.506C881.992 487.733 881.104 486.845 880.564 485.841C880.099 484.759 879.907 483.716 879.983 482.712C880.135 481.63 880.524 480.703 881.14 479.931C881.836 479.158 882.684 478.656 883.689 478.424C884.774 478.193 885.93 478.386 887.167 479.004C890.257 480.472 893.155 481.514 895.856 482.132C898.561 482.673 901.227 482.944 903.852 482.944C907.558 482.944 910.304 482.326 912.081 481.09C913.934 479.777 914.858 478.077 914.858 475.991C914.858 474.214 914.242 472.862 913.005 471.935C911.849 470.931 910.072 470.197 907.674 469.733L896.088 467.532C891.297 466.605 887.631 464.866 885.082 462.317C882.609 459.69 881.372 456.33 881.372 452.235C881.372 448.527 882.376 445.321 884.386 442.617C886.471 439.914 889.328 437.828 892.958 436.36C896.592 434.892 900.763 434.158 905.473 434.158C908.875 434.158 912.041 434.544 914.974 435.317C917.988 436.012 920.885 437.132 923.667 438.678C924.823 439.296 925.596 440.107 925.984 441.111C926.449 442.115 926.565 443.158 926.333 444.24C926.1 445.244 925.636 446.171 924.94 447.021C924.243 447.793 923.359 448.296 922.274 448.527C921.269 448.682 920.113 448.45 918.8 447.832C916.403 446.596 914.086 445.708 911.849 445.167C909.683 444.626 907.598 444.356 905.589 444.356C901.803 444.356 898.986 445.012 897.133 446.326C895.356 447.639 894.467 449.377 894.467 451.54C894.467 453.163 895.007 454.514 896.088 455.596C897.168 456.678 898.829 457.411 901.071 457.798L912.657 459.999C917.68 460.926 921.466 462.626 924.015 465.098C926.641 467.57 927.953 470.892 927.953 475.064C927.953 480.703 925.752 485.145 921.35 488.39C916.948 491.557 911.076 493.141 903.736 493.141ZM982.152 492.909C979.834 492.909 978.022 492.292 976.709 491.055C975.472 489.742 974.852 487.888 974.852 485.493V446.21H969.525C967.668 446.21 966.239 445.746 965.235 444.819C964.23 443.815 963.73 442.463 963.73 440.763C963.73 438.987 964.23 437.635 965.235 436.708C966.239 435.781 967.668 435.317 969.525 435.317H979.026L974.852 439.141V435.201C974.852 427.244 976.861 421.296 980.879 417.356C984.898 413.338 990.688 410.982 998.261 410.287L1002.2 409.939C1003.74 409.785 1004.98 410.055 1005.91 410.75C1006.83 411.369 1007.45 412.218 1007.76 413.3C1008.07 414.304 1008.11 415.347 1007.88 416.429C1007.65 417.51 1007.14 418.476 1006.37 419.326C1005.68 420.098 1004.75 420.523 1003.59 420.6L1001.97 420.716C997.564 421.025 994.359 422.145 992.349 424.077C990.34 426.008 989.336 428.944 989.336 432.884V437.171L987.483 435.317H999.185C1001.04 435.317 1002.47 435.781 1003.48 436.708C1004.48 437.635 1004.98 438.987 1004.98 440.763C1004.98 442.463 1004.48 443.815 1003.48 444.819C1002.47 445.746 1001.04 446.21 999.185 446.21H989.336V485.493C989.336 490.437 986.942 492.909 982.152 492.909ZM1037.6 493.141C1031.73 493.141 1026.63 491.944 1022.31 489.549C1017.98 487.154 1014.62 483.755 1012.23 479.351C1009.83 474.871 1008.64 469.617 1008.64 463.592C1008.64 459.034 1009.29 454.978 1010.61 451.424C1012 447.793 1013.97 444.703 1016.52 442.154C1019.07 439.527 1022.12 437.557 1025.67 436.244C1029.22 434.853 1033.2 434.158 1037.6 434.158C1043.48 434.158 1048.57 435.356 1052.9 437.75C1057.23 440.145 1060.59 443.544 1062.98 447.948C1065.38 452.351 1066.57 457.566 1066.57 463.592C1066.57 468.15 1065.88 472.244 1064.49 475.875C1063.17 479.506 1061.24 482.635 1058.69 485.261C1056.14 487.811 1053.09 489.781 1049.54 491.171C1045.99 492.484 1042.01 493.141 1037.6 493.141ZM1037.6 482.132C1040.46 482.132 1042.97 481.437 1045.14 480.047C1047.3 478.656 1048.96 476.609 1050.12 473.905C1051.36 471.124 1051.97 467.686 1051.97 463.592C1051.97 457.411 1050.66 452.815 1048.03 449.802C1045.4 446.712 1041.93 445.167 1037.6 445.167C1034.75 445.167 1032.24 445.862 1030.07 447.253C1027.91 448.566 1026.21 450.613 1024.97 453.395C1023.82 456.098 1023.24 459.498 1023.24 463.592C1023.24 469.695 1024.55 474.33 1027.17 477.497C1029.8 480.587 1033.28 482.132 1037.6 482.132ZM1085.94 492.909C1083.55 492.909 1081.69 492.292 1080.38 491.055C1079.15 489.742 1078.53 487.888 1078.53 485.493V441.69C1078.53 439.296 1079.15 437.48 1080.38 436.244C1081.62 435.008 1083.36 434.39 1085.6 434.39C1087.83 434.39 1089.58 435.008 1090.81 436.244C1092.04 437.48 1092.66 439.296 1092.66 441.69V448.991H1091.5C1092.58 444.356 1094.71 440.841 1097.88 438.446C1101.05 436.051 1105.26 434.622 1110.51 434.158C1112.13 434.004 1113.4 434.429 1114.33 435.433C1115.34 436.36 1115.91 437.828 1116.07 439.836C1116.23 441.768 1115.76 443.351 1114.68 444.587C1113.68 445.746 1112.13 446.441 1110.04 446.673L1107.49 446.905C1102.78 447.369 1099.23 448.836 1096.84 451.308C1094.44 453.703 1093.24 457.102 1093.24 461.506V485.493C1093.24 487.888 1092.62 489.742 1091.39 491.055C1090.15 492.292 1088.34 492.909 1085.94 492.909ZM1157.56 492.909C1155.71 492.909 1154.2 492.484 1153.04 491.635C1151.96 490.785 1151.31 489.665 1151.07 488.274C1150.84 486.807 1151.11 485.184 1151.88 483.407L1182.47 415.617C1183.48 413.377 1184.68 411.793 1186.06 410.866C1187.53 409.862 1189.19 409.36 1191.05 409.36C1192.82 409.36 1194.41 409.862 1195.8 410.866C1197.27 411.793 1198.5 413.377 1199.51 415.617L1230.21 483.407C1231.06 485.184 1231.37 486.807 1231.14 488.274C1230.91 489.742 1230.25 490.901 1229.17 491.751C1228.09 492.523 1226.66 492.909 1224.88 492.909C1222.72 492.909 1221.02 492.407 1219.78 491.403C1218.63 490.321 1217.58 488.699 1216.65 486.536L1209.13 469.038L1215.38 473.094H1166.48L1172.74 469.038L1165.33 486.536C1164.32 488.777 1163.28 490.399 1162.2 491.403C1161.12 492.407 1159.57 492.909 1157.56 492.909ZM1190.82 426.394L1174.59 464.983L1171.58 461.274H1210.28L1207.38 464.983L1191.05 426.394H1190.82ZM1250.39 492.909C1248 492.909 1246.14 492.253 1244.83 490.939C1243.59 489.549 1242.97 487.656 1242.97 485.261V417.008C1242.97 414.536 1243.59 412.643 1244.83 411.33C1246.14 410.017 1248 409.36 1250.39 409.36C1252.78 409.36 1254.6 410.017 1255.84 411.33C1257.15 412.643 1257.81 414.536 1257.81 417.008V485.261C1257.81 487.656 1257.19 489.549 1255.95 490.939C1254.72 492.253 1252.86 492.909 1250.39 492.909ZM1324.4 493.141C1320.3 493.141 1316.63 492.369 1313.39 490.823C1310.22 489.201 1307.71 487.038 1305.86 484.334C1304.08 481.63 1303.19 478.579 1303.19 475.18C1303.19 471.008 1304.28 467.725 1306.44 465.33C1308.6 462.858 1312.12 461.081 1316.98 459.999C1321.85 458.918 1328.38 458.377 1336.56 458.377H1342.36V466.72H1336.68C1331.89 466.72 1328.07 466.952 1325.21 467.416C1322.35 467.88 1320.3 468.69 1319.07 469.849C1317.91 470.931 1317.33 472.476 1317.33 474.484C1317.33 477.034 1318.22 479.12 1320 480.742C1321.77 482.364 1324.24 483.175 1327.41 483.175C1329.96 483.175 1332.2 482.596 1334.13 481.437C1336.14 480.201 1337.72 478.54 1338.88 476.454C1340.04 474.369 1340.62 471.974 1340.62 469.27V455.944C1340.62 452.081 1339.77 449.3 1338.07 447.601C1336.37 445.901 1333.51 445.051 1329.5 445.051C1327.26 445.051 1324.82 445.321 1322.2 445.862C1319.65 446.403 1316.94 447.33 1314.08 448.643C1312.62 449.338 1311.3 449.532 1310.15 449.223C1309.07 448.914 1308.21 448.296 1307.6 447.369C1306.98 446.364 1306.67 445.283 1306.67 444.124C1306.67 442.965 1306.98 441.845 1307.6 440.763C1308.21 439.605 1309.26 438.755 1310.73 438.214C1314.28 436.746 1317.68 435.703 1320.92 435.086C1324.24 434.467 1327.26 434.158 1329.96 434.158C1335.52 434.158 1340.08 435.008 1343.63 436.708C1347.26 438.407 1349.97 440.995 1351.75 444.472C1353.52 447.871 1354.41 452.274 1354.41 457.682V485.493C1354.41 487.888 1353.83 489.742 1352.67 491.055C1351.51 492.292 1349.85 492.909 1347.69 492.909C1345.53 492.909 1343.82 492.292 1342.59 491.055C1341.43 489.742 1340.85 487.888 1340.85 485.493V479.931H1341.78C1341.24 482.635 1340.15 484.991 1338.53 486.999C1336.99 488.931 1335.02 490.437 1332.63 491.519C1330.23 492.6 1327.49 493.141 1324.4 493.141ZM1395.53 514C1391.36 514 1387.3 513.613 1383.36 512.841C1379.5 512.068 1375.98 510.871 1372.82 509.248C1371.35 508.476 1370.35 507.549 1369.81 506.467C1369.34 505.386 1369.18 504.266 1369.34 503.107C1369.57 502.025 1370.04 501.06 1370.73 500.21C1371.5 499.36 1372.43 498.781 1373.51 498.472C1374.59 498.163 1375.71 498.317 1376.87 498.935C1380.27 500.635 1383.48 501.716 1386.49 502.18C1389.58 502.72 1392.21 502.991 1394.37 502.991C1399.55 502.991 1403.41 501.716 1405.96 499.167C1408.58 496.695 1409.9 492.987 1409.9 488.042V477.613H1410.94C1409.78 481.553 1407.35 484.72 1403.64 487.115C1400.01 489.433 1395.88 490.592 1391.24 490.592C1386.14 490.592 1381.7 489.433 1377.91 487.115C1374.13 484.72 1371.19 481.399 1369.11 477.15C1367.02 472.901 1365.98 467.957 1365.98 462.317C1365.98 458.068 1366.56 454.244 1367.72 450.845C1368.96 447.369 1370.65 444.394 1372.82 441.922C1375.06 439.45 1377.72 437.557 1380.81 436.244C1383.98 434.853 1387.45 434.158 1391.24 434.158C1396.03 434.158 1400.2 435.356 1403.76 437.75C1407.39 440.068 1409.74 443.158 1410.82 447.021L1409.66 449.918V441.69C1409.66 439.296 1410.28 437.48 1411.52 436.244C1412.83 435.008 1414.61 434.39 1416.85 434.39C1419.16 434.39 1420.94 435.008 1422.18 436.244C1423.41 437.48 1424.03 439.296 1424.03 441.69V486.304C1424.03 495.498 1421.6 502.411 1416.73 507.047C1411.86 511.682 1404.8 514 1395.53 514ZM1395.18 479.583C1398.19 479.583 1400.78 478.888 1402.94 477.497C1405.11 476.107 1406.77 474.137 1407.93 471.587C1409.16 468.961 1409.78 465.871 1409.78 462.317C1409.78 456.987 1408.47 452.815 1405.84 449.802C1403.22 446.712 1399.66 445.167 1395.18 445.167C1392.17 445.167 1389.58 445.862 1387.42 447.253C1385.25 448.643 1383.55 450.613 1382.32 453.163C1381.16 455.712 1380.58 458.763 1380.58 462.317C1380.58 467.647 1381.89 471.858 1384.52 474.948C1387.15 478.038 1390.7 479.583 1395.18 479.583ZM1466.96 493.141C1460.55 493.141 1455.03 491.944 1450.4 489.549C1445.76 487.154 1442.17 483.755 1439.62 479.351C1437.15 474.948 1435.91 469.733 1435.91 463.708C1435.91 457.836 1437.11 452.699 1439.5 448.296C1441.97 443.892 1445.34 440.454 1449.58 437.982C1453.91 435.433 1458.82 434.158 1464.3 434.158C1468.32 434.158 1471.91 434.815 1475.08 436.128C1478.32 437.441 1481.06 439.334 1483.3 441.806C1485.62 444.278 1487.36 447.291 1488.52 450.845C1489.75 454.321 1490.37 458.261 1490.37 462.665C1490.37 464.055 1489.87 465.137 1488.86 465.909C1487.94 466.605 1486.58 466.952 1484.81 466.952H1447.61V458.609H1480.17L1478.32 460.347C1478.32 456.793 1477.78 453.819 1476.7 451.424C1475.69 449.029 1474.19 447.214 1472.18 445.978C1470.25 444.665 1467.81 444.008 1464.88 444.008C1461.63 444.008 1458.85 444.781 1456.53 446.326C1454.3 447.793 1452.56 449.918 1451.32 452.699C1450.16 455.403 1449.58 458.647 1449.58 462.433V463.244C1449.58 469.579 1451.05 474.33 1453.99 477.497C1457 480.587 1461.4 482.132 1467.2 482.132C1469.21 482.132 1471.44 481.901 1473.92 481.437C1476.47 480.896 1478.86 480.008 1481.1 478.772C1482.72 477.845 1484.15 477.459 1485.39 477.613C1486.62 477.69 1487.59 478.115 1488.28 478.888C1489.06 479.66 1489.52 480.626 1489.68 481.785C1489.83 482.866 1489.6 483.987 1488.98 485.145C1488.44 486.304 1487.47 487.308 1486.08 488.158C1483.38 489.858 1480.25 491.132 1476.7 491.983C1473.22 492.755 1469.98 493.141 1466.96 493.141ZM1509.02 492.909C1506.71 492.909 1504.93 492.292 1503.7 491.055C1502.46 489.742 1501.84 487.888 1501.84 485.493V441.69C1501.84 439.296 1502.46 437.48 1503.7 436.244C1504.93 435.008 1506.67 434.39 1508.91 434.39C1511.15 434.39 1512.89 435.008 1514.12 436.244C1515.36 437.48 1515.97 439.296 1515.97 441.69V449.57L1514.7 446.673C1516.4 442.579 1519.03 439.489 1522.58 437.403C1526.21 435.24 1530.31 434.158 1534.87 434.158C1539.42 434.158 1543.17 435.008 1546.1 436.708C1549.04 438.407 1551.24 440.995 1552.71 444.472C1554.18 447.871 1554.91 452.197 1554.91 457.45V485.493C1554.91 487.888 1554.29 489.742 1553.06 491.055C1551.82 492.292 1550.04 492.909 1547.72 492.909C1545.41 492.909 1543.59 492.292 1542.28 491.055C1541.04 489.742 1540.42 487.888 1540.42 485.493V458.145C1540.42 453.742 1539.58 450.536 1537.87 448.527C1536.25 446.519 1533.7 445.514 1530.23 445.514C1525.98 445.514 1522.58 446.866 1520.03 449.57C1517.56 452.197 1516.32 455.712 1516.32 460.115V485.493C1516.32 490.437 1513.89 492.909 1509.02 492.909ZM1595.57 493.141C1590.56 493.141 1586.34 492.292 1582.95 490.592C1579.63 488.892 1577.15 486.42 1575.53 483.175C1573.91 479.854 1573.1 475.759 1573.1 470.892V446.21H1567.07C1565.22 446.21 1563.79 445.746 1562.78 444.819C1561.78 443.815 1561.28 442.463 1561.28 440.763C1561.28 438.987 1561.78 437.635 1562.78 436.708C1563.79 435.781 1565.22 435.317 1567.07 435.317H1573.1V424.772C1573.1 422.377 1573.71 420.562 1574.95 419.326C1576.26 418.09 1578.08 417.472 1580.4 417.472C1582.71 417.472 1584.49 418.09 1585.72 419.326C1586.96 420.562 1587.58 422.377 1587.58 424.772V435.317H1599.86C1601.72 435.317 1603.15 435.781 1604.15 436.708C1605.16 437.635 1605.66 438.987 1605.66 440.763C1605.66 442.463 1605.16 443.815 1604.15 444.819C1603.15 445.746 1601.72 446.21 1599.86 446.21H1587.58V470.081C1587.58 473.789 1588.39 476.57 1590.01 478.424C1591.64 480.278 1594.26 481.205 1597.89 481.205C1599.21 481.205 1600.36 481.09 1601.37 480.858C1602.37 480.626 1603.26 480.472 1604.03 480.395C1604.96 480.317 1605.73 480.626 1606.35 481.321C1606.97 481.939 1607.28 483.253 1607.28 485.261C1607.28 486.806 1607.01 488.197 1606.47 489.433C1606 490.592 1605.11 491.403 1603.8 491.866C1602.8 492.175 1601.49 492.446 1599.86 492.678C1598.24 492.987 1596.81 493.141 1595.57 493.141ZM1634.83 493.141C1631.51 493.141 1627.99 492.793 1624.29 492.098C1620.58 491.403 1617.26 490.205 1614.32 488.506C1613.08 487.733 1612.2 486.845 1611.66 485.841C1611.19 484.759 1611 483.716 1611.08 482.712C1611.23 481.63 1611.62 480.703 1612.24 479.931C1612.93 479.158 1613.78 478.656 1614.79 478.424C1615.87 478.193 1617.03 478.386 1618.26 479.004C1621.35 480.472 1624.25 481.514 1626.95 482.132C1629.65 482.673 1632.32 482.944 1634.95 482.944C1638.65 482.944 1641.4 482.326 1643.17 481.09C1645.03 479.777 1645.95 478.077 1645.95 475.991C1645.95 474.214 1645.34 472.862 1644.1 471.935C1642.94 470.931 1641.16 470.197 1638.77 469.733L1627.18 467.532C1622.39 466.605 1618.72 464.866 1616.17 462.317C1613.71 459.69 1612.47 456.33 1612.47 452.235C1612.47 448.527 1613.47 445.321 1615.48 442.617C1617.57 439.914 1620.42 437.828 1624.05 436.36C1627.68 434.892 1631.86 434.158 1636.57 434.158C1639.97 434.158 1643.14 434.544 1646.07 435.317C1649.08 436.012 1651.98 437.132 1654.76 438.678C1655.92 439.296 1656.69 440.107 1657.08 441.111C1657.54 442.115 1657.66 443.158 1657.42 444.24C1657.19 445.244 1656.73 446.171 1656.04 447.021C1655.34 447.793 1654.45 448.296 1653.37 448.527C1652.37 448.682 1651.21 448.45 1649.89 447.832C1647.5 446.596 1645.18 445.708 1642.94 445.167C1640.78 444.626 1638.69 444.356 1636.69 444.356C1632.9 444.356 1630.08 445.012 1628.22 446.326C1626.45 447.639 1625.56 449.377 1625.56 451.54C1625.56 453.163 1626.1 454.514 1627.18 455.596C1628.26 456.678 1629.93 457.411 1632.17 457.798L1643.75 459.999C1648.77 460.926 1652.56 462.626 1655.11 465.098C1657.73 467.57 1659.05 470.892 1659.05 475.064C1659.05 480.703 1656.84 485.145 1652.44 488.39C1648.04 491.557 1642.17 493.141 1634.83 493.141Z" fill="#DE3091"/>
</svg>
