<svg width="366" height="101" viewBox="0 0 366 101" fill="none" xmlns="http://www.w3.org/2000/svg">
<path d="M223.694 24.277C222.947 21.2872 220.22 20.7364 218.212 20.7364C215.173 20.7408 212.712 22.4023 212.716 25.4321L212.734 29.1994V48.2C212.734 48.3111 212.752 48.4221 212.778 48.5243V49.1018C212.783 51.8962 215.093 55.2192 217.803 55.4413C218.03 55.4591 218.261 55.4591 218.496 55.4502C221.512 55.3258 223.72 52.1094 223.712 49.0796L223.68 41.2208V34.868C223.734 34.5037 223.765 34.1483 223.765 33.8107L223.68 28.5152V27.1158C223.68 27.0714 223.672 27.027 223.667 26.9825C223.698 26.0629 223.889 25.0367 223.698 24.277H223.694ZM262.699 24.2326C261.97 21.2428 259.309 20.6919 257.35 20.6964C254.996 20.7008 253.005 21.7537 252.281 23.6951C252.006 24.4103 250.962 24.708 250.313 24.1704C248.07 22.3223 245.298 21.1628 242.21 21.1628C234.747 21.1006 227.661 27.5068 227.661 37.0182C227.661 46.5296 234.809 52.5626 242.21 52.5626C245.151 52.5626 247.865 51.4786 250.1 49.7105C250.744 49.1996 251.788 49.6261 251.788 50.4479C251.788 55.9833 248.865 57.4093 243.765 57.4093C243.601 57.4093 243.454 57.4138 243.321 57.4271C241.122 57.1872 238.523 56.7296 238.523 56.7296C234.525 56.3787 231.966 57.9958 231.495 60.3281H231.499C231.459 60.5236 231.433 60.7235 231.415 60.9278C231.215 63.5578 235.431 65.2815 237.306 65.9257C239.18 66.5698 242.508 67.2895 244.964 67.0318C245.08 67.0185 245.173 67.0007 245.253 66.9785C257.683 66.6809 262.73 61.3143 262.73 50.017C262.73 46.5341 262.788 34.5304 262.792 25.9519C262.792 25.7786 262.783 25.6009 262.77 25.4232C262.792 24.9923 262.788 24.5836 262.703 24.2282L262.699 24.2326ZM245.502 43.18C242.081 43.18 239.22 40.5678 239.22 37.0226C239.22 33.4775 242.019 30.6787 245.502 30.6787C248.985 30.6787 251.908 33.4775 251.908 37.0226C251.908 40.5678 248.923 43.18 245.502 43.18ZM171.503 40.5056V33.0421C171.503 25.8897 167.149 21.5405 160.996 21.5405C157.105 21.5405 154.475 23.3175 152.836 25.17C152.089 26.0185 150.49 25.9519 149.784 25.0767C147.944 22.8021 145.217 21.5405 142.094 21.5405C139.17 21.5405 136.9 22.7399 135.261 24.206C134.55 24.8412 133.164 24.4858 132.88 23.6418C132.871 23.6151 132.831 23.5618 132.769 23.4996C132.582 23.1042 132.333 22.7533 132.04 22.4378C132.018 22.3845 131.987 22.3446 131.934 22.3223C130.921 21.305 129.388 20.7408 127.673 20.7408C124.634 20.7452 122.173 22.4067 122.178 25.4365L122.191 28.5641V40.4967C122.191 40.59 122.178 40.6788 122.178 40.7721L122.191 43.8997V44.0596C122.191 44.0596 122.191 44.064 122.191 44.0685L122.213 49.1774C122.213 51.9717 124.546 55.2947 127.269 55.5213C127.495 55.5391 127.731 55.5391 127.966 55.5302C131.001 55.4058 133.226 52.1894 133.217 49.1596L133.195 43.602V35.8543C133.195 33.1799 134.75 31.2518 137.362 31.2518C139.85 31.2518 141.281 32.8067 141.281 36.414V40.741C141.281 40.741 141.281 40.7588 141.281 40.7721V41.1053V44.0596C141.281 44.104 141.289 44.1484 141.294 44.1929L141.316 49.1729C141.316 51.9673 143.648 55.2903 146.376 55.5168C146.603 55.5346 146.838 55.5346 147.074 55.5257C150.108 55.4013 152.334 52.1849 152.325 49.1551L152.289 40.9454V36.4185C152.289 32.5623 154.342 31.2562 156.518 31.2562C159.006 31.2562 160.437 32.8111 160.437 36.4185V40.4656C160.432 40.5678 160.423 40.6699 160.423 40.7721L160.459 49.1729C160.459 51.9673 162.809 55.2947 165.559 55.5168C165.79 55.5346 166.025 55.5346 166.261 55.5257C169.322 55.4013 171.561 52.1849 171.552 49.1551L171.516 40.7543C171.516 40.6744 171.507 40.5989 171.503 40.5189V40.5056ZM301.256 46.694C301.922 48.8842 299.154 50.8211 297.724 51.7318C296.458 52.5359 293.912 54.0419 291.9 54.5573C290.074 55.157 288.035 55.5302 285.747 55.5302C273.25 55.5302 266.16 48.3555 266.16 38.1955C266.16 28.0354 273.312 20.8608 283.943 20.8608C293.521 20.8608 300.794 28.1598 300.794 38.3198V40.0702C300.794 40.821 300.198 41.4296 299.461 41.4296H279.119C278.252 41.4296 277.608 42.2737 278.003 43.06C279.336 45.7166 282.122 46.8895 286.058 46.8895C286.822 46.8895 287.542 46.925 288.221 46.965C290.416 46.8717 293.472 45.1036 294.57 44.5216C297.817 43.4465 300.247 44.3217 301.078 46.2009C301.149 46.3564 301.211 46.5252 301.26 46.694H301.256ZM277.137 34.7614H287.817C288.701 34.7614 289.345 33.8907 288.937 33.091C287.848 30.9675 285.956 29.808 283.295 29.808C280.003 29.808 278.008 31.585 277.137 34.7569V34.7614ZM217.998 6.2804C214.591 6.28485 211.832 8.52388 211.837 11.2782L211.877 11.647C211.877 14.1881 214.489 18.3019 217.545 18.5018C217.799 18.5151 218.065 18.5195 218.327 18.5107C221.73 18.3952 224.222 14.3836 224.218 11.6292L224.178 11.2605C224.169 8.50611 221.406 6.2804 217.998 6.2804ZM362.602 26.5872C362.514 24.5303 360.017 22.9176 357.636 22.3357L357.645 22.2824C356.907 22.2824 356.312 21.6871 356.312 20.9496V13.5439C356.312 13.5439 356.307 13.5128 356.307 13.4951C356.316 13.4062 356.325 13.3129 356.325 13.2196C356.325 11.0206 353.86 9.23468 350.821 9.23468C347.782 9.23468 345.317 11.0206 345.317 13.2196C345.317 13.2329 345.317 13.2507 345.317 13.264C345.303 13.3351 345.299 13.4062 345.299 13.4773V20.9496C345.299 21.6871 344.703 22.2824 343.966 22.2824V22.3135C341.594 22.851 338.822 24.5347 338.657 26.4539H338.662C338.644 26.6494 338.639 26.8493 338.648 27.0492C338.742 29.2038 341.487 30.8786 343.966 31.3762V31.4873C344.703 31.4873 345.299 32.0826 345.299 32.82V39.8836C345.259 40.1457 345.232 40.4167 345.232 40.6922L345.268 49.093C345.268 51.8873 347.613 55.2148 350.354 55.4369C350.581 55.4546 350.821 55.4546 351.056 55.4458C354.108 55.3214 356.343 52.105 356.338 49.0752L356.303 41.1009V31.4828C358.808 31.2562 362.394 29.3682 362.585 27.178H362.58C362.598 26.9825 362.602 26.7826 362.594 26.5827L362.602 26.5872ZM93.3769 5.49852C78.8232 5.49852 67.5703 16.4404 67.5703 30.1234C67.5703 43.8064 78.952 54.8727 93.3769 54.8727C107.802 54.8727 119.121 43.8064 119.121 30.1234C119.121 16.5026 107.926 5.49852 93.3769 5.49852ZM93.3769 43.8019C85.5403 43.8019 79.6939 37.769 79.6939 30.1812C79.6939 22.5933 85.6647 16.5604 93.3769 16.5604C101.089 16.5604 106.993 22.5933 106.993 30.1812C106.993 37.769 101.209 43.8019 93.3769 43.8019ZM207.883 33.0466C207.883 25.8986 202.969 21.5449 196.879 21.5449C193.418 21.5449 190.695 22.7755 188.762 24.2548C188.194 24.6902 187.336 24.5303 186.901 24.0416C186.825 23.9305 186.754 23.815 186.683 23.6951C186.683 23.6951 186.683 23.6951 186.683 23.6906C185.897 22.3712 185.19 20.7497 181.667 20.7408C178.629 20.7452 176.168 22.4067 176.172 25.4365V26.294V44.0551C176.172 44.1218 176.181 44.184 176.19 44.2462L176.212 49.164C176.212 51.9584 178.553 55.2858 181.29 55.508C181.516 55.5257 181.752 55.5257 181.987 55.5168C185.035 55.3924 187.265 52.1761 187.256 49.1463L187.234 44.0551C187.234 44.0551 187.234 44.0507 187.234 44.0463V35.8409C187.234 33.1665 189.66 31.3007 192.147 31.3007C194.884 31.3007 196.874 32.7312 196.874 36.4007V44.0463C196.874 44.0996 196.883 44.1529 196.892 44.2062L196.914 49.1596C196.914 51.9539 199.242 55.2769 201.965 55.5035C202.192 55.5213 202.427 55.5213 202.663 55.5124C205.693 55.388 207.914 52.1716 207.909 49.1418L207.887 43.7308V33.0421L207.883 33.0466ZM336.756 33.0466C336.756 25.8986 331.842 21.5449 325.752 21.5449C322.291 21.5449 319.568 22.7755 317.635 24.2548C316.849 24.859 315.494 24.3348 315.494 23.3397C315.494 23.2197 315.29 22.811 314.992 22.54C313.988 21.3939 312.371 20.7408 310.536 20.7408C307.497 20.7452 305.036 22.4067 305.041 25.4365V26.294V44.0551C305.041 44.1218 305.05 44.184 305.058 44.2462L305.081 49.164C305.081 51.9584 307.422 55.2858 310.158 55.508C310.385 55.5257 310.62 55.5257 310.856 55.5168C313.904 55.3924 316.134 52.1761 316.125 49.1463L316.103 44.0551C316.103 44.0551 316.103 44.0507 316.103 44.0463V35.8409C316.103 33.1665 318.528 31.3007 321.016 31.3007C323.753 31.3007 325.743 32.7312 325.743 36.4007V44.0463C325.743 44.0996 325.752 44.1529 325.761 44.2062L325.783 49.1596C325.783 51.9539 328.111 55.2769 330.834 55.5035C331.06 55.5213 331.296 55.5213 331.531 55.5124C334.561 55.388 336.782 52.1716 336.778 49.1418L336.756 43.7308V33.0421V33.0466Z" fill="black"/>
<g clip-path="url(#clip0_352_9974)">
<path d="M56.2056 43.8904C55.5946 40.9621 56.0035 37.8739 57.5311 35.2981C58.7156 33.3005 59.369 30.6871 59.369 27.2746C59.369 12.7222 47.571 0.928955 33.0234 0.928955C18.4757 0.928955 6.67773 12.7222 6.67773 27.2746C6.67773 30.6918 7.33109 33.3005 8.51558 35.2981C10.0103 37.8175 10.438 40.8399 9.89749 43.7212C9.82229 44.1301 9.76118 44.4451 9.71888 44.6143C8.54849 49.7612 7.92804 52.2712 8.34637 53.8129C8.7083 55.1384 9.57787 56.1537 10.8 56.6707C11.3687 56.9105 11.9798 57.0327 12.6096 57.0327C13.4933 57.0327 14.4099 56.793 15.2747 56.3229C16.5438 55.632 19.0021 52.2524 21.4416 48.5391C21.7989 51.7072 22.2783 54.424 22.8752 55.3875C23.6179 56.5955 24.7742 57.357 26.1279 57.5309C26.3159 57.5544 26.5039 57.5685 26.6919 57.5685C27.9611 57.5685 29.2302 57.0374 30.236 56.0597C31.021 55.2982 32.0081 52.901 33.0234 49.8317C34.0386 52.8963 35.021 55.2982 35.8107 56.0597C36.8213 57.0327 38.0857 57.5685 39.3548 57.5685C39.5428 57.5685 39.7308 57.5591 39.9188 57.5309C41.2725 57.3617 42.4288 56.6002 43.1715 55.3875C43.7684 54.4193 44.2479 51.7071 44.6051 48.5344C47.0446 52.2477 49.5029 55.6273 50.772 56.3182C51.6322 56.7883 52.5487 57.028 53.4371 57.028C54.067 57.028 54.678 56.9105 55.2468 56.6661C56.4642 56.1443 57.3384 55.129 57.7004 53.8082C58.1234 52.2665 57.4136 49.183 56.2432 44.0408C56.2338 43.9985 56.2197 43.9468 56.2103 43.8857L56.2056 43.8904Z" fill="#F43BA6"/>
<path d="M29.7471 37.0751C31.5849 39.0681 34.9692 39.0211 36.2994 36.9905" stroke="black" stroke-width="1.88015" stroke-miterlimit="10" stroke-linecap="round"/>
<path d="M44.7512 40.4781C46.4853 40.4781 47.891 39.6911 47.891 38.7202C47.891 37.7493 46.4853 36.9622 44.7512 36.9622C43.0171 36.9622 41.6113 37.7493 41.6113 38.7202C41.6113 39.6911 43.0171 40.4781 44.7512 40.4781Z" fill="#FF75C3"/>
<path d="M21.2961 40.4781C23.0302 40.4781 24.436 39.6911 24.436 38.7202C24.436 37.7493 23.0302 36.9622 21.2961 36.9622C19.562 36.9622 18.1562 37.7493 18.1562 38.7202C18.1562 39.6911 19.562 40.4781 21.2961 40.4781Z" fill="#FF75C3"/>
<path d="M20.1172 35.8808C24.7587 35.8808 28.5214 32.118 28.5214 27.4765C28.5214 22.8349 24.7587 19.0722 20.1172 19.0722C15.4756 19.0722 11.7129 22.8349 11.7129 27.4765C11.7129 32.118 15.4756 35.8808 20.1172 35.8808Z" fill="white"/>
<path d="M20.1173 34.0288C23.736 34.0288 26.6696 31.0952 26.6696 27.4765C26.6696 23.8577 23.736 20.9241 20.1173 20.9241C16.4985 20.9241 13.5649 23.8577 13.5649 27.4765C13.5649 31.0952 16.4985 34.0288 20.1173 34.0288Z" fill="black"/>
<path d="M18.4058 27.2696C19.1091 27.2696 19.6799 27.8397 19.6802 28.543C19.6802 29.2465 19.1093 29.8174 18.4058 29.8174C17.7025 29.8172 17.1323 29.2464 17.1323 28.543C17.1326 27.8399 17.7026 27.2698 18.4058 27.2696ZM14.8618 24.1534C15.8898 24.1534 16.7231 24.9867 16.7231 26.0147C16.7231 27.0427 15.8898 27.876 14.8618 27.876C13.834 27.8759 13.0005 27.0426 13.0005 26.0147C13.0005 24.9868 13.834 24.1535 14.8618 24.1534Z" fill="white"/>
<path d="M45.7392 35.8808C50.3808 35.8808 54.1435 32.118 54.1435 27.4765C54.1435 22.8349 50.3808 19.0722 45.7392 19.0722C41.0977 19.0722 37.335 22.8349 37.335 27.4765C37.335 32.118 41.0977 35.8808 45.7392 35.8808Z" fill="white"/>
<path d="M45.7393 34.0288C49.3581 34.0288 52.2917 31.0952 52.2917 27.4765C52.2917 23.8577 49.3581 20.9241 45.7393 20.9241C42.1206 20.9241 39.187 23.8577 39.187 27.4765C39.187 31.0952 42.1206 34.0288 45.7393 34.0288Z" fill="black"/>
<path d="M44.0278 27.2696C44.7312 27.2696 45.302 27.8397 45.3022 28.543C45.3022 29.2465 44.7313 29.8174 44.0278 29.8174C43.3245 29.8172 42.7544 29.2464 42.7544 28.543C42.7546 27.8399 43.3247 27.2698 44.0278 27.2696ZM40.4839 24.1534C41.5119 24.1534 42.3452 24.9867 42.3452 26.0147C42.3452 27.0427 41.5119 27.876 40.4839 27.876C39.456 27.8759 38.6226 27.0426 38.6226 26.0147C38.6226 24.9868 39.456 24.1535 40.4839 24.1534Z" fill="white"/>
</g>
<path d="M7.91376 95.3427C7.49853 95.3427 7.16115 95.2475 6.90163 95.0572C6.65941 94.8669 6.51235 94.616 6.46045 94.3046C6.40855 93.9759 6.4691 93.6125 6.64211 93.2146L13.4934 78.0327C13.7183 77.531 13.9865 77.1763 14.2979 76.9687C14.6267 76.7438 14.9986 76.6313 15.4139 76.6313C15.8118 76.6313 16.1665 76.7438 16.4779 76.9687C16.8066 77.1763 17.0834 77.531 17.3084 78.0327L24.1856 93.2146C24.3759 93.6125 24.4451 93.9759 24.3932 94.3046C24.3413 94.6333 24.1943 94.8928 23.9521 95.0832C23.7098 95.2562 23.3898 95.3427 22.9918 95.3427C22.5074 95.3427 22.1268 95.2302 21.85 95.0053C21.5904 94.7631 21.3569 94.3998 21.1493 93.9153L19.4624 89.9966L20.8638 90.9049H9.91206L11.3135 89.9966L9.65254 93.9153C9.42762 94.4171 9.19405 94.7804 8.95184 95.0053C8.70962 95.2302 8.36359 95.3427 7.91376 95.3427ZM15.362 80.4463L11.7287 89.0883L11.0539 88.2578H19.7219L19.0731 89.0883L15.4139 80.4463H15.362ZM35.439 95.3427C34.92 95.3427 34.5221 95.2043 34.2452 94.9274C33.9684 94.6333 33.83 94.2181 33.83 93.6817V83.8719C33.83 83.3356 33.9684 82.929 34.2452 82.6522C34.5221 82.3753 34.9113 82.2369 35.4131 82.2369C35.9148 82.2369 36.3041 82.3753 36.5809 82.6522C36.8577 82.929 36.9962 83.3356 36.9962 83.8719V85.7664L36.7107 84.9878C37.0567 84.1228 37.5931 83.4394 38.3197 82.9376C39.0464 82.4359 39.9114 82.185 40.9149 82.185C41.9357 82.185 42.7748 82.4273 43.4322 82.9117C44.0897 83.3961 44.5482 84.1401 44.8077 85.1436H44.4444C44.7904 84.2266 45.3613 83.5086 46.1572 82.9895C46.9531 82.4532 47.87 82.185 48.9081 82.185C49.877 82.185 50.6728 82.3753 51.2957 82.756C51.9358 83.1366 52.4116 83.7162 52.723 84.4948C53.0345 85.256 53.1902 86.2249 53.1902 87.4014V93.6817C53.1902 94.2181 53.0431 94.6333 52.749 94.9274C52.4722 95.2043 52.0742 95.3427 51.5552 95.3427C51.0362 95.3427 50.6382 95.2043 50.3614 94.9274C50.0846 94.6333 49.9462 94.2181 49.9462 93.6817V87.5311C49.9462 86.5623 49.7818 85.8529 49.4531 85.4031C49.1417 84.9532 48.6053 84.7283 47.8441 84.7283C46.9963 84.7283 46.3302 85.0311 45.8458 85.6366C45.3613 86.2249 45.1191 87.0467 45.1191 88.1021V93.6817C45.1191 94.2181 44.9807 94.6333 44.7039 94.9274C44.4271 95.2043 44.0291 95.3427 43.5101 95.3427C42.9911 95.3427 42.5845 95.2043 42.2904 94.9274C42.0135 94.6333 41.8751 94.2181 41.8751 93.6817V87.5311C41.8751 86.5623 41.7108 85.8529 41.382 85.4031C41.0706 84.9532 40.5429 84.7283 39.799 84.7283C38.9512 84.7283 38.2851 85.0311 37.8007 85.6366C37.3162 86.2249 37.074 87.0467 37.074 88.1021V93.6817C37.074 94.789 36.529 95.3427 35.439 95.3427ZM62.7912 95.3946C61.3552 95.3946 60.1181 95.1264 59.08 94.5901C58.042 94.0537 57.2375 93.2925 56.6665 92.3063C56.1129 91.3201 55.8361 90.1523 55.8361 88.8028C55.8361 87.4879 56.1042 86.3373 56.6406 85.3512C57.1942 84.365 57.9468 83.5951 58.8984 83.0414C59.8673 82.4705 60.9659 82.185 62.1943 82.185C63.0939 82.185 63.8985 82.3321 64.6078 82.6262C65.3345 82.9203 65.9487 83.3442 66.4504 83.8979C66.9694 84.4515 67.3587 85.1263 67.6182 85.9221C67.8951 86.7007 68.0335 87.583 68.0335 88.5692C68.0335 88.8806 67.921 89.1229 67.6961 89.2959C67.4885 89.4516 67.1857 89.5294 66.7878 89.5294H58.4572V87.6609H65.7497L65.3345 88.0502C65.3345 87.2543 65.2134 86.5882 64.9711 86.0519C64.7462 85.5155 64.4088 85.109 63.959 84.8321C63.5265 84.538 62.9815 84.3909 62.324 84.3909C61.5974 84.3909 60.9745 84.564 60.4555 84.91C59.9538 85.2387 59.5645 85.7145 59.2877 86.3373C59.0281 86.9429 58.8984 87.6695 58.8984 88.5173V88.699C58.8984 90.1177 59.2271 91.1817 59.8846 91.8911C60.5593 92.5831 61.5455 92.9291 62.8431 92.9291C63.2929 92.9291 63.7946 92.8772 64.3483 92.7734C64.9192 92.6523 65.4556 92.4534 65.9573 92.1765C66.3206 91.9689 66.6407 91.8824 66.9175 91.917C67.1944 91.9343 67.4106 92.0295 67.5663 92.2025C67.7393 92.3755 67.8432 92.5918 67.8778 92.8513C67.9124 93.0935 67.8605 93.3444 67.722 93.6039C67.6009 93.8634 67.3847 94.0883 67.0732 94.2786C66.4677 94.6593 65.767 94.9447 64.9711 95.1351C64.1926 95.3081 63.4659 95.3946 62.7912 95.3946ZM76.3651 95.3946C75.2405 95.3946 74.2975 95.2043 73.5363 94.8236C72.7923 94.443 72.2387 93.8894 71.8754 93.1627C71.512 92.4188 71.3304 91.5018 71.3304 90.4118V84.884H69.9809C69.5656 84.884 69.2456 84.7802 69.0207 84.5726C68.7957 84.3477 68.6833 84.0449 68.6833 83.6643C68.6833 83.2664 68.7957 82.9636 69.0207 82.756C69.2456 82.5484 69.5656 82.4446 69.9809 82.4446H71.3304V80.0829C71.3304 79.5466 71.4688 79.14 71.7456 78.8632C72.0397 78.5864 72.4463 78.448 72.9653 78.448C73.4844 78.448 73.8823 78.5864 74.1591 78.8632C74.436 79.14 74.5744 79.5466 74.5744 80.0829V82.4446H77.3253C77.7405 82.4446 78.0606 82.5484 78.2855 82.756C78.5104 82.9636 78.6229 83.2664 78.6229 83.6643C78.6229 84.0449 78.5104 84.3477 78.2855 84.5726C78.0606 84.7802 77.7405 84.884 77.3253 84.884H74.5744V90.2301C74.5744 91.0606 74.756 91.6834 75.1194 92.0987C75.4827 92.5139 76.0709 92.7215 76.8841 92.7215C77.1782 92.7215 77.4377 92.6956 77.6627 92.6437C77.8876 92.5918 78.0865 92.5572 78.2595 92.5399C78.4672 92.5226 78.6402 92.5918 78.7786 92.7475C78.917 92.8859 78.9862 93.18 78.9862 93.6298C78.9862 93.9759 78.9256 94.2873 78.8045 94.5641C78.7007 94.8236 78.5018 95.0053 78.2076 95.1091C77.9827 95.1783 77.6886 95.2389 77.3253 95.2908C76.9619 95.36 76.6419 95.3946 76.3651 95.3946ZM84.6902 95.3946C83.7732 95.3946 82.9514 95.2216 82.2247 94.8755C81.5154 94.5122 80.9531 94.0278 80.5378 93.4222C80.1399 92.8167 79.9409 92.1333 79.9409 91.372C79.9409 90.4378 80.1832 89.7024 80.6676 89.1661C81.152 88.6125 81.9392 88.2145 83.0292 87.9723C84.1192 87.7301 85.5812 87.609 87.4151 87.609H88.7127V89.4775H87.4411C86.3684 89.4775 85.512 89.5294 84.8718 89.6332C84.2317 89.7371 83.7732 89.9187 83.4964 90.1782C83.2368 90.4205 83.1071 90.7665 83.1071 91.2163C83.1071 91.7873 83.306 92.2544 83.704 92.6177C84.1019 92.981 84.6555 93.1627 85.3649 93.1627C85.9358 93.1627 86.4376 93.0329 86.8701 92.7734C87.3199 92.4966 87.6746 92.1246 87.9341 91.6575C88.1937 91.1904 88.3234 90.654 88.3234 90.0485V87.064C88.3234 86.1989 88.1331 85.5761 87.7525 85.1955C87.3719 84.8148 86.7317 84.6245 85.832 84.6245C85.3303 84.6245 84.7853 84.6851 84.1971 84.8062C83.6261 84.9273 83.0206 85.1349 82.3804 85.429C82.0517 85.5847 81.7576 85.628 81.4981 85.5588C81.2558 85.4896 81.0655 85.3512 80.9271 85.1436C80.7887 84.9186 80.7195 84.6764 80.7195 84.4169C80.7195 84.1574 80.7887 83.9065 80.9271 83.6643C81.0655 83.4048 81.2991 83.2145 81.6278 83.0934C82.4237 82.7646 83.1849 82.5311 83.9116 82.3927C84.6555 82.2542 85.3303 82.185 85.9358 82.185C87.1815 82.185 88.2023 82.3753 88.9982 82.756C89.8113 83.1366 90.4169 83.7162 90.8148 84.4948C91.2127 85.256 91.4117 86.2422 91.4117 87.4533V93.6817C91.4117 94.2181 91.2819 94.6333 91.0224 94.9274C90.7629 95.2043 90.3909 95.3427 89.9065 95.3427C89.4221 95.3427 89.0414 95.2043 88.7646 94.9274C88.5051 94.6333 88.3753 94.2181 88.3753 93.6817V92.4361H88.5829C88.4618 93.0416 88.2196 93.5693 87.8563 94.0191C87.5103 94.4517 87.0691 94.789 86.5327 95.0312C85.9964 95.2735 85.3822 95.3946 84.6902 95.3946ZM95.8981 89.4775C95.5175 89.4775 95.1974 89.3564 94.9379 89.1142C94.6957 88.8547 94.5746 88.5433 94.5746 88.1799C94.5746 87.7993 94.6957 87.4879 94.9379 87.2457C95.1974 87.0034 95.5175 86.8823 95.8981 86.8823H101.426C101.789 86.8823 102.092 87.0034 102.334 87.2457C102.594 87.4879 102.724 87.7993 102.724 88.1799C102.724 88.5433 102.594 88.8547 102.334 89.1142C102.092 89.3564 101.789 89.4775 101.426 89.4775H95.8981ZM107.566 95.3427C107.047 95.3427 106.649 95.2043 106.372 94.9274C106.095 94.6333 105.957 94.2181 105.957 93.6817V78.2663C105.957 77.73 106.095 77.3234 106.372 77.0465C106.649 76.7697 107.047 76.6313 107.566 76.6313C108.085 76.6313 108.483 76.7697 108.76 77.0465C109.054 77.3234 109.201 77.73 109.201 78.2663V84.9878H108.838C109.218 84.0709 109.806 83.3788 110.602 82.9117C111.416 82.4273 112.332 82.185 113.353 82.185C114.374 82.185 115.213 82.3753 115.871 82.756C116.528 83.1366 117.021 83.7162 117.35 84.4948C117.679 85.256 117.843 86.2249 117.843 87.4014V93.6817C117.843 94.2181 117.705 94.6333 117.428 94.9274C117.151 95.2043 116.753 95.3427 116.234 95.3427C115.715 95.3427 115.308 95.2043 115.014 94.9274C114.737 94.6333 114.599 94.2181 114.599 93.6817V87.5571C114.599 86.5709 114.409 85.8529 114.028 85.4031C113.665 84.9532 113.094 84.7283 112.315 84.7283C111.364 84.7283 110.602 85.0311 110.031 85.6366C109.478 86.2249 109.201 87.0121 109.201 87.9983V93.6817C109.201 94.789 108.656 95.3427 107.566 95.3427ZM125.316 95.3946C124.399 95.3946 123.577 95.2216 122.851 94.8755C122.141 94.5122 121.579 94.0278 121.164 93.4222C120.766 92.8167 120.567 92.1333 120.567 91.372C120.567 90.4378 120.809 89.7024 121.294 89.1661C121.778 88.6125 122.565 88.2145 123.655 87.9723C124.745 87.7301 126.207 87.609 128.041 87.609H129.339V89.4775H128.067C126.994 89.4775 126.138 89.5294 125.498 89.6332C124.858 89.7371 124.399 89.9187 124.122 90.1782C123.863 90.4205 123.733 90.7665 123.733 91.2163C123.733 91.7873 123.932 92.2544 124.33 92.6177C124.728 92.981 125.281 93.1627 125.991 93.1627C126.562 93.1627 127.064 93.0329 127.496 92.7734C127.946 92.4966 128.301 92.1246 128.56 91.6575C128.82 91.1904 128.949 90.654 128.949 90.0485V87.064C128.949 86.1989 128.759 85.5761 128.378 85.1955C127.998 84.8148 127.358 84.6245 126.458 84.6245C125.956 84.6245 125.411 84.6851 124.823 84.8062C124.252 84.9273 123.647 85.1349 123.006 85.429C122.678 85.5847 122.384 85.628 122.124 85.5588C121.882 85.4896 121.691 85.3512 121.553 85.1436C121.415 84.9186 121.345 84.6764 121.345 84.4169C121.345 84.1574 121.415 83.9065 121.553 83.6643C121.691 83.4048 121.925 83.2145 122.254 83.0934C123.05 82.7646 123.811 82.5311 124.538 82.3927C125.281 82.2542 125.956 82.185 126.562 82.185C127.807 82.185 128.828 82.3753 129.624 82.756C130.437 83.1366 131.043 83.7162 131.441 84.4948C131.839 85.256 132.038 86.2422 132.038 87.4533V93.6817C132.038 94.2181 131.908 94.6333 131.648 94.9274C131.389 95.2043 131.017 95.3427 130.532 95.3427C130.048 95.3427 129.667 95.2043 129.391 94.9274C129.131 94.6333 129.001 94.2181 129.001 93.6817V92.4361H129.209C129.088 93.0416 128.846 93.5693 128.482 94.0191C128.136 94.4517 127.695 94.789 127.159 95.0312C126.622 95.2735 126.008 95.3946 125.316 95.3946ZM136.991 95.3427C136.455 95.3427 136.04 95.2043 135.746 94.9274C135.469 94.6333 135.33 94.2181 135.33 93.6817V83.8719C135.33 83.3356 135.469 82.929 135.746 82.6522C136.022 82.3753 136.412 82.2369 136.913 82.2369C137.415 82.2369 137.804 82.3753 138.081 82.6522C138.358 82.929 138.496 83.3356 138.496 83.8719V85.5069H138.237C138.479 84.4688 138.955 83.6816 139.664 83.1453C140.374 82.6089 141.317 82.2888 142.493 82.185C142.856 82.1504 143.142 82.2456 143.349 82.4705C143.574 82.6781 143.704 83.0068 143.739 83.4567C143.773 83.8892 143.67 84.2439 143.427 84.5207C143.202 84.7802 142.856 84.9359 142.389 84.9878L141.818 85.0397C140.763 85.1436 139.967 85.4723 139.431 86.0259C138.894 86.5623 138.626 87.3235 138.626 88.3097V93.6817C138.626 94.2181 138.488 94.6333 138.211 94.9274C137.934 95.2043 137.528 95.3427 136.991 95.3427ZM147.102 95.3427C146.583 95.3427 146.185 95.2043 145.908 94.9274C145.632 94.6333 145.493 94.2181 145.493 93.6817V83.8719C145.493 83.3356 145.632 82.929 145.908 82.6522C146.185 82.3753 146.574 82.2369 147.076 82.2369C147.578 82.2369 147.967 82.3753 148.244 82.6522C148.521 82.929 148.659 83.3356 148.659 83.8719V85.6366L148.374 84.9878C148.754 84.0709 149.343 83.3788 150.139 82.9117C150.952 82.4273 151.869 82.185 152.889 82.185C153.91 82.185 154.749 82.3753 155.407 82.756C156.064 83.1366 156.557 83.7162 156.886 84.4948C157.215 85.256 157.379 86.2249 157.379 87.4014V93.6817C157.379 94.2181 157.241 94.6333 156.964 94.9274C156.687 95.2043 156.289 95.3427 155.77 95.3427C155.251 95.3427 154.844 95.2043 154.55 94.9274C154.274 94.6333 154.135 94.2181 154.135 93.6817V87.5571C154.135 86.5709 153.945 85.8529 153.564 85.4031C153.201 84.9532 152.63 84.7283 151.851 84.7283C150.9 84.7283 150.139 85.0311 149.568 85.6366C149.014 86.2249 148.737 87.0121 148.737 87.9983V93.6817C148.737 94.789 148.192 95.3427 147.102 95.3427ZM166.928 95.3946C165.492 95.3946 164.255 95.1264 163.217 94.5901C162.179 94.0537 161.375 93.2925 160.804 92.3063C160.25 91.3201 159.973 90.1523 159.973 88.8028C159.973 87.4879 160.241 86.3373 160.778 85.3512C161.331 84.365 162.084 83.5951 163.036 83.0414C164.004 82.4705 165.103 82.185 166.332 82.185C167.231 82.185 168.036 82.3321 168.745 82.6262C169.472 82.9203 170.086 83.3442 170.588 83.8979C171.107 84.4515 171.496 85.1263 171.755 85.9221C172.032 86.7007 172.171 87.583 172.171 88.5692C172.171 88.8806 172.058 89.1229 171.833 89.2959C171.626 89.4516 171.323 89.5294 170.925 89.5294H162.594V87.6609H169.887L169.472 88.0502C169.472 87.2543 169.351 86.5882 169.108 86.0519C168.883 85.5155 168.546 85.109 168.096 84.8321C167.664 84.538 167.119 84.3909 166.461 84.3909C165.735 84.3909 165.112 84.564 164.593 84.91C164.091 85.2387 163.702 85.7145 163.425 86.3373C163.165 86.9429 163.036 87.6695 163.036 88.5173V88.699C163.036 90.1177 163.364 91.1817 164.022 91.8911C164.697 92.5831 165.683 92.9291 166.98 92.9291C167.43 92.9291 167.932 92.8772 168.486 92.7734C169.056 92.6523 169.593 92.4534 170.095 92.1765C170.458 91.9689 170.778 91.8824 171.055 91.917C171.332 91.9343 171.548 92.0295 171.704 92.2025C171.877 92.3755 171.98 92.5918 172.015 92.8513C172.05 93.0935 171.998 93.3444 171.859 93.6039C171.738 93.8634 171.522 94.0883 171.21 94.2786C170.605 94.6593 169.904 94.9447 169.108 95.1351C168.33 95.3081 167.603 95.3946 166.928 95.3946ZM179.385 95.3946C178.641 95.3946 177.854 95.3167 177.024 95.161C176.193 95.0053 175.449 94.7371 174.792 94.3565C174.515 94.1835 174.316 93.9845 174.195 93.7596C174.091 93.5174 174.048 93.2838 174.065 93.0589C174.1 92.8167 174.186 92.6091 174.325 92.4361C174.48 92.263 174.671 92.1506 174.895 92.0987C175.138 92.0468 175.397 92.09 175.674 92.2284C176.366 92.5572 177.015 92.7907 177.62 92.9291C178.226 93.0502 178.823 93.1108 179.411 93.1108C180.242 93.1108 180.856 92.9724 181.254 92.6956C181.669 92.4015 181.877 92.0208 181.877 91.5537C181.877 91.1558 181.738 90.853 181.461 90.6454C181.202 90.4205 180.804 90.2561 180.268 90.1523L177.672 89.6592C176.6 89.4516 175.778 89.0623 175.207 88.4914C174.653 87.9031 174.376 87.1505 174.376 86.2335C174.376 85.4031 174.601 84.6851 175.051 84.0795C175.518 83.474 176.158 83.0068 176.972 82.6781C177.785 82.3494 178.719 82.185 179.774 82.185C180.536 82.185 181.245 82.2715 181.902 82.4446C182.577 82.6003 183.226 82.8511 183.849 83.1972C184.108 83.3356 184.281 83.5172 184.368 83.7422C184.472 83.9671 184.498 84.2006 184.446 84.4429C184.394 84.6678 184.29 84.8754 184.134 85.0657C183.979 85.2387 183.78 85.3512 183.537 85.4031C183.313 85.4377 183.053 85.3858 182.759 85.2474C182.223 84.9705 181.704 84.7716 181.202 84.6505C180.717 84.5294 180.25 84.4688 179.8 84.4688C178.953 84.4688 178.321 84.6159 177.906 84.91C177.508 85.2041 177.309 85.5934 177.309 86.0778C177.309 86.4412 177.43 86.7439 177.672 86.9861C177.915 87.2284 178.287 87.3927 178.788 87.4792L181.383 87.9723C182.508 88.1799 183.356 88.5606 183.927 89.1142C184.515 89.6678 184.809 90.4118 184.809 91.3461C184.809 92.6091 184.316 93.6039 183.33 94.3305C182.344 95.0399 181.029 95.3946 179.385 95.3946ZM192.057 95.3946C191.313 95.3946 190.526 95.3167 189.695 95.161C188.865 95.0053 188.121 94.7371 187.463 94.3565C187.187 94.1835 186.988 93.9845 186.867 93.7596C186.763 93.5174 186.72 93.2838 186.737 93.0589C186.771 92.8167 186.858 92.6091 186.996 92.4361C187.152 92.263 187.342 92.1506 187.567 92.0987C187.81 92.0468 188.069 92.09 188.346 92.2284C189.038 92.5572 189.687 92.7907 190.292 92.9291C190.898 93.0502 191.495 93.1108 192.083 93.1108C192.913 93.1108 193.528 92.9724 193.926 92.6956C194.341 92.4015 194.548 92.0208 194.548 91.5537C194.548 91.1558 194.41 90.853 194.133 90.6454C193.874 90.4205 193.476 90.2561 192.939 90.1523L190.344 89.6592C189.271 89.4516 188.45 89.0623 187.879 88.4914C187.325 87.9031 187.048 87.1505 187.048 86.2335C187.048 85.4031 187.273 84.6851 187.723 84.0795C188.19 83.474 188.83 83.0068 189.643 82.6781C190.457 82.3494 191.391 82.185 192.446 82.185C193.208 82.185 193.917 82.2715 194.574 82.4446C195.249 82.6003 195.898 82.8511 196.521 83.1972C196.78 83.3356 196.953 83.5172 197.04 83.7422C197.144 83.9671 197.17 84.2006 197.118 84.4429C197.066 84.6678 196.962 84.8754 196.806 85.0657C196.65 85.2387 196.452 85.3512 196.209 85.4031C195.984 85.4377 195.725 85.3858 195.431 85.2474C194.894 84.9705 194.375 84.7716 193.874 84.6505C193.389 84.5294 192.922 84.4688 192.472 84.4688C191.624 84.4688 190.993 84.6159 190.578 84.91C190.18 85.2041 189.981 85.5934 189.981 86.0778C189.981 86.4412 190.102 86.7439 190.344 86.9861C190.586 87.2284 190.958 87.3927 191.46 87.4792L194.055 87.9723C195.18 88.1799 196.028 88.5606 196.599 89.1142C197.187 89.6678 197.481 90.4118 197.481 91.3461C197.481 92.6091 196.988 93.6039 196.002 94.3305C195.016 95.0399 193.701 95.3946 192.057 95.3946ZM209.62 95.3427C209.101 95.3427 208.695 95.2043 208.401 94.9274C208.124 94.6333 207.985 94.2181 207.985 93.6817V84.884H206.792C206.376 84.884 206.056 84.7802 205.831 84.5726C205.606 84.3477 205.494 84.0449 205.494 83.6643C205.494 83.2664 205.606 82.9636 205.831 82.756C206.056 82.5484 206.376 82.4446 206.792 82.4446H208.92L207.985 83.301V82.4186C207.985 80.6366 208.435 79.3044 209.335 78.422C210.235 77.5223 211.532 76.9946 213.228 76.8389L214.11 76.7611C214.456 76.7265 214.733 76.787 214.941 76.9427C215.148 77.0812 215.287 77.2715 215.356 77.5137C215.425 77.7386 215.434 77.9722 215.382 78.2144C215.33 78.4566 215.217 78.6729 215.044 78.8632C214.889 79.0362 214.681 79.1314 214.421 79.1487L214.058 79.1746C213.072 79.2438 212.354 79.4947 211.904 79.9272C211.454 80.3597 211.229 81.0172 211.229 81.8996V82.8598L210.814 82.4446H213.435C213.851 82.4446 214.171 82.5484 214.396 82.756C214.62 82.9636 214.733 83.2664 214.733 83.6643C214.733 84.0449 214.62 84.3477 214.396 84.5726C214.171 84.7802 213.851 84.884 213.435 84.884H211.229V93.6817C211.229 94.789 210.693 95.3427 209.62 95.3427ZM222.04 95.3946C220.725 95.3946 219.583 95.1264 218.614 94.5901C217.645 94.0537 216.893 93.2925 216.357 92.3063C215.82 91.3028 215.552 90.1263 215.552 88.7768C215.552 87.7561 215.699 86.8477 215.993 86.0519C216.305 85.2387 216.746 84.5467 217.317 83.9757C217.888 83.3875 218.571 82.9463 219.367 82.6522C220.163 82.3407 221.054 82.185 222.04 82.185C223.355 82.185 224.497 82.4532 225.466 82.9895C226.435 83.5259 227.187 84.2871 227.723 85.2733C228.26 86.2595 228.528 87.4273 228.528 88.7768C228.528 89.7976 228.372 90.7146 228.061 91.5277C227.767 92.3409 227.334 93.0416 226.763 93.6298C226.192 94.2008 225.509 94.642 224.713 94.9534C223.917 95.2475 223.026 95.3946 222.04 95.3946ZM222.04 92.9291C222.68 92.9291 223.242 92.7734 223.727 92.462C224.211 92.1506 224.583 91.6921 224.843 91.0866C225.12 90.4637 225.258 89.6938 225.258 88.7768C225.258 87.3927 224.964 86.3633 224.376 85.6885C223.787 84.9965 223.009 84.6505 222.04 84.6505C221.4 84.6505 220.838 84.8062 220.353 85.1176C219.869 85.4117 219.488 85.8702 219.211 86.4931C218.952 87.0986 218.822 87.8599 218.822 88.7768C218.822 90.1436 219.116 91.1817 219.704 91.8911C220.293 92.5831 221.071 92.9291 222.04 92.9291ZM232.866 95.3427C232.33 95.3427 231.915 95.2043 231.621 94.9274C231.344 94.6333 231.206 94.2181 231.206 93.6817V83.8719C231.206 83.3356 231.344 82.929 231.621 82.6522C231.898 82.3753 232.287 82.2369 232.789 82.2369C233.29 82.2369 233.68 82.3753 233.956 82.6522C234.233 82.929 234.372 83.3356 234.372 83.8719V85.5069H234.112C234.354 84.4688 234.83 83.6816 235.539 83.1453C236.249 82.6089 237.192 82.2888 238.368 82.185C238.732 82.1504 239.017 82.2456 239.225 82.4705C239.45 82.6781 239.579 83.0068 239.614 83.4567C239.649 83.8892 239.545 84.2439 239.303 84.5207C239.078 84.7802 238.732 84.9359 238.264 84.9878L237.693 85.0397C236.638 85.1436 235.842 85.4723 235.306 86.0259C234.77 86.5623 234.501 87.3235 234.501 88.3097V93.6817C234.501 94.2181 234.363 94.6333 234.086 94.9274C233.809 95.2043 233.403 95.3427 232.866 95.3427ZM248.907 95.3427C248.492 95.3427 248.154 95.2475 247.895 95.0572C247.653 94.8669 247.506 94.616 247.454 94.3046C247.402 93.9759 247.462 93.6125 247.635 93.2146L254.487 78.0327C254.712 77.531 254.98 77.1763 255.291 76.9687C255.62 76.7438 255.992 76.6313 256.407 76.6313C256.805 76.6313 257.16 76.7438 257.471 76.9687C257.8 77.1763 258.077 77.531 258.302 78.0327L265.179 93.2146C265.369 93.6125 265.438 93.9759 265.386 94.3046C265.335 94.6333 265.187 94.8928 264.945 95.0832C264.703 95.2562 264.383 95.3427 263.985 95.3427C263.501 95.3427 263.12 95.2302 262.843 95.0053C262.584 94.7631 262.35 94.3998 262.142 93.9153L260.456 89.9966L261.857 90.9049H250.905L252.307 89.9966L250.646 93.9153C250.421 94.4171 250.187 94.7804 249.945 95.0053C249.703 95.2302 249.357 95.3427 248.907 95.3427ZM256.355 80.4463L252.722 89.0883L252.047 88.2578H260.715L260.066 89.0883L256.407 80.4463H256.355ZM269.698 95.3427C269.162 95.3427 268.747 95.1956 268.452 94.9015C268.176 94.5901 268.037 94.1662 268.037 93.6298V78.3441C268.037 77.7905 268.176 77.3666 268.452 77.0725C268.747 76.7784 269.162 76.6313 269.698 76.6313C270.234 76.6313 270.641 76.7784 270.918 77.0725C271.212 77.3666 271.359 77.7905 271.359 78.3441V93.6298C271.359 94.1662 271.221 94.5901 270.944 94.9015C270.667 95.1956 270.252 95.3427 269.698 95.3427ZM286.274 95.3946C285.357 95.3946 284.535 95.2216 283.808 94.8755C283.099 94.5122 282.537 94.0278 282.122 93.4222C281.724 92.8167 281.525 92.1333 281.525 91.372C281.525 90.4378 281.767 89.7024 282.251 89.1661C282.736 88.6125 283.523 88.2145 284.613 87.9723C285.703 87.7301 287.165 87.609 288.999 87.609H290.296V89.4775H289.025C287.952 89.4775 287.096 89.5294 286.456 89.6332C285.815 89.7371 285.357 89.9187 285.08 90.1782C284.821 90.4205 284.691 90.7665 284.691 91.2163C284.691 91.7873 284.89 92.2544 285.288 92.6177C285.686 92.981 286.239 93.1627 286.949 93.1627C287.52 93.1627 288.021 93.0329 288.454 92.7734C288.904 92.4966 289.258 92.1246 289.518 91.6575C289.777 91.1904 289.907 90.654 289.907 90.0485V87.064C289.907 86.1989 289.717 85.5761 289.336 85.1955C288.956 84.8148 288.315 84.6245 287.416 84.6245C286.914 84.6245 286.369 84.6851 285.781 84.8062C285.21 84.9273 284.604 85.1349 283.964 85.429C283.635 85.5847 283.341 85.628 283.082 85.5588C282.84 85.4896 282.649 85.3512 282.511 85.1436C282.372 84.9186 282.303 84.6764 282.303 84.4169C282.303 84.1574 282.372 83.9065 282.511 83.6643C282.649 83.4048 282.883 83.2145 283.212 83.0934C284.007 82.7646 284.769 82.5311 285.495 82.3927C286.239 82.2542 286.914 82.185 287.52 82.185C288.765 82.185 289.786 82.3753 290.582 82.756C291.395 83.1366 292.001 83.7162 292.399 84.4948C292.797 85.256 292.995 86.2422 292.995 87.4533V93.6817C292.995 94.2181 292.866 94.6333 292.606 94.9274C292.347 95.2043 291.975 95.3427 291.49 95.3427C291.006 95.3427 290.625 95.2043 290.348 94.9274C290.089 94.6333 289.959 94.2181 289.959 93.6817V92.4361H290.167C290.046 93.0416 289.803 93.5693 289.44 94.0191C289.094 94.4517 288.653 94.789 288.117 95.0312C287.58 95.2735 286.966 95.3946 286.274 95.3946ZM302.205 100.066C301.271 100.066 300.363 99.9794 299.48 99.8064C298.615 99.6334 297.828 99.3652 297.119 99.0019C296.79 98.8289 296.565 98.6213 296.444 98.379C296.34 98.1368 296.305 97.886 296.34 97.6264C296.392 97.3842 296.496 97.168 296.651 96.9776C296.824 96.7873 297.032 96.6576 297.274 96.5884C297.516 96.5192 297.767 96.5538 298.027 96.6922C298.788 97.0728 299.506 97.315 300.181 97.4188C300.873 97.5399 301.461 97.6005 301.946 97.6005C303.105 97.6005 303.97 97.315 304.541 96.7441C305.129 96.1904 305.423 95.36 305.423 94.2527V91.917H305.657C305.397 92.7994 304.852 93.5087 304.022 94.0451C303.209 94.5641 302.283 94.8236 301.245 94.8236C300.103 94.8236 299.108 94.5641 298.26 94.0451C297.413 93.5087 296.755 92.7648 296.288 91.8132C295.821 90.8616 295.587 89.7544 295.587 88.4914C295.587 87.5398 295.717 86.6834 295.977 85.9221C296.254 85.1436 296.634 84.4775 297.119 83.9238C297.62 83.3702 298.217 82.9463 298.909 82.6522C299.619 82.3407 300.397 82.185 301.245 82.185C302.318 82.185 303.252 82.4532 304.048 82.9895C304.861 83.5086 305.389 84.2006 305.631 85.0657L305.371 85.7145V83.8719C305.371 83.3356 305.51 82.929 305.787 82.6522C306.081 82.3753 306.479 82.2369 306.98 82.2369C307.499 82.2369 307.897 82.3753 308.174 82.6522C308.451 82.929 308.589 83.3356 308.589 83.8719V93.8634C308.589 95.9223 308.044 97.4707 306.954 98.5088C305.864 99.5469 304.281 100.066 302.205 100.066ZM302.127 92.3582C302.802 92.3582 303.382 92.2025 303.866 91.8911C304.351 91.5796 304.722 91.1385 304.982 90.5675C305.259 89.9793 305.397 89.2872 305.397 88.4914C305.397 87.2976 305.103 86.3633 304.515 85.6885C303.927 84.9965 303.131 84.6505 302.127 84.6505C301.453 84.6505 300.873 84.8062 300.389 85.1176C299.904 85.429 299.523 85.8702 299.247 86.4412C298.987 87.0121 298.857 87.6955 298.857 88.4914C298.857 89.6851 299.151 90.6281 299.74 91.3201C300.328 92.0122 301.124 92.3582 302.127 92.3582ZM318.205 95.3946C316.769 95.3946 315.532 95.1264 314.494 94.5901C313.456 94.0537 312.651 93.2925 312.08 92.3063C311.527 91.3201 311.25 90.1523 311.25 88.8028C311.25 87.4879 311.518 86.3373 312.054 85.3512C312.608 84.365 313.361 83.5951 314.312 83.0414C315.281 82.4705 316.38 82.185 317.608 82.185C318.508 82.185 319.312 82.3321 320.022 82.6262C320.748 82.9203 321.362 83.3442 321.864 83.8979C322.383 84.4515 322.772 85.1263 323.032 85.9221C323.309 86.7007 323.447 87.583 323.447 88.5692C323.447 88.8806 323.335 89.1229 323.11 89.2959C322.902 89.4516 322.599 89.5294 322.202 89.5294H313.871V87.6609H321.163L320.748 88.0502C320.748 87.2543 320.627 86.5882 320.385 86.0519C320.16 85.5155 319.823 85.109 319.373 84.8321C318.94 84.538 318.395 84.3909 317.738 84.3909C317.011 84.3909 316.388 84.564 315.869 84.91C315.368 85.2387 314.978 85.7145 314.701 86.3373C314.442 86.9429 314.312 87.6695 314.312 88.5173V88.699C314.312 90.1177 314.641 91.1817 315.298 91.8911C315.973 92.5831 316.959 92.9291 318.257 92.9291C318.707 92.9291 319.208 92.8772 319.762 92.7734C320.333 92.6523 320.869 92.4534 321.371 92.1765C321.734 91.9689 322.054 91.8824 322.331 91.917C322.608 91.9343 322.824 92.0295 322.98 92.2025C323.153 92.3755 323.257 92.5918 323.292 92.8513C323.326 93.0935 323.274 93.3444 323.136 93.6039C323.015 93.8634 322.798 94.0883 322.487 94.2786C321.881 94.6593 321.181 94.9447 320.385 95.1351C319.606 95.3081 318.88 95.3946 318.205 95.3946ZM327.625 95.3427C327.106 95.3427 326.708 95.2043 326.432 94.9274C326.155 94.6333 326.016 94.2181 326.016 93.6817V83.8719C326.016 83.3356 326.155 82.929 326.432 82.6522C326.708 82.3753 327.098 82.2369 327.599 82.2369C328.101 82.2369 328.49 82.3753 328.767 82.6522C329.044 82.929 329.182 83.3356 329.182 83.8719V85.6366L328.897 84.9878C329.278 84.0709 329.866 83.3788 330.662 82.9117C331.475 82.4273 332.392 82.185 333.413 82.185C334.433 82.185 335.272 82.3753 335.93 82.756C336.587 83.1366 337.08 83.7162 337.409 84.4948C337.738 85.256 337.902 86.2249 337.902 87.4014V93.6817C337.902 94.2181 337.764 94.6333 337.487 94.9274C337.21 95.2043 336.812 95.3427 336.293 95.3427C335.774 95.3427 335.368 95.2043 335.074 94.9274C334.797 94.6333 334.658 94.2181 334.658 93.6817V87.5571C334.658 86.5709 334.468 85.8529 334.087 85.4031C333.724 84.9532 333.153 84.7283 332.375 84.7283C331.423 84.7283 330.662 85.0311 330.091 85.6366C329.537 86.2249 329.26 87.0121 329.26 87.9983V93.6817C329.26 94.789 328.715 95.3427 327.625 95.3427ZM347.01 95.3946C345.886 95.3946 344.943 95.2043 344.182 94.8236C343.438 94.443 342.884 93.8894 342.521 93.1627C342.157 92.4188 341.976 91.5018 341.976 90.4118V84.884H340.626C340.211 84.884 339.891 84.7802 339.666 84.5726C339.441 84.3477 339.329 84.0449 339.329 83.6643C339.329 83.2664 339.441 82.9636 339.666 82.756C339.891 82.5484 340.211 82.4446 340.626 82.4446H341.976V80.0829C341.976 79.5466 342.114 79.14 342.391 78.8632C342.685 78.5864 343.092 78.448 343.611 78.448C344.13 78.448 344.528 78.5864 344.804 78.8632C345.081 79.14 345.22 79.5466 345.22 80.0829V82.4446H347.971C348.386 82.4446 348.706 82.5484 348.931 82.756C349.156 82.9636 349.268 83.2664 349.268 83.6643C349.268 84.0449 349.156 84.3477 348.931 84.5726C348.706 84.7802 348.386 84.884 347.971 84.884H345.22V90.2301C345.22 91.0606 345.401 91.6834 345.765 92.0987C346.128 92.5139 346.716 92.7215 347.529 92.7215C347.824 92.7215 348.083 92.6956 348.308 92.6437C348.533 92.5918 348.732 92.5572 348.905 92.5399C349.112 92.5226 349.285 92.5918 349.424 92.7475C349.562 92.8859 349.632 93.18 349.632 93.6298C349.632 93.9759 349.571 94.2873 349.45 94.5641C349.346 94.8236 349.147 95.0053 348.853 95.1091C348.628 95.1783 348.334 95.2389 347.971 95.2908C347.607 95.36 347.287 95.3946 347.01 95.3946ZM355.803 95.3946C355.059 95.3946 354.271 95.3167 353.441 95.161C352.611 95.0053 351.867 94.7371 351.209 94.3565C350.932 94.1835 350.733 93.9845 350.612 93.7596C350.508 93.5174 350.465 93.2838 350.482 93.0589C350.517 92.8167 350.604 92.6091 350.742 92.4361C350.898 92.263 351.088 92.1506 351.313 92.0987C351.555 92.0468 351.815 92.09 352.091 92.2284C352.784 92.5572 353.432 92.7907 354.038 92.9291C354.643 93.0502 355.24 93.1108 355.829 93.1108C356.659 93.1108 357.273 92.9724 357.671 92.6956C358.086 92.4015 358.294 92.0208 358.294 91.5537C358.294 91.1558 358.156 90.853 357.879 90.6454C357.619 90.4205 357.221 90.2561 356.685 90.1523L354.09 89.6592C353.017 89.4516 352.195 89.0623 351.624 88.4914C351.071 87.9031 350.794 87.1505 350.794 86.2335C350.794 85.4031 351.019 84.6851 351.469 84.0795C351.936 83.474 352.576 83.0068 353.389 82.6781C354.202 82.3494 355.137 82.185 356.192 82.185C356.953 82.185 357.663 82.2715 358.32 82.4446C358.995 82.6003 359.643 82.8511 360.266 83.1972C360.526 83.3356 360.699 83.5172 360.785 83.7422C360.889 83.9671 360.915 84.2006 360.863 84.4429C360.811 84.6678 360.708 84.8754 360.552 85.0657C360.396 85.2387 360.197 85.3512 359.955 85.4031C359.73 85.4377 359.47 85.3858 359.176 85.2474C358.64 84.9705 358.121 84.7716 357.619 84.6505C357.135 84.5294 356.668 84.4688 356.218 84.4688C355.37 84.4688 354.739 84.6159 354.323 84.91C353.925 85.2041 353.726 85.5934 353.726 86.0778C353.726 86.4412 353.848 86.7439 354.09 86.9861C354.332 87.2284 354.704 87.3927 355.206 87.4792L357.801 87.9723C358.925 88.1799 359.773 88.5606 360.344 89.1142C360.932 89.6678 361.227 90.4118 361.227 91.3461C361.227 92.6091 360.733 93.6039 359.747 94.3305C358.761 95.0399 357.446 95.3946 355.803 95.3946Z" fill="#DE3091"/>
<defs>
<clipPath id="clip0_352_9974">
<rect width="52.868" height="56.6443" fill="white" transform="translate(6.67773 0.928955)"/>
</clipPath>
</defs>
</svg>
