<svg width="1734" height="561" viewBox="0 0 1734 561" fill="none" xmlns="http://www.w3.org/2000/svg">
<path d="M1066.35 191.654C1063.5 180.246 1053.08 178.144 1045.41 178.144C1033.8 178.161 1024.4 184.5 1024.42 196.062L1024.49 210.436V282.938C1024.49 283.362 1024.55 283.785 1024.65 284.175V286.379C1024.67 297.042 1033.5 309.721 1043.85 310.569C1044.71 310.637 1045.59 310.637 1046.49 310.603C1058.01 310.128 1066.45 297.855 1066.42 286.294L1066.3 256.307V232.066C1066.5 230.676 1066.62 229.32 1066.62 228.032L1066.3 207.826V202.486C1066.3 202.317 1066.26 202.147 1066.25 201.977C1066.37 198.468 1067.1 194.553 1066.37 191.654H1066.35ZM1215.34 191.484C1212.56 180.076 1202.39 177.974 1194.9 177.991C1185.92 178.008 1178.31 182.026 1175.54 189.433C1174.49 192.162 1170.51 193.298 1168.03 191.247C1159.46 184.195 1148.87 179.771 1137.08 179.771C1108.57 179.534 1081.5 203.978 1081.5 240.271C1081.5 276.564 1108.8 299.585 1137.08 299.585C1148.31 299.585 1158.68 295.448 1167.21 288.702C1169.67 286.752 1173.66 288.379 1173.66 291.515C1173.66 312.637 1162.5 318.079 1143.02 318.079C1142.39 318.079 1141.82 318.095 1141.32 318.146C1132.92 317.231 1122.99 315.485 1122.99 315.485C1107.72 314.146 1097.95 320.316 1096.14 329.216H1096.17C1096.01 329.962 1095.91 330.724 1095.84 331.504C1095.08 341.539 1111.18 348.116 1118.34 350.574C1125.5 353.032 1138.21 355.779 1147.6 354.795C1148.04 354.745 1148.4 354.677 1148.7 354.592C1196.18 353.456 1215.46 332.979 1215.46 289.871C1215.46 276.581 1215.68 230.778 1215.69 198.045C1215.69 197.384 1215.66 196.706 1215.61 196.027C1215.69 194.383 1215.68 192.824 1215.35 191.468L1215.34 191.484ZM1149.65 263.783C1136.58 263.783 1125.65 253.815 1125.65 240.288C1125.65 226.761 1136.35 216.081 1149.65 216.081C1162.96 216.081 1174.12 226.761 1174.12 240.288C1174.12 253.815 1162.72 263.783 1149.65 263.783ZM866.994 253.578V225.099C866.994 197.807 850.362 181.212 826.864 181.212C811.998 181.212 801.953 187.992 795.688 195.061C792.84 198.299 786.73 198.045 784.032 194.705C777.006 186.026 766.588 181.212 754.658 181.212C743.492 181.212 734.821 185.789 728.559 191.383C725.845 193.807 720.55 192.451 719.464 189.23C719.43 189.128 719.277 188.925 719.04 188.688C718.327 187.179 717.377 185.84 716.257 184.636C716.172 184.433 716.053 184.28 715.85 184.195C711.981 180.314 706.126 178.161 699.576 178.161C687.969 178.177 678.568 184.517 678.585 196.079L678.636 208.012V253.544C678.636 253.9 678.585 254.239 678.585 254.595L678.636 266.529V267.139C678.636 267.139 678.636 267.156 678.636 267.173L678.721 286.667C678.721 297.33 687.63 310.009 698.032 310.874C698.897 310.942 699.797 310.942 700.696 310.908C712.286 310.434 720.788 298.161 720.754 286.599L720.669 265.393V235.83C720.669 225.625 726.608 218.268 736.586 218.268C746.089 218.268 751.553 224.201 751.553 237.966V254.477C751.553 254.477 751.553 254.544 751.553 254.595V255.866V267.139C751.553 267.309 751.587 267.478 751.604 267.648L751.688 286.651C751.688 297.313 760.597 309.992 771.015 310.857C771.879 310.925 772.78 310.925 773.681 310.891C785.27 310.417 793.772 298.144 793.736 286.582L793.601 255.256V237.983C793.601 223.269 801.44 218.285 809.756 218.285C819.258 218.285 824.726 224.218 824.726 237.983V253.426C824.705 253.815 824.674 254.205 824.674 254.595L824.809 286.651C824.809 297.313 833.787 310.009 844.288 310.857C845.174 310.925 846.069 310.925 846.97 310.891C858.662 310.417 867.216 298.144 867.18 286.582L867.045 254.527C867.045 254.222 867.009 253.934 866.994 253.629V253.578ZM1362.61 277.191C1365.16 285.548 1354.59 292.939 1349.12 296.414C1344.29 299.483 1334.56 305.229 1326.88 307.196C1319.9 309.484 1312.11 310.908 1303.37 310.908C1255.64 310.908 1228.56 283.531 1228.56 244.763C1228.56 205.995 1255.87 178.619 1296.49 178.619C1333.07 178.619 1360.85 206.47 1360.85 245.238V251.917C1360.85 254.781 1358.57 257.104 1355.76 257.104H1278.06C1274.75 257.104 1272.28 260.325 1273.8 263.325C1278.89 273.462 1289.53 277.937 1304.56 277.937C1307.48 277.937 1310.23 278.073 1312.83 278.225C1321.21 277.87 1332.88 271.123 1337.08 268.902C1349.48 264.8 1358.76 268.139 1361.94 275.31C1362.2 275.903 1362.44 276.547 1362.63 277.191H1362.61ZM1270.49 231.66H1311.28C1314.66 231.66 1317.12 228.337 1315.56 225.286C1311.4 217.183 1304.17 212.759 1294.01 212.759C1281.43 212.759 1273.81 219.539 1270.49 231.643V231.66ZM1044.59 122.983C1031.58 123 1021.04 131.544 1021.06 142.054L1021.21 143.461C1021.21 153.157 1031.19 168.854 1042.86 169.617C1043.83 169.668 1044.85 169.685 1045.85 169.651C1058.85 169.21 1068.37 153.903 1068.35 143.393L1068.2 141.986C1068.16 131.476 1057.61 122.983 1044.59 122.983ZM1596.94 200.469C1596.6 192.62 1587.06 186.467 1577.97 184.246L1578 184.043C1575.19 184.043 1572.91 181.771 1572.91 178.957V150.699C1572.91 150.699 1572.9 150.581 1572.9 150.513C1572.93 150.174 1572.96 149.818 1572.96 149.462C1572.96 141.071 1563.54 134.256 1551.94 134.256C1540.33 134.256 1530.91 141.071 1530.91 149.462C1530.91 149.513 1530.91 149.58 1530.91 149.631C1530.86 149.902 1530.85 150.174 1530.85 150.445V178.957C1530.85 181.771 1528.57 184.043 1525.76 184.043V184.162C1516.69 186.212 1506.11 192.637 1505.48 199.96H1505.49C1505.43 200.706 1505.41 201.469 1505.44 202.232C1505.8 210.453 1516.29 216.844 1525.76 218.742V219.166C1528.57 219.166 1530.85 221.438 1530.85 224.252V251.205C1530.69 252.205 1530.59 253.239 1530.59 254.29L1530.73 286.345C1530.73 297.008 1539.68 309.704 1550.15 310.552C1551.02 310.62 1551.94 310.62 1552.84 310.586C1564.5 310.111 1573.03 297.838 1573.02 286.278L1572.88 255.849V219.149C1582.45 218.285 1596.15 211.081 1596.87 202.723H1596.85C1596.92 201.977 1596.94 201.215 1596.91 200.452L1596.94 200.469ZM568.574 120C512.983 120 470 161.752 470 213.962C470 266.173 513.475 308.399 568.574 308.399C623.673 308.399 666.911 266.173 666.911 213.962C666.911 161.989 624.148 120 568.574 120ZM568.574 266.156C538.641 266.156 516.309 243.136 516.309 214.183C516.309 185.23 539.116 162.209 568.574 162.209C598.033 162.209 620.585 185.23 620.585 214.183C620.585 243.136 598.491 266.156 568.574 266.156ZM1005.95 225.116C1005.95 197.841 987.185 181.229 963.92 181.229C950.701 181.229 940.303 185.924 932.92 191.569C930.745 193.231 927.472 192.62 925.81 190.756C925.52 190.332 925.251 189.891 924.977 189.433C924.977 189.433 924.977 189.433 924.977 189.416C921.973 184.382 919.276 178.194 905.818 178.161C894.214 178.177 884.811 184.517 884.827 196.079V199.35V267.122C884.827 267.376 884.863 267.614 884.899 267.851L884.982 286.616C884.982 297.279 893.924 309.976 904.379 310.823C905.243 310.891 906.144 310.891 907.04 310.857C918.68 310.382 927.203 298.109 927.167 286.549L927.084 267.122C927.084 267.122 927.084 267.105 927.084 267.088V235.779C927.084 225.574 936.347 218.454 945.849 218.454C956.303 218.454 963.905 223.913 963.905 237.914V267.088C963.905 267.292 963.941 267.495 963.972 267.699L964.06 286.599C964.06 297.262 972.95 309.942 983.353 310.806C984.218 310.874 985.119 310.874 986.015 310.84C997.587 310.365 1006.07 298.093 1006.06 286.532L1005.97 265.885V225.099L1005.95 225.116ZM1498.21 225.116C1498.21 197.841 1479.44 181.229 1456.18 181.229C1442.96 181.229 1432.56 185.924 1425.18 191.569C1422.18 193.875 1417 191.874 1417 188.077C1417 187.619 1416.22 186.06 1415.08 185.026C1411.25 180.652 1405.07 178.161 1398.06 178.161C1386.45 178.177 1377.05 184.517 1377.07 196.079V199.35V267.122C1377.07 267.376 1377.11 267.614 1377.14 267.851L1377.23 286.616C1377.23 297.279 1386.17 309.976 1396.62 310.823C1397.48 310.891 1398.38 310.891 1399.28 310.857C1410.92 310.382 1419.44 298.109 1419.41 286.549L1419.32 267.122C1419.32 267.122 1419.32 267.105 1419.32 267.088V235.779C1419.32 225.574 1428.59 218.454 1438.09 218.454C1448.55 218.454 1456.15 223.913 1456.15 237.914V267.088C1456.15 267.292 1456.18 267.495 1456.22 267.699L1456.3 286.599C1456.3 297.262 1465.19 309.942 1475.59 310.806C1476.46 310.874 1477.36 310.874 1478.26 310.84C1489.83 310.365 1498.32 298.093 1498.3 286.532L1498.21 265.885V225.099V225.116Z" fill="black"/>
<path d="M190.293 212.265L190.107 212.131C187.518 210.248 183.473 206.479 181.012 204.154C168.88 192.686 153.208 179.437 149.725 162.304C147.404 150.892 155.396 141.92 166.327 140.246C177.869 138.479 187.555 143.313 198.354 146.336C210.453 149.721 226.628 153.168 238.692 148.153C251.889 142.667 255.841 122.063 259.335 109.415C260.808 104.237 262.325 99.0707 263.884 93.9179C268.427 78.5028 276.436 50.3577 295.004 46.9473C304.05 45.7034 309.955 51.011 314.743 57.8515C319.865 65.1672 321.372 71.7541 324.312 79.7863C330.549 96.8239 332.553 121.259 341.899 136.541C343.594 139.323 345.805 141.75 348.412 143.69C360.469 152.564 381.725 147.009 394.491 142.066C398.227 140.61 401.924 139.053 405.576 137.399C414.454 133.358 425.472 127.481 434.747 134.197C438.099 136.624 440.469 141.736 440.73 145.823C442.4 171.971 422.39 192.131 404.433 207.833L396.095 215.045C391.72 218.811 388.414 221.468 385.038 226.304C377.194 237.544 380.83 249.191 384.847 261.019C389.25 273.978 394.691 286.91 395.505 300.758C395.991 309.333 395.274 319.441 389.861 326.509C386.721 330.61 382.103 332.839 377.029 333.329C357.227 335.049 337.732 318.567 322.609 307.592C317.192 303.661 310.774 298.683 304.734 296.359C301.291 295.002 297.558 294.563 293.897 295.088C284.554 296.39 275.899 305.128 268.44 311.081C253.444 323.052 232.709 338.892 212.316 332.554C204.591 330.154 200.507 320.608 200.091 313.218C199.562 305.055 200.797 295.989 202.155 287.91C201.988 287.78 201.548 287.565 201.349 287.499C197.163 286.083 193.712 289.439 190.662 291.591C185.917 294.937 176.775 302.057 170.69 299.455C161.493 295.525 167.788 280.064 168.987 272.905C169.25 271.343 169.772 269.653 169.548 268.095C169.363 266.806 168.829 265.595 168.005 264.591C166.782 263.073 165.083 262.03 163.533 260.769C159.193 257.239 152.907 253.14 150.416 248C149.553 246.219 149.465 243.783 150.276 241.987C153.724 235.005 165.17 234.64 171.77 233.781C177.992 232.972 183.057 233.461 185.05 226.223C185.381 225.022 186.027 223.499 186.444 222.288C187.61 218.897 188.822 215.534 190.293 212.265Z" fill="#F53B9D"/>
<path d="M190.293 212.264C190.82 210.319 193.918 206.323 195.945 205.385C201.305 202.904 204.907 206.443 207.373 210.868C210.916 217.228 211.747 224.471 215.498 230.578C216.183 231.693 218.012 232.671 219.231 233.035C222.389 233.906 225.586 233.919 228.78 234.201C233.391 234.605 239.658 235.41 243.576 237.87C244.822 238.652 245.932 240.027 246.799 241.132C247.374 244.949 247.423 246.854 245.029 250.241C243.299 252.69 241.088 254.63 239.006 256.743C237.689 257.694 237.095 258.077 236.019 259.293C227.077 266.564 228.271 267.878 231.412 278.799C232.354 282.072 232.484 285.077 233.206 288.14L233.423 290.084C233.189 291.425 232.913 293.98 232.359 295.057C229.138 300.703 223.92 299.747 218.771 297.732C216.213 296.911 209.995 292.764 207.598 291.181C205.657 289.9 204.493 288.739 202.155 287.91C201.988 287.78 201.548 287.565 201.349 287.499C197.163 286.083 193.712 289.439 190.662 291.591C185.917 294.937 176.775 302.057 170.69 299.455C161.493 295.525 167.788 280.064 168.987 272.905C169.25 271.343 169.772 269.653 169.548 268.094C169.363 266.806 168.829 265.595 168.005 264.591C166.782 263.073 165.083 262.029 163.533 260.768C159.193 257.238 152.907 253.14 150.416 248C149.553 246.218 149.465 243.782 150.276 241.987C153.724 235.005 165.17 234.639 171.77 233.781C177.992 232.972 183.057 233.461 185.05 226.223C185.381 225.022 186.027 223.499 186.444 222.288C187.61 218.897 188.822 215.534 190.293 212.264Z" fill="#4DC5A0"/>
<path d="M176.637 282.401C184.061 281.975 181.814 291.76 176.272 293.292C175.29 293.322 174.374 293.398 173.497 292.961C169.907 291.173 171.423 286.191 173.825 284.037C174.925 283.051 175.338 282.846 176.637 282.401Z" fill="#26A079"/>
<path d="M220.586 282.407C221.651 282.313 222.12 282.271 223.121 282.7C225.031 283.537 226.54 285.094 227.322 287.036C228.365 289.683 228.044 292.095 225.19 293.119C224.655 293.179 224.116 293.197 223.578 293.172C219.449 292.998 217.877 288.233 218.079 284.692C218.872 283.507 219.403 283.117 220.586 282.407Z" fill="#26A079"/>
<path d="M198.075 211.424C198.882 211.361 199.703 211.392 200.515 211.403C203.787 213.404 203.852 218.58 200.214 220.252C194.687 221.513 194.299 212.686 198.075 211.424Z" fill="#26A079"/>
<path d="M157.734 241.965C159.166 241.891 160.225 241.769 161.536 242.5C163.794 243.758 163.97 245.837 162.792 247.926C162.306 248.26 161.689 248.604 161.176 248.908C156.172 249.808 153.28 244.215 157.734 241.965Z" fill="#26A079"/>
<path d="M237.265 241.788C238.431 241.714 239.313 241.816 240.428 242.144C242.797 244.951 242.474 247.714 238.743 248.916C233.431 249.127 232.353 243.924 237.265 241.788Z" fill="#26A079"/>
<path d="M194.129 263.201C196.889 263.114 195.384 265.867 197.554 267.137C198.361 267.565 199.906 267.503 200.717 267.212C202.811 266.463 201.688 263.705 204.048 263.031C205.437 263.343 205.254 264.961 204.998 266.018C204.83 266.483 204.608 267.025 204.329 267.428C203.359 268.852 201.835 269.793 200.136 270.022C198.442 270.271 196.723 269.79 195.4 268.698C193.823 267.404 192.531 264.974 194.129 263.201Z" fill="black"/>
<path d="M197.849 222.28C199.435 222.176 201.32 222.287 202.151 223.818C203.457 226.223 202.561 228.186 200.434 229.387C199.645 229.452 198.845 229.403 198.052 229.379C195.705 228.029 195.716 227.023 195.788 224.523C196.439 223.384 196.759 222.992 197.849 222.28Z" fill="#26A079"/>
<path d="M215.029 275.583C218.725 275.189 219.338 277.389 219.163 280.522C218.369 281.379 217.999 281.738 216.95 282.24C215.414 282.303 213.985 281.995 213.138 280.556C212.672 279.763 212.564 278.808 212.841 277.93C213.236 276.646 213.918 276.155 215.029 275.583Z" fill="#26A079"/>
<path d="M182.213 275.57C186.186 275.289 186.525 277.259 186.255 280.623C185.473 281.345 184.949 281.663 184.06 282.243C179.363 282.352 178.36 277.735 182.213 275.57Z" fill="#26A079"/>
<path d="M167.269 245.694C171.418 245.653 172.184 249.969 168.579 251.855C167.915 251.941 167.192 251.946 166.572 251.663C165.796 251.304 165.206 250.632 164.947 249.813C164.644 248.894 164.748 247.886 165.234 247.049C165.765 246.134 166.313 245.929 167.269 245.694Z" fill="#26A079"/>
<path d="M229.474 245.697C229.609 245.689 229.744 245.684 229.879 245.68C232.948 245.611 233.121 247.606 233.042 250.065C232.311 251.091 231.996 251.372 230.854 251.879C230.284 251.884 229.862 251.876 229.303 251.728C228.496 251.515 227.818 250.965 227.441 250.216C226.43 248.243 227.688 246.537 229.474 245.697Z" fill="#26A079"/>
<path d="M232.36 295.057C239.795 300.214 237.858 309.422 233.388 315.843C229.555 321.349 221.384 326.107 215.127 321.786C208.679 317.331 211.403 307.278 215.186 302.014C216.293 300.474 217.663 299.183 218.771 297.732C223.92 299.747 229.138 300.703 232.36 295.057Z" fill="#E60C7F"/>
<path d="M233.206 288.141C233.139 286.599 233.126 285.667 233.721 284.188C235.027 280.943 237.816 279.014 241.309 279.021C245.713 279.029 248.959 282.64 248.7 287.026C248.464 291.955 244.658 295.15 239.822 294.645C237.149 294.365 235.772 293.13 234.184 291.115C233.917 290.782 233.663 290.437 233.423 290.084L233.206 288.141Z" fill="#E60C7F"/>
<path d="M239.006 256.743C238.905 259.035 237.855 258.96 236.019 259.293C237.095 258.077 237.688 257.694 239.006 256.743Z" fill="#E60C7F"/>
<path d="M367.504 293.187C375.538 291.987 382.576 301.53 383.542 308.676C384.392 314.972 382.064 321.305 374.995 322.079C370.725 322.122 369.298 321.51 365.766 319.135C357.313 313.456 354.027 294.672 367.504 293.187Z" fill="#E60C7F"/>
<path d="M295.552 58.8081C309.272 57.5971 311.855 78.7999 303.949 86.5294C302.203 88.2382 301.103 88.659 298.771 89.1779C292.592 90.2186 288.412 85.8236 286.683 80.3293C285.04 75.2647 285.512 69.7456 287.992 65.0377C289.793 61.6319 291.919 59.9075 295.552 58.8081Z" fill="#E60C7F"/>
<path d="M423.468 142.215C440.378 141.581 433.857 166.632 417.38 169.295C413.532 169.371 409.413 168.462 407.794 164.39C404.11 155.118 414.414 142.888 423.468 142.215Z" fill="#E60C7F"/>
<path d="M167.822 149.835C185.196 148.781 194.181 171.082 177.692 173.643C160.537 174.248 151.128 152.393 167.822 149.835Z" fill="#E60C7F"/>
<path d="M295.76 93.8584C301.383 92.9472 306.668 96.8209 307.529 102.486C308.392 108.152 304.499 113.438 298.861 114.26C293.287 115.073 288.103 111.21 287.251 105.608C286.399 100.005 290.197 94.7597 295.76 93.8584Z" fill="#E60C7F"/>
<path d="M295.712 119.113C300.496 118.187 305.127 121.32 306.077 126.128C307.028 130.935 303.945 135.613 299.172 136.601C294.356 137.598 289.654 134.46 288.695 129.609C287.735 124.757 290.883 120.047 295.712 119.113Z" fill="#E60C7F"/>
<path d="M283.789 219.371C284.785 219.277 285.661 219.157 286.491 219.817C287.684 220.763 287.75 222.414 288.097 223.784C288.911 227 291.126 229.142 294.364 229.676C298.404 230.343 302.583 229.041 304.3 224.998C305.106 223.35 304.688 220.777 306.41 219.68C307.76 218.819 309.687 219.243 310.416 220.722C311.277 222.467 310.664 224.749 310.135 226.499C307.642 233.255 300.713 236.973 293.776 235.784C290.399 235.246 286.323 232.967 284.429 230.003C282.545 227.057 280.036 221.83 283.789 219.371Z" fill="black"/>
<path d="M397.13 164.423C401.52 163.9 405.504 167.053 406.03 171.47C406.557 175.886 403.428 179.898 399.039 180.435C394.641 180.973 390.643 177.817 390.115 173.391C389.586 168.964 392.73 164.947 397.13 164.423Z" fill="#E60C7F"/>
<path d="M342.352 263.092C346.687 262.855 350.388 266.206 350.607 270.568C350.827 274.932 347.48 278.642 343.145 278.845C338.832 279.048 335.167 275.704 334.949 271.366C334.731 267.027 338.04 263.328 342.352 263.092Z" fill="#E60C7F"/>
<path d="M353.593 279.167C357.799 278.219 361.974 280.87 362.937 285.097C363.9 289.322 361.288 293.538 357.091 294.529C352.866 295.525 348.638 292.875 347.669 288.617C346.698 284.361 349.356 280.121 353.593 279.167Z" fill="#E60C7F"/>
<path d="M250.949 263.366C255.124 262.293 259.372 264.833 260.43 269.036C261.487 273.24 258.952 277.508 254.772 278.562C250.606 279.614 246.38 277.072 245.326 272.883C244.271 268.693 246.787 264.437 250.949 263.366Z" fill="#E60C7F"/>
<path d="M376.359 174.811C380.496 173.921 384.566 176.569 385.458 180.728C386.351 184.888 383.728 188.989 379.596 189.895C375.451 190.805 371.36 188.157 370.465 183.985C369.57 179.813 372.211 175.702 376.359 174.811Z" fill="#E60C7F"/>
<path d="M194.686 166.203C198.847 165.848 202.517 168.925 202.92 173.107C203.323 177.288 200.308 181.017 196.158 181.473C193.428 181.772 190.749 180.572 189.144 178.33C187.54 176.089 187.257 173.152 188.404 170.642C189.551 168.132 191.95 166.437 194.686 166.203Z" fill="#E60C7F"/>
<path d="M212.79 174.666C216.92 174.459 220.428 177.674 220.606 181.83C220.785 185.986 217.567 189.493 213.435 189.646C209.341 189.797 205.894 186.595 205.717 182.478C205.54 178.36 208.699 174.871 212.79 174.666Z" fill="#E60C7F"/>
<path d="M330.498 168.725C344.115 167.823 355.866 178.234 356.703 191.942C357.54 205.649 347.144 217.43 333.519 218.211C319.98 218.989 308.363 208.605 307.531 194.982C306.699 181.359 316.966 169.622 330.498 168.725Z" fill="#FEFEFE"/>
<path d="M332.428 174.041C343.091 174.187 351.618 183.003 351.475 193.734C351.333 204.464 342.576 213.048 331.914 212.908C321.247 212.769 312.713 203.951 312.855 193.216C312.997 182.48 321.761 173.895 332.428 174.041Z" fill="black"/>
<path d="M323.849 180.684C327.12 180.264 330.117 182.571 330.569 185.858C331.022 189.145 328.762 192.186 325.501 192.677C323.36 192.999 321.212 192.139 319.877 190.425C318.541 188.71 318.223 186.406 319.045 184.39C319.867 182.375 321.702 180.959 323.849 180.684Z" fill="#FEFEFE"/>
<path d="M259.573 168.725C273.19 167.823 284.942 178.234 285.778 191.942C286.615 205.649 276.219 217.43 262.595 218.211C249.055 218.989 237.438 208.605 236.606 194.982C235.775 181.359 246.041 169.622 259.573 168.725Z" fill="#FEFEFE"/>
<path d="M261.504 174.041C272.167 174.187 280.693 183.003 280.551 193.734C280.409 204.464 271.652 213.048 260.99 212.908C250.322 212.769 241.788 203.951 241.93 193.216C242.073 182.48 250.837 173.895 261.504 174.041Z" fill="black"/>
<path d="M252.925 180.684C256.195 180.264 259.192 182.571 259.645 185.858C260.098 189.145 257.837 192.186 254.577 192.677C252.436 192.999 250.288 192.139 248.952 190.425C247.617 188.71 247.299 186.406 248.121 184.39C248.943 182.375 250.777 180.959 252.925 180.684Z" fill="#FEFEFE"/>
<path d="M184.81 240.721C190.837 240.322 196.038 244.929 196.408 250.996C196.778 257.063 192.177 262.276 186.147 262.622C180.155 262.966 175.014 258.371 174.646 252.342C174.278 246.313 178.821 241.118 184.81 240.721Z" fill="#FEFEFE"/>
<path d="M185.664 243.074C190.383 243.138 194.157 247.04 194.094 251.789C194.031 256.538 190.156 260.337 185.437 260.275C180.716 260.213 176.939 256.311 177.002 251.56C177.065 246.809 180.943 243.009 185.664 243.074Z" fill="black"/>
<path d="M181.868 246.014C183.315 245.828 184.642 246.849 184.842 248.303C185.042 249.758 184.042 251.104 182.599 251.321C181.651 251.464 180.701 251.083 180.11 250.325C179.519 249.566 179.378 248.546 179.742 247.654C180.106 246.762 180.918 246.136 181.868 246.014Z" fill="#FEFEFE"/>
<path d="M212.115 240.721C218.141 240.322 223.342 244.929 223.712 250.996C224.082 257.063 219.481 262.276 213.452 262.622C207.459 262.966 202.318 258.371 201.95 252.342C201.582 246.313 206.126 241.118 212.115 240.721Z" fill="#FEFEFE"/>
<path d="M212.969 243.074C217.688 243.138 221.462 247.04 221.399 251.789C221.336 256.538 217.46 260.337 212.741 260.275C208.02 260.213 204.244 256.311 204.306 251.56C204.369 246.809 208.248 243.009 212.969 243.074Z" fill="black"/>
<path d="M209.172 246.014C210.619 245.828 211.946 246.849 212.146 248.303C212.347 249.758 211.346 251.104 209.903 251.321C208.956 251.464 208.005 251.083 207.414 250.325C206.823 249.566 206.682 248.546 207.046 247.654C207.41 246.762 208.222 246.136 209.172 246.014Z" fill="#FEFEFE"/>
<path d="M65.569 492.909C63.7151 492.909 62.2087 492.484 61.05 491.635C59.9685 490.785 59.3119 489.665 59.0802 488.274C58.8485 486.807 59.1188 485.184 59.8913 483.407L90.4811 415.617C91.4852 413.377 92.6827 411.793 94.073 410.866C95.5411 409.862 97.2015 409.36 99.0558 409.36C100.832 409.36 102.416 409.862 103.806 410.866C105.274 411.793 106.51 413.377 107.514 415.617L138.22 483.407C139.069 485.184 139.378 486.807 139.147 488.274C138.915 489.742 138.259 490.901 137.177 491.751C136.095 492.523 134.667 492.909 132.89 492.909C130.727 492.909 129.028 492.407 127.792 491.403C126.633 490.321 125.59 488.699 124.663 486.536L117.132 469.038L123.389 473.094H74.491L80.7482 469.038L73.3323 486.536C72.3281 488.777 71.2852 490.399 70.2038 491.403C69.1224 492.407 67.5774 492.909 65.569 492.909ZM98.824 426.394L82.602 464.983L79.5891 461.274H118.29L115.393 464.983L99.0558 426.394H98.824ZM188.464 492.909C186.147 492.909 184.37 492.292 183.134 491.055C181.898 489.742 181.28 487.888 181.28 485.493V441.69C181.28 439.296 181.898 437.48 183.134 436.244C184.37 435.008 186.108 434.39 188.349 434.39C190.589 434.39 192.327 435.008 193.563 436.244C194.798 437.48 195.417 439.296 195.417 441.69V450.15L194.142 446.673C195.687 442.811 198.082 439.759 201.326 437.519C204.571 435.278 208.433 434.158 212.913 434.158C217.471 434.158 221.217 435.24 224.152 437.403C227.088 439.566 229.135 442.888 230.294 447.369H228.672C230.217 443.274 232.766 440.068 236.319 437.75C239.873 435.356 243.966 434.158 248.601 434.158C252.927 434.158 256.48 435.008 259.262 436.708C262.12 438.407 264.244 440.995 265.634 444.472C267.025 447.871 267.72 452.197 267.72 457.45V485.493C267.72 487.888 267.063 489.742 265.75 491.055C264.514 492.292 262.737 492.909 260.42 492.909C258.103 492.909 256.326 492.292 255.09 491.055C253.854 489.742 253.236 487.888 253.236 485.493V458.029C253.236 453.703 252.502 450.536 251.035 448.527C249.644 446.519 247.249 445.514 243.851 445.514C240.066 445.514 237.092 446.866 234.929 449.57C232.766 452.197 231.684 455.866 231.684 460.579V485.493C231.684 487.888 231.066 489.742 229.83 491.055C228.595 492.292 226.817 492.909 224.5 492.909C222.183 492.909 220.368 492.292 219.055 491.055C217.818 489.742 217.2 487.888 217.2 485.493V458.029C217.2 453.703 216.467 450.536 214.999 448.527C213.608 446.519 211.252 445.514 207.931 445.514C204.146 445.514 201.172 446.866 199.009 449.57C196.846 452.197 195.764 455.866 195.764 460.579V485.493C195.764 490.437 193.331 492.909 188.464 492.909ZM310.587 493.141C304.175 493.141 298.652 491.944 294.017 489.549C289.383 487.154 285.791 483.755 283.241 479.351C280.77 474.948 279.534 469.733 279.534 463.708C279.534 457.836 280.731 452.699 283.126 448.296C285.597 443.892 288.958 440.454 293.206 437.982C297.532 435.433 302.437 434.158 307.922 434.158C311.938 434.158 315.531 434.815 318.698 436.128C321.942 437.441 324.685 439.334 326.925 441.806C329.242 444.278 330.98 447.291 332.139 450.845C333.375 454.321 333.993 458.261 333.993 462.665C333.993 464.055 333.491 465.137 332.486 465.909C331.56 466.605 330.208 466.952 328.431 466.952H291.236V458.609H323.796L321.942 460.347C321.942 456.793 321.402 453.819 320.32 451.424C319.316 449.029 317.809 447.214 315.801 445.978C313.87 444.665 311.437 444.008 308.501 444.008C305.257 444.008 302.476 444.781 300.158 446.326C297.918 447.793 296.18 449.918 294.944 452.699C293.785 455.403 293.206 458.647 293.206 462.433V463.244C293.206 469.579 294.674 474.33 297.609 477.497C300.622 480.587 305.025 482.132 310.819 482.132C312.827 482.132 315.067 481.901 317.539 481.437C320.088 480.896 322.483 480.008 324.723 478.772C326.345 477.845 327.774 477.459 329.01 477.613C330.246 477.69 331.212 478.115 331.907 478.888C332.679 479.66 333.143 480.626 333.298 481.785C333.452 482.866 333.22 483.987 332.602 485.145C332.061 486.304 331.096 487.308 329.705 488.158C327.002 489.858 323.873 491.132 320.32 491.983C316.844 492.755 313.599 493.141 310.587 493.141ZM371.192 493.141C366.171 493.141 361.961 492.292 358.562 490.592C355.24 488.892 352.768 486.42 351.146 483.175C349.524 479.854 348.713 475.759 348.713 470.892V446.21H342.688C340.833 446.21 339.405 445.746 338.401 444.819C337.396 443.815 336.894 442.463 336.894 440.763C336.894 438.987 337.396 437.635 338.401 436.708C339.405 435.781 340.833 435.317 342.688 435.317H348.713V424.772C348.713 422.377 349.331 420.562 350.567 419.326C351.88 418.09 353.695 417.472 356.012 417.472C358.33 417.472 360.107 418.09 361.343 419.326C362.579 420.562 363.197 422.377 363.197 424.772V435.317H375.479C377.333 435.317 378.762 435.781 379.766 436.708C380.77 437.635 381.273 438.987 381.273 440.763C381.273 442.463 380.77 443.815 379.766 444.819C378.762 445.746 377.333 446.21 375.479 446.21H363.197V470.081C363.197 473.789 364.008 476.57 365.63 478.424C367.252 480.278 369.878 481.205 373.509 481.205C374.822 481.205 375.981 481.09 376.986 480.858C377.99 480.626 378.878 480.472 379.65 480.395C380.577 480.317 381.35 480.626 381.968 481.321C382.586 481.939 382.895 483.253 382.895 485.261C382.895 486.806 382.624 488.197 382.083 489.433C381.62 490.592 380.732 491.403 379.418 491.866C378.414 492.175 377.101 492.446 375.479 492.678C373.857 492.987 372.428 493.141 371.192 493.141ZM408.362 493.141C404.268 493.141 400.599 492.369 397.354 490.823C394.187 489.201 391.677 487.038 389.822 484.334C388.046 481.63 387.157 478.579 387.157 475.18C387.157 471.008 388.239 467.725 390.402 465.33C392.565 462.858 396.079 461.081 400.946 459.999C405.813 458.918 412.34 458.377 420.528 458.377H426.322V466.72H420.644C415.855 466.72 412.031 466.952 409.173 467.416C406.315 467.88 404.268 468.69 403.032 469.849C401.873 470.931 401.294 472.476 401.294 474.484C401.294 477.034 402.182 479.12 403.959 480.742C405.735 482.364 408.207 483.175 411.374 483.175C413.923 483.175 416.164 482.596 418.095 481.437C420.103 480.201 421.687 478.54 422.845 476.454C424.005 474.369 424.584 471.974 424.584 469.27V455.944C424.584 452.081 423.734 449.3 422.035 447.601C420.335 445.901 417.477 445.051 413.46 445.051C411.22 445.051 408.787 445.321 406.16 445.862C403.611 446.403 400.908 447.33 398.049 448.643C396.582 449.338 395.269 449.532 394.11 449.223C393.028 448.914 392.178 448.296 391.56 447.369C390.943 446.364 390.634 445.283 390.634 444.124C390.634 442.965 390.943 441.845 391.56 440.763C392.178 439.605 393.221 438.755 394.689 438.214C398.243 436.746 401.641 435.703 404.886 435.086C408.207 434.467 411.22 434.158 413.923 434.158C419.485 434.158 424.043 435.008 427.597 436.708C431.227 438.407 433.931 440.995 435.707 444.472C437.484 447.871 438.372 452.274 438.372 457.682V485.493C438.372 487.888 437.793 489.742 436.634 491.055C435.476 492.292 433.815 492.909 431.652 492.909C429.489 492.909 427.789 492.292 426.554 491.055C425.395 489.742 424.815 487.888 424.815 485.493V479.931H425.742C425.202 482.635 424.12 484.991 422.498 486.999C420.953 488.931 418.983 490.437 416.588 491.519C414.194 492.6 411.452 493.141 408.362 493.141ZM458.403 466.72C456.704 466.72 455.275 466.18 454.116 465.098C453.035 463.939 452.494 462.549 452.494 460.926C452.494 459.227 453.035 457.836 454.116 456.755C455.275 455.673 456.704 455.132 458.403 455.132H483.085C484.706 455.132 486.058 455.673 487.139 456.755C488.3 457.836 488.88 459.227 488.88 460.926C488.88 462.549 488.3 463.939 487.139 465.098C486.058 466.18 484.706 466.72 483.085 466.72H458.403ZM510.499 492.909C508.182 492.909 506.405 492.292 505.168 491.055C503.931 489.742 503.315 487.888 503.315 485.493V416.66C503.315 414.266 503.931 412.45 505.168 411.214C506.405 409.978 508.182 409.36 510.499 409.36C512.816 409.36 514.593 409.978 515.83 411.214C517.143 412.45 517.799 414.266 517.799 416.66V446.673H516.178C517.875 442.579 520.5 439.489 524.054 437.403C527.688 435.24 531.778 434.158 536.337 434.158C540.895 434.158 544.641 435.008 547.579 436.708C550.513 438.407 552.714 440.995 554.183 444.472C555.652 447.871 556.384 452.197 556.384 457.45V485.493C556.384 487.888 555.768 489.742 554.531 491.055C553.294 492.292 551.517 492.909 549.2 492.909C546.883 492.909 545.065 492.292 543.753 491.055C542.516 489.742 541.9 487.888 541.9 485.493V458.145C541.9 453.742 541.052 450.536 539.351 448.527C537.73 446.519 535.18 445.514 531.702 445.514C527.456 445.514 524.054 446.866 521.505 449.57C519.036 452.197 517.799 455.712 517.799 460.115V485.493C517.799 490.437 515.366 492.909 510.499 492.909ZM589.749 493.141C585.655 493.141 581.985 492.369 578.744 490.823C575.574 489.201 573.064 487.038 571.212 484.334C569.435 481.63 568.546 478.579 568.546 475.18C568.546 471.008 569.626 467.725 571.792 465.33C573.953 462.858 577.467 461.081 582.333 459.999C587.2 458.918 593.728 458.377 601.916 458.377H607.711V466.72H602.032C597.241 466.72 593.42 466.952 590.562 467.416C587.705 467.88 585.655 468.69 584.418 469.849C583.262 470.931 582.682 472.476 582.682 474.484C582.682 477.034 583.57 479.12 585.347 480.742C587.124 482.364 589.593 483.175 592.763 483.175C595.313 483.175 597.554 482.596 599.483 481.437C601.492 480.201 603.077 478.54 604.233 476.454C605.394 474.369 605.97 471.974 605.97 469.27V455.944C605.97 452.081 605.122 449.3 603.421 447.601C601.724 445.901 598.867 445.051 594.848 445.051C592.607 445.051 590.174 445.321 587.548 445.862C584.999 446.403 582.298 447.33 579.436 448.643C577.971 449.338 576.659 449.532 575.498 449.223C574.417 448.914 573.564 448.296 572.948 447.369C572.332 446.364 572.02 445.283 572.02 444.124C572.02 442.965 572.332 441.845 572.948 440.763C573.564 439.605 574.609 438.755 576.078 438.214C579.632 436.746 583.03 435.703 586.276 435.086C589.593 434.467 592.607 434.158 595.313 434.158C600.871 434.158 605.43 435.008 608.984 436.708C612.614 438.407 615.319 440.995 617.096 444.472C618.873 447.871 619.762 452.274 619.762 457.682V485.493C619.762 487.888 619.182 489.742 618.021 491.055C616.864 492.292 615.203 492.909 613.038 492.909C610.877 492.909 609.176 492.292 607.944 491.055C606.783 489.742 606.202 487.888 606.202 485.493V479.931H607.131C606.591 482.635 605.51 484.991 603.885 486.999C602.34 488.931 600.371 490.437 597.978 491.519C595.58 492.6 592.839 493.141 589.749 493.141ZM641.876 492.909C639.483 492.909 637.63 492.292 636.318 491.055C635.081 489.742 634.46 487.888 634.46 485.493V441.69C634.46 439.296 635.081 437.48 636.318 436.244C637.55 435.008 639.291 434.39 641.528 434.39C643.769 434.39 645.506 435.008 646.743 436.244C647.98 437.48 648.596 439.296 648.596 441.69V448.991H647.439C648.52 444.356 650.645 440.841 653.811 438.446C656.981 436.051 661.191 434.622 666.442 434.158C668.062 434.004 669.339 434.429 670.264 435.433C671.268 436.36 671.849 437.828 672.005 439.836C672.157 441.768 671.697 443.351 670.612 444.587C669.607 445.746 668.062 446.441 665.977 446.673L663.428 446.905C658.717 447.369 655.163 448.836 652.77 451.308C650.373 453.703 649.176 457.102 649.176 461.506V485.493C649.176 487.888 648.56 489.742 647.323 491.055C646.087 492.292 644.274 492.909 641.876 492.909ZM687.02 492.909C684.703 492.909 682.926 492.292 681.689 491.055C680.457 489.742 679.836 487.888 679.836 485.493V441.69C679.836 439.296 680.457 437.48 681.689 436.244C682.926 435.008 684.663 434.39 686.904 434.39C689.145 434.39 690.882 435.008 692.119 436.244C693.356 437.48 693.972 439.296 693.972 441.69V449.57L692.699 446.673C694.396 442.579 697.026 439.489 700.58 437.403C704.21 435.24 708.304 434.158 712.858 434.158C717.417 434.158 721.163 435.008 724.1 436.708C727.034 438.407 729.235 440.995 730.704 444.472C732.173 447.871 732.905 452.197 732.905 457.45V485.493C732.905 487.888 732.289 489.742 731.052 491.055C729.815 492.292 728.038 492.909 725.721 492.909C723.404 492.909 721.587 492.292 720.274 491.055C719.042 489.742 718.421 487.888 718.421 485.493V458.145C718.421 453.742 717.573 450.536 715.872 448.527C714.251 446.519 711.702 445.514 708.223 445.514C703.977 445.514 700.58 446.866 698.03 449.57C695.557 452.197 694.32 455.712 694.32 460.115V485.493C694.32 490.437 691.887 492.909 687.02 492.909ZM775.54 493.141C769.128 493.141 763.605 491.944 758.971 489.549C754.336 487.154 750.746 483.755 748.197 479.351C745.723 474.948 744.487 469.733 744.487 463.708C744.487 457.836 745.683 452.699 748.081 448.296C750.55 443.892 753.912 440.454 758.162 437.982C762.484 435.433 767.391 434.158 772.879 434.158C776.892 434.158 780.487 434.815 783.652 436.128C786.898 437.441 789.639 439.334 791.881 441.806C794.198 444.278 795.935 447.291 797.091 450.845C798.328 454.321 798.949 458.261 798.949 462.665C798.949 464.055 798.444 465.137 797.439 465.909C796.515 466.605 795.162 466.952 793.385 466.952H756.189V458.609H788.751L786.898 460.347C786.898 456.793 786.358 453.819 785.273 451.424C784.268 449.029 782.764 447.214 780.754 445.978C778.826 444.665 776.392 444.008 773.454 444.008C770.213 444.008 767.431 444.781 765.114 446.326C762.873 447.793 761.136 449.918 759.899 452.699C758.738 455.403 758.162 458.647 758.162 462.433V463.244C758.162 469.579 759.627 474.33 762.565 477.497C765.579 480.587 769.981 482.132 775.772 482.132C777.781 482.132 780.022 481.901 782.496 481.437C785.041 480.896 787.438 480.008 789.68 478.772C791.3 477.845 792.729 477.459 793.966 477.613C795.203 477.69 796.167 478.115 796.864 478.888C797.636 479.66 798.096 480.626 798.252 481.785C798.408 482.866 798.176 483.987 797.556 485.145C797.015 486.304 796.051 487.308 794.658 488.158C791.957 489.858 788.827 491.132 785.273 491.983C781.799 492.755 778.553 493.141 775.54 493.141ZM831.158 493.141C827.836 493.141 824.322 492.793 820.616 492.098C816.906 491.403 813.584 490.205 810.651 488.506C809.414 487.733 808.526 486.845 807.985 485.841C807.521 484.759 807.329 483.716 807.405 482.712C807.561 481.63 807.945 480.703 808.566 479.931C809.258 479.158 810.111 478.656 811.111 478.424C812.196 478.193 813.352 478.386 814.589 479.004C817.679 480.472 820.576 481.514 823.277 482.132C825.983 482.673 828.649 482.944 831.274 482.944C834.984 482.944 837.726 482.326 839.503 481.09C841.355 479.777 842.284 478.077 842.284 475.991C842.284 474.214 841.664 472.862 840.427 471.935C839.27 470.931 837.493 470.197 835.1 469.733L823.51 467.532C818.723 466.605 815.053 464.866 812.504 462.317C810.03 459.69 808.794 456.33 808.794 452.235C808.794 448.527 809.798 445.321 811.807 442.617C813.892 439.914 816.75 437.828 820.384 436.36C824.014 434.892 828.184 434.158 832.895 434.158C836.297 434.158 839.462 434.544 842.396 435.317C845.41 436.012 848.307 437.132 851.089 438.678C852.245 439.296 853.018 440.107 853.406 441.111C853.87 442.115 853.986 443.158 853.754 444.24C853.522 445.244 853.058 446.171 852.361 447.021C851.669 447.793 850.781 448.296 849.696 448.527C848.696 448.682 847.535 448.45 846.222 447.832C843.829 446.596 841.512 445.708 839.27 445.167C837.105 444.626 835.02 444.356 833.011 444.356C829.229 444.356 826.407 445.012 824.554 446.326C822.777 447.639 821.889 449.377 821.889 451.54C821.889 453.163 822.429 454.514 823.51 455.596C824.595 456.678 826.255 457.411 828.492 457.798L840.079 459.999C845.101 460.926 848.888 462.626 851.437 465.098C854.062 467.57 855.375 470.892 855.375 475.064C855.375 480.703 853.174 485.145 848.772 488.39C844.369 491.557 838.498 493.141 831.158 493.141ZM887.736 493.141C884.414 493.141 880.9 492.793 877.19 492.098C873.484 491.403 870.163 490.205 867.225 488.506C865.992 487.733 865.104 486.845 864.564 485.841C864.099 484.759 863.907 483.716 863.983 482.712C864.135 481.63 864.523 480.703 865.14 479.931C865.836 479.158 866.684 478.656 867.689 478.424C868.774 478.193 869.93 478.386 871.167 479.004C874.257 480.472 877.154 481.514 879.856 482.132C882.561 482.673 885.227 482.944 887.852 482.944C891.558 482.944 894.304 482.326 896.081 481.09C897.934 479.777 898.858 478.077 898.858 475.991C898.858 474.214 898.242 472.862 897.005 471.935C895.849 470.931 894.072 470.197 891.674 469.733L880.088 467.532C875.297 466.605 871.631 464.866 869.082 462.317C866.609 459.69 865.372 456.33 865.372 452.235C865.372 448.527 866.376 445.321 868.386 442.617C870.471 439.914 873.328 437.828 876.958 436.36C880.592 434.892 884.762 434.158 889.473 434.158C892.875 434.158 896.041 434.544 898.974 435.317C901.988 436.012 904.885 437.132 907.667 438.678C908.823 439.296 909.596 440.107 909.984 441.111C910.449 442.115 910.565 443.158 910.332 444.24C910.1 445.244 909.636 446.171 908.939 447.021C908.243 447.793 907.359 448.296 906.274 448.527C905.269 448.682 904.113 448.45 902.8 447.832C900.403 446.596 898.085 445.708 895.849 445.167C893.683 444.626 891.598 444.356 889.589 444.356C885.803 444.356 882.985 445.012 881.133 446.326C879.356 447.639 878.467 449.377 878.467 451.54C878.467 453.163 879.007 454.514 880.088 455.596C881.168 456.678 882.829 457.411 885.071 457.798L896.657 459.999C901.68 460.926 905.466 462.626 908.015 465.098C910.641 467.57 911.953 470.892 911.953 475.064C911.953 480.703 909.752 485.145 905.35 488.39C900.947 491.557 895.076 493.141 887.736 493.141ZM966.152 492.909C963.834 492.909 962.022 492.292 960.709 491.055C959.472 489.742 958.852 487.888 958.852 485.493V446.21H953.525C951.668 446.21 950.239 445.746 949.234 444.819C948.23 443.815 947.73 442.463 947.73 440.763C947.73 438.987 948.23 437.635 949.234 436.708C950.239 435.781 951.668 435.317 953.525 435.317H963.026L958.852 439.141V435.201C958.852 427.244 960.861 421.296 964.879 417.356C968.898 413.338 974.688 410.982 982.261 410.287L986.199 409.939C987.744 409.785 988.98 410.055 989.909 410.75C990.833 411.369 991.454 412.218 991.762 413.3C992.07 414.304 992.11 415.347 991.878 416.429C991.646 417.51 991.141 418.476 990.369 419.326C989.677 420.098 988.748 420.523 987.587 420.6L985.967 420.716C981.564 421.025 978.359 422.145 976.349 424.077C974.34 426.008 973.336 428.944 973.336 432.884V437.171L971.483 435.317H983.185C985.042 435.317 986.471 435.781 987.476 436.708C988.476 437.635 988.98 438.987 988.98 440.763C988.98 442.463 988.476 443.815 987.476 444.819C986.471 445.746 985.042 446.21 983.185 446.21H973.336V485.493C973.336 490.437 970.942 492.909 966.152 492.909ZM1021.6 493.141C1015.73 493.141 1010.63 491.944 1006.31 489.549C1001.98 487.154 998.624 483.755 996.231 479.351C993.834 474.871 992.637 469.617 992.637 463.592C992.637 459.034 993.293 454.978 994.606 451.424C995.999 447.793 997.968 444.703 1000.52 442.154C1003.07 439.527 1006.12 437.557 1009.67 436.244C1013.22 434.853 1017.2 434.158 1021.6 434.158C1027.48 434.158 1032.57 435.356 1036.9 437.75C1041.23 440.145 1044.59 443.544 1046.98 447.948C1049.38 452.351 1050.57 457.566 1050.57 463.592C1050.57 468.15 1049.88 472.244 1048.49 475.875C1047.17 479.506 1045.24 482.635 1042.69 485.261C1040.14 487.811 1037.09 489.781 1033.54 491.171C1029.99 492.484 1026.01 493.141 1021.6 493.141ZM1021.6 482.132C1024.46 482.132 1026.97 481.437 1029.14 480.047C1031.3 478.656 1032.96 476.609 1034.12 473.905C1035.36 471.124 1035.97 467.686 1035.97 463.592C1035.97 457.411 1034.66 452.815 1032.03 449.802C1029.4 446.712 1025.93 445.167 1021.6 445.167C1018.75 445.167 1016.24 445.862 1014.07 447.253C1011.91 448.566 1010.21 450.613 1008.97 453.395C1007.82 456.098 1007.24 459.498 1007.24 463.592C1007.24 469.695 1008.55 474.33 1011.17 477.497C1013.8 480.587 1017.28 482.132 1021.6 482.132ZM1069.94 492.909C1067.55 492.909 1065.69 492.292 1064.38 491.055C1063.15 489.742 1062.53 487.888 1062.53 485.493V441.69C1062.53 439.296 1063.15 437.48 1064.38 436.244C1065.62 435.008 1067.36 434.39 1069.6 434.39C1071.83 434.39 1073.58 435.008 1074.81 436.244C1076.04 437.48 1076.66 439.296 1076.66 441.69V448.991H1075.5C1076.58 444.356 1078.71 440.841 1081.88 438.446C1085.05 436.051 1089.26 434.622 1094.51 434.158C1096.13 434.004 1097.4 434.429 1098.33 435.433C1099.34 436.36 1099.91 437.828 1100.07 439.836C1100.23 441.768 1099.76 443.351 1098.68 444.587C1097.68 445.746 1096.13 446.441 1094.04 446.673L1091.49 446.905C1086.78 447.369 1083.23 448.836 1080.84 451.308C1078.44 453.703 1077.24 457.102 1077.24 461.506V485.493C1077.24 487.888 1076.62 489.742 1075.39 491.055C1074.15 492.292 1072.34 492.909 1069.94 492.909ZM1141.56 492.909C1139.71 492.909 1138.2 492.484 1137.04 491.635C1135.96 490.785 1135.31 489.665 1135.07 488.274C1134.84 486.807 1135.11 485.184 1135.88 483.407L1166.47 415.617C1167.48 413.377 1168.68 411.793 1170.06 410.866C1171.53 409.862 1173.19 409.36 1175.05 409.36C1176.82 409.36 1178.41 409.862 1179.8 410.866C1181.27 411.793 1182.5 413.377 1183.51 415.617L1214.21 483.407C1215.06 485.184 1215.37 486.807 1215.14 488.274C1214.91 489.742 1214.25 490.901 1213.17 491.751C1212.09 492.523 1210.66 492.909 1208.88 492.909C1206.72 492.909 1205.02 492.407 1203.78 491.403C1202.63 490.321 1201.58 488.699 1200.65 486.536L1193.13 469.038L1199.38 473.094H1150.48L1156.74 469.038L1149.33 486.536C1148.32 488.777 1147.28 490.399 1146.2 491.403C1145.12 492.407 1143.57 492.909 1141.56 492.909ZM1174.82 426.394L1158.59 464.983L1155.58 461.274H1194.28L1191.38 464.983L1175.05 426.394H1174.82ZM1234.39 492.909C1232 492.909 1230.14 492.253 1228.83 490.939C1227.59 489.549 1226.97 487.656 1226.97 485.261V417.008C1226.97 414.536 1227.59 412.643 1228.83 411.33C1230.14 410.017 1232 409.36 1234.39 409.36C1236.78 409.36 1238.6 410.017 1239.84 411.33C1241.15 412.643 1241.81 414.536 1241.81 417.008V485.261C1241.81 487.656 1241.19 489.549 1239.95 490.939C1238.72 492.253 1236.86 492.909 1234.39 492.909ZM1308.4 493.141C1304.3 493.141 1300.63 492.369 1297.39 490.823C1294.22 489.201 1291.71 487.038 1289.86 484.334C1288.08 481.63 1287.19 478.579 1287.19 475.18C1287.19 471.008 1288.28 467.725 1290.44 465.33C1292.6 462.858 1296.12 461.081 1300.98 459.999C1305.85 458.918 1312.38 458.377 1320.56 458.377H1326.36V466.72H1320.68C1315.89 466.72 1312.07 466.952 1309.21 467.416C1306.35 467.88 1304.3 468.69 1303.07 469.849C1301.91 470.931 1301.33 472.476 1301.33 474.484C1301.33 477.034 1302.22 479.12 1304 480.742C1305.77 482.364 1308.24 483.175 1311.41 483.175C1313.96 483.175 1316.2 482.596 1318.13 481.437C1320.14 480.201 1321.72 478.54 1322.88 476.454C1324.04 474.369 1324.62 471.974 1324.62 469.27V455.944C1324.62 452.081 1323.77 449.3 1322.07 447.601C1320.37 445.901 1317.51 445.051 1313.5 445.051C1311.26 445.051 1308.82 445.321 1306.2 445.862C1303.65 446.403 1300.94 447.33 1298.08 448.643C1296.62 449.338 1295.3 449.532 1294.15 449.223C1293.07 448.914 1292.21 448.296 1291.6 447.369C1290.98 446.364 1290.67 445.283 1290.67 444.124C1290.67 442.965 1290.98 441.845 1291.6 440.763C1292.21 439.605 1293.26 438.755 1294.73 438.214C1298.28 436.746 1301.68 435.703 1304.92 435.086C1308.24 434.467 1311.26 434.158 1313.96 434.158C1319.52 434.158 1324.08 435.008 1327.63 436.708C1331.26 438.407 1333.97 440.995 1335.75 444.472C1337.52 447.871 1338.41 452.274 1338.41 457.682V485.493C1338.41 487.888 1337.83 489.742 1336.67 491.055C1335.51 492.292 1333.85 492.909 1331.69 492.909C1329.53 492.909 1327.82 492.292 1326.59 491.055C1325.43 489.742 1324.85 487.888 1324.85 485.493V479.931H1325.78C1325.24 482.635 1324.15 484.991 1322.53 486.999C1320.99 488.931 1319.02 490.437 1316.63 491.519C1314.23 492.6 1311.49 493.141 1308.4 493.141ZM1379.53 514C1375.36 514 1371.3 513.613 1367.36 512.841C1363.5 512.068 1359.98 510.871 1356.82 509.248C1355.35 508.476 1354.35 507.549 1353.81 506.467C1353.34 505.386 1353.18 504.266 1353.34 503.107C1353.57 502.025 1354.04 501.06 1354.73 500.21C1355.5 499.36 1356.43 498.781 1357.51 498.472C1358.59 498.163 1359.71 498.317 1360.87 498.935C1364.27 500.635 1367.48 501.716 1370.49 502.18C1373.58 502.72 1376.21 502.991 1378.37 502.991C1383.55 502.991 1387.41 501.716 1389.96 499.167C1392.58 496.695 1393.89 492.987 1393.89 488.042V477.613H1394.94C1393.78 481.553 1391.35 484.72 1387.64 487.115C1384.01 489.433 1379.88 490.592 1375.24 490.592C1370.14 490.592 1365.7 489.433 1361.91 487.115C1358.13 484.72 1355.19 481.399 1353.11 477.15C1351.02 472.901 1349.98 467.957 1349.98 462.317C1349.98 458.068 1350.56 454.244 1351.72 450.845C1352.96 447.369 1354.65 444.394 1356.82 441.922C1359.06 439.45 1361.72 437.557 1364.81 436.244C1367.98 434.853 1371.45 434.158 1375.24 434.158C1380.03 434.158 1384.2 435.356 1387.76 437.75C1391.39 440.068 1393.74 443.158 1394.82 447.021L1393.66 449.918V441.69C1393.66 439.296 1394.28 437.48 1395.52 436.244C1396.83 435.008 1398.61 434.39 1400.85 434.39C1403.16 434.39 1404.94 435.008 1406.18 436.244C1407.41 437.48 1408.03 439.296 1408.03 441.69V486.304C1408.03 495.498 1405.6 502.411 1400.73 507.047C1395.86 511.682 1388.8 514 1379.53 514ZM1379.18 479.583C1382.19 479.583 1384.78 478.888 1386.94 477.497C1389.11 476.107 1390.77 474.137 1391.93 471.587C1393.16 468.961 1393.78 465.871 1393.78 462.317C1393.78 456.987 1392.47 452.815 1389.84 449.802C1387.22 446.712 1383.66 445.167 1379.18 445.167C1376.17 445.167 1373.58 445.862 1371.42 447.253C1369.25 448.643 1367.55 450.613 1366.32 453.163C1365.16 455.712 1364.58 458.763 1364.58 462.317C1364.58 467.647 1365.89 471.858 1368.52 474.948C1371.15 478.038 1374.7 479.583 1379.18 479.583ZM1450.96 493.141C1444.55 493.141 1439.03 491.944 1434.4 489.549C1429.76 487.154 1426.17 483.755 1423.62 479.351C1421.15 474.948 1419.91 469.733 1419.91 463.708C1419.91 457.836 1421.11 452.699 1423.5 448.296C1425.97 443.892 1429.34 440.454 1433.58 437.982C1437.91 435.433 1442.82 434.158 1448.3 434.158C1452.32 434.158 1455.91 434.815 1459.08 436.128C1462.32 437.441 1465.06 439.334 1467.3 441.806C1469.62 444.278 1471.36 447.291 1472.52 450.845C1473.75 454.321 1474.37 458.261 1474.37 462.665C1474.37 464.055 1473.87 465.137 1472.86 465.909C1471.94 466.605 1470.58 466.952 1468.81 466.952H1431.61V458.609H1464.17L1462.32 460.347C1462.32 456.793 1461.78 453.819 1460.7 451.424C1459.69 449.029 1458.19 447.214 1456.18 445.978C1454.25 444.665 1451.81 444.008 1448.88 444.008C1445.63 444.008 1442.85 444.781 1440.53 446.326C1438.3 447.793 1436.56 449.918 1435.32 452.699C1434.16 455.403 1433.58 458.647 1433.58 462.433V463.244C1433.58 469.579 1435.05 474.33 1437.99 477.497C1441 480.587 1445.4 482.132 1451.2 482.132C1453.21 482.132 1455.44 481.901 1457.92 481.437C1460.47 480.896 1462.86 480.008 1465.1 478.772C1466.72 477.845 1468.15 477.459 1469.39 477.613C1470.62 477.69 1471.59 478.115 1472.28 478.888C1473.06 479.66 1473.52 480.626 1473.68 481.785C1473.83 482.866 1473.6 483.987 1472.98 485.145C1472.44 486.304 1471.47 487.308 1470.08 488.158C1467.38 489.858 1464.25 491.132 1460.7 491.983C1457.22 492.755 1453.98 493.141 1450.96 493.141ZM1493.02 492.909C1490.71 492.909 1488.93 492.292 1487.7 491.055C1486.46 489.742 1485.84 487.888 1485.84 485.493V441.69C1485.84 439.296 1486.46 437.48 1487.7 436.244C1488.93 435.008 1490.67 434.39 1492.91 434.39C1495.15 434.39 1496.88 435.008 1498.12 436.244C1499.36 437.48 1499.97 439.296 1499.97 441.69V449.57L1498.7 446.673C1500.4 442.579 1503.03 439.489 1506.58 437.403C1510.21 435.24 1514.31 434.158 1518.87 434.158C1523.42 434.158 1527.17 435.008 1530.1 436.708C1533.04 438.407 1535.24 440.995 1536.71 444.472C1538.18 447.871 1538.91 452.197 1538.91 457.45V485.493C1538.91 487.888 1538.29 489.742 1537.05 491.055C1535.82 492.292 1534.04 492.909 1531.72 492.909C1529.41 492.909 1527.59 492.292 1526.28 491.055C1525.04 489.742 1524.42 487.888 1524.42 485.493V458.145C1524.42 453.742 1523.58 450.536 1521.87 448.527C1520.25 446.519 1517.7 445.514 1514.23 445.514C1509.98 445.514 1506.58 446.866 1504.03 449.57C1501.56 452.197 1500.32 455.712 1500.32 460.115V485.493C1500.32 490.437 1497.89 492.909 1493.02 492.909ZM1579.57 493.141C1574.56 493.141 1570.34 492.292 1566.95 490.592C1563.63 488.892 1561.15 486.42 1559.53 483.175C1557.91 479.854 1557.1 475.759 1557.1 470.892V446.21H1551.07C1549.22 446.21 1547.79 445.746 1546.78 444.819C1545.78 443.815 1545.28 442.463 1545.28 440.763C1545.28 438.987 1545.78 437.635 1546.78 436.708C1547.79 435.781 1549.22 435.317 1551.07 435.317H1557.1V424.772C1557.1 422.377 1557.71 420.562 1558.95 419.326C1560.26 418.09 1562.08 417.472 1564.4 417.472C1566.71 417.472 1568.49 418.09 1569.72 419.326C1570.96 420.562 1571.58 422.377 1571.58 424.772V435.317H1583.86C1585.72 435.317 1587.15 435.781 1588.15 436.708C1589.16 437.635 1589.66 438.987 1589.66 440.763C1589.66 442.463 1589.16 443.815 1588.15 444.819C1587.15 445.746 1585.72 446.21 1583.86 446.21H1571.58V470.081C1571.58 473.789 1572.39 476.57 1574.01 478.424C1575.64 480.278 1578.26 481.205 1581.89 481.205C1583.21 481.205 1584.36 481.09 1585.37 480.858C1586.37 480.626 1587.26 480.472 1588.03 480.395C1588.96 480.317 1589.73 480.626 1590.35 481.321C1590.97 481.939 1591.28 483.253 1591.28 485.261C1591.28 486.806 1591.01 488.197 1590.47 489.433C1590 490.592 1589.11 491.403 1587.8 491.866C1586.8 492.175 1585.48 492.446 1583.86 492.678C1582.24 492.987 1580.81 493.141 1579.57 493.141ZM1618.83 493.141C1615.51 493.141 1611.99 492.793 1608.29 492.098C1604.58 491.403 1601.26 490.205 1598.32 488.506C1597.08 487.733 1596.2 486.845 1595.66 485.841C1595.19 484.759 1595 483.716 1595.08 482.712C1595.23 481.63 1595.62 480.703 1596.24 479.931C1596.93 479.158 1597.78 478.656 1598.79 478.424C1599.87 478.193 1601.03 478.386 1602.26 479.004C1605.35 480.472 1608.25 481.514 1610.95 482.132C1613.65 482.673 1616.32 482.944 1618.95 482.944C1622.65 482.944 1625.4 482.326 1627.17 481.09C1629.03 479.777 1629.95 478.077 1629.95 475.991C1629.95 474.214 1629.34 472.862 1628.1 471.935C1626.94 470.931 1625.16 470.197 1622.77 469.733L1611.18 467.532C1606.39 466.605 1602.72 464.866 1600.17 462.317C1597.71 459.69 1596.47 456.33 1596.47 452.235C1596.47 448.527 1597.47 445.321 1599.48 442.617C1601.57 439.914 1604.42 437.828 1608.05 436.36C1611.68 434.892 1615.86 434.158 1620.57 434.158C1623.97 434.158 1627.14 434.544 1630.07 435.317C1633.08 436.012 1635.98 437.132 1638.76 438.678C1639.92 439.296 1640.69 440.107 1641.08 441.111C1641.54 442.115 1641.66 443.158 1641.42 444.24C1641.19 445.244 1640.73 446.171 1640.04 447.021C1639.34 447.793 1638.45 448.296 1637.37 448.527C1636.37 448.682 1635.21 448.45 1633.89 447.832C1631.5 446.596 1629.18 445.708 1626.94 445.167C1624.78 444.626 1622.69 444.356 1620.69 444.356C1616.9 444.356 1614.08 445.012 1612.22 446.326C1610.45 447.639 1609.56 449.377 1609.56 451.54C1609.56 453.163 1610.1 454.514 1611.18 455.596C1612.26 456.678 1613.93 457.411 1616.17 457.798L1627.75 459.999C1632.77 460.926 1636.56 462.626 1639.11 465.098C1641.73 467.57 1643.05 470.892 1643.05 475.064C1643.05 480.703 1640.84 485.145 1636.44 488.39C1632.04 491.557 1626.17 493.141 1618.83 493.141Z" fill="#DE3091"/>
</svg>
