<svg width="231" height="102" viewBox="0 0 231 102" fill="none" xmlns="http://www.w3.org/2000/svg">
<path d="M115.406 28.0375C110.179 28.1801 107.133 34.3238 103.985 37.961C101.733 40.773 99.0534 43.3201 96.058 45.3578C89.2624 49.9731 81.6109 52.8768 73.7454 55.3221C69.2727 56.7586 63.7608 58.348 61.285 62.5456C58.5851 67.0591 61.8555 72.1533 66.9396 72.734C71.4734 73.4269 76.3231 71.8986 80.6837 70.5435C91.351 67.0693 102.018 62.4947 110.587 55.0877C115.773 50.5029 120.622 44.5427 121.376 37.4618C121.886 33.366 119.94 28.1598 115.559 28.0375H115.416H115.406Z" fill="#F43BA6"/>
<path d="M114.948 34.8942C110.424 35.2712 108.784 40.722 109.68 44.8483C110.984 51.3383 115.854 56.6567 121.03 60.5283C129.344 66.6005 139.665 69.2903 149.904 70.3906C155.854 70.8593 162.497 71.7151 168.09 69.2903C171.921 67.65 174.04 63.3912 171.891 59.7234C167.734 53.4168 158.635 55.0265 152.064 54.0688C145.064 53.3251 137.78 51.7357 131.972 47.915C129.619 46.3562 127.622 44.4 125.737 42.3114C122.894 39.2345 119.41 34.6497 115.09 34.8739H114.948V34.8942Z" fill="#DE3091"/>
<mask id="mask0_82_6601" style="mask-type:alpha" maskUnits="userSpaceOnUse" x="109" y="34" width="64" height="37">
<path d="M114.948 34.8942C110.424 35.2711 108.784 40.7219 109.68 44.8482C110.984 51.3383 115.854 56.6566 121.03 60.5282C129.344 66.6005 139.665 69.2902 149.904 70.3906C155.854 70.8592 162.497 71.7151 168.09 69.2902C171.921 67.6499 174.04 63.3911 171.891 59.7233C167.734 53.4167 158.635 55.0265 152.064 54.0687C145.064 53.325 137.78 51.7356 131.972 47.915C129.619 46.3561 127.622 44.4 125.737 42.3113C122.894 39.2344 119.41 34.6496 115.09 34.8738H114.948V34.8942Z" fill="#DE3091"/>
</mask>
<g mask="url(#mask0_82_6601)">
<g filter="url(#filter0_d_82_6601)">
<path d="M115.406 28.0375C110.179 28.1802 107.133 34.3238 103.985 37.961C101.733 40.773 99.0534 43.3201 96.058 45.3578C89.2624 49.9732 81.6109 52.8769 73.7454 55.3221C69.2727 56.7587 63.7608 58.348 61.285 62.5457C58.5851 67.0591 61.8555 72.1533 66.9396 72.7341C71.4734 73.4269 76.3231 71.8986 80.6837 70.5436C91.351 67.0693 102.018 62.4947 110.587 55.0878C115.773 50.503 120.622 44.5428 121.376 37.4618C121.886 33.3661 119.94 28.1598 115.559 28.0375H115.416H115.406Z" fill="#F43BA6"/>
</g>
</g>
<path d="M127.076 20.1109L133.433 15.0269" stroke="white" stroke-width="4.07536" stroke-miterlimit="10" stroke-linecap="round"/>
<path d="M103.378 20.1109L97.02 15.0269" stroke="white" stroke-width="4.07536" stroke-miterlimit="10" stroke-linecap="round"/>
<path d="M115.226 10.1263V3.58533" stroke="white" stroke-width="4.07536" stroke-miterlimit="10" stroke-linecap="round"/>
<g clip-path="url(#clip0_82_6601)">
<path d="M143.644 75.9565C144.722 70.7916 144.001 65.3448 141.306 60.8017C139.217 57.2782 138.065 52.6688 138.065 46.65C138.065 20.9829 158.874 0.182312 184.532 0.182312C210.191 0.182312 231 20.9829 231 46.65C231 52.6771 229.848 57.2782 227.758 60.8017C225.122 65.2453 224.368 70.576 225.321 75.658C225.454 76.3793 225.562 76.9348 225.636 77.2332C227.7 86.3112 228.795 90.7383 228.057 93.4575C227.419 95.7954 225.885 97.5861 223.729 98.4981C222.726 98.9209 221.648 99.1364 220.538 99.1364C218.979 99.1364 217.362 98.7136 215.837 97.8846C213.598 96.6659 209.263 90.7051 204.96 84.1557C204.33 89.7434 203.484 94.5353 202.431 96.2348C201.121 98.3654 199.082 99.7085 196.694 100.015C196.363 100.057 196.031 100.082 195.7 100.082C193.461 100.082 191.223 99.1447 189.449 97.4203C188.064 96.0773 186.323 91.8492 184.532 86.4355C182.742 91.8409 181.009 96.0773 179.616 97.4203C177.834 99.1364 175.604 100.082 173.365 100.082C173.034 100.082 172.702 100.065 172.37 100.015C169.983 99.7167 167.943 98.3737 166.633 96.2348C165.581 94.527 164.735 89.7434 164.105 84.1474C159.802 90.6968 155.466 96.6576 153.228 97.8763C151.711 98.7053 150.094 99.1281 148.527 99.1281C147.416 99.1281 146.339 98.9209 145.335 98.4898C143.188 97.5695 141.646 95.7788 141.008 93.4492C140.262 90.73 141.514 85.2915 143.578 76.2218C143.594 76.1472 143.619 76.056 143.636 75.9482L143.644 75.9565Z" fill="#F43BA6"/>
<path d="M190.311 63.9358C187.069 67.451 181.1 67.3681 178.754 63.7866" stroke="black" stroke-width="3.31616" stroke-miterlimit="10" stroke-linecap="round"/>
<path d="M163.848 69.938C160.789 69.938 158.31 68.5498 158.31 66.8374C158.31 65.1249 160.789 63.7368 163.848 63.7368C166.906 63.7368 169.386 65.1249 169.386 66.8374C169.386 68.5498 166.906 69.938 163.848 69.938Z" fill="#FF75C3"/>
<path d="M205.217 69.938C202.158 69.938 199.679 68.5498 199.679 66.8374C199.679 65.1249 202.158 63.7368 205.217 63.7368C208.275 63.7368 210.755 65.1249 210.755 66.8374C210.755 68.5498 208.275 69.938 205.217 69.938Z" fill="#FF75C3"/>
</g>
<mask id="mask1_82_6601" style="mask-type:alpha" maskUnits="userSpaceOnUse" x="192" y="32" width="31" height="30">
<path d="M207.342 32.34C215.441 32.34 222.013 38.9115 222.013 47.0113C222.013 55.1111 215.441 61.6826 207.342 61.6826C199.242 61.6826 192.67 55.1111 192.67 47.0113C192.67 38.9115 199.242 32.34 207.342 32.34Z" fill="black"/>
</mask>
<g mask="url(#mask1_82_6601)">
<path d="M207.342 61.6824C215.444 61.6824 222.013 55.1139 222.013 47.0111C222.013 38.9084 215.444 32.3398 207.342 32.3398C199.239 32.3398 192.67 38.9084 192.67 47.0111C192.67 55.1139 199.239 61.6824 207.342 61.6824Z" fill="white"/>
<path d="M201.463 58.4526C207.782 58.4526 212.905 53.33 212.905 47.011C212.905 40.692 207.782 35.5695 201.463 35.5695C195.144 35.5695 190.021 40.692 190.021 47.011C190.021 53.33 195.144 58.4526 201.463 58.4526Z" fill="black"/>
<path d="M210.632 47.7039C212.427 47.7039 213.883 46.2488 213.883 44.4538C213.883 42.6588 212.427 41.2037 210.632 41.2037C208.837 41.2037 207.382 42.6588 207.382 44.4538C207.382 46.2488 208.837 47.7039 210.632 47.7039Z" fill="white"/>
<path d="M204.449 51.1069C205.681 51.1069 206.68 50.1079 206.68 48.8756C206.68 47.6433 205.681 46.6444 204.449 46.6444C203.216 46.6444 202.217 47.6433 202.217 48.8756C202.217 50.1079 203.216 51.1069 204.449 51.1069Z" fill="white"/>
</g>
<mask id="mask2_82_6601" style="mask-type:alpha" maskUnits="userSpaceOnUse" x="147" y="32" width="30" height="30">
<path d="M162.296 32.34C170.396 32.34 176.968 38.9115 176.968 47.0113C176.968 55.1111 170.396 61.6826 162.296 61.6826C154.197 61.6826 147.625 55.1111 147.625 47.0113C147.625 38.9115 154.197 32.34 162.296 32.34Z" fill="black"/>
</mask>
<g mask="url(#mask2_82_6601)">
<path d="M162.296 61.6824C170.399 61.6824 176.968 55.1139 176.968 47.0111C176.968 38.9084 170.399 32.3398 162.296 32.3398C154.194 32.3398 147.625 38.9084 147.625 47.0111C147.625 55.1139 154.194 61.6824 162.296 61.6824Z" fill="white"/>
<path d="M156.418 58.4526C162.737 58.4526 167.859 53.33 167.859 47.011C167.859 40.692 162.737 35.5695 156.418 35.5695C150.099 35.5695 144.976 40.692 144.976 47.011C144.976 53.33 150.099 58.4526 156.418 58.4526Z" fill="black"/>
<path d="M165.587 47.7039C167.382 47.7039 168.837 46.2488 168.837 44.4538C168.837 42.6588 167.382 41.2037 165.587 41.2037C163.792 41.2037 162.337 42.6588 162.337 44.4538C162.337 46.2488 163.792 47.7039 165.587 47.7039Z" fill="white"/>
<path d="M159.403 51.1069C160.635 51.1069 161.634 50.1079 161.634 48.8756C161.634 47.6433 160.635 46.6444 159.403 46.6444C158.171 46.6444 157.172 47.6433 157.172 48.8756C157.172 50.1079 158.171 51.1069 159.403 51.1069Z" fill="white"/>
</g>
<g clip-path="url(#clip1_82_6601)">
<path d="M87.3559 75.9565C86.2781 70.7916 86.9994 65.3448 89.6937 60.8017C91.7829 57.2782 92.9353 52.6688 92.9353 46.65C92.9353 20.9829 72.1264 0.182312 46.4676 0.182312C20.8089 0.182312 0 20.9829 0 46.65C0 52.6771 1.15236 57.2782 3.24154 60.8017C5.87789 65.2453 6.63231 70.576 5.67892 75.658C5.54627 76.3793 5.4385 76.9348 5.36388 77.2332C3.29958 86.3112 2.20524 90.7383 2.94309 93.4575C3.58145 95.7954 5.11517 97.5861 7.27067 98.4981C8.27381 98.9209 9.35156 99.1364 10.4625 99.1364C12.0211 99.1364 13.6377 98.7136 15.1631 97.8846C17.4015 96.6659 21.7374 90.7051 26.0401 84.1557C26.6702 89.7434 27.5158 94.5353 28.5687 96.2348C29.8786 98.3654 31.918 99.7085 34.3056 100.015C34.6373 100.057 34.9689 100.082 35.3005 100.082C37.5389 100.082 39.7773 99.1447 41.5514 97.4203C42.9359 96.0773 44.6769 91.8492 46.4676 86.4355C48.2584 91.8409 49.9911 96.0773 51.3838 97.4203C53.1663 99.1364 55.3964 100.082 57.6348 100.082C57.9664 100.082 58.298 100.065 58.6296 100.015C61.0173 99.7167 63.0567 98.3737 64.3666 96.2348C65.4195 94.527 66.2651 89.7434 66.8952 84.1474C71.1979 90.6968 75.5338 96.6576 77.7722 97.8763C79.2893 98.7053 80.9059 99.1281 82.4728 99.1281C83.5837 99.1281 84.6615 98.9209 85.6646 98.4898C87.8118 97.5695 89.3538 95.7788 89.9922 93.4492C90.7383 90.73 89.4865 85.2915 87.4222 76.2218C87.4056 76.1472 87.3807 76.056 87.3641 75.9482L87.3559 75.9565Z" fill="#F43BA6"/>
<path d="M40.6892 63.9358C43.9308 67.451 49.8998 67.3681 52.246 63.7866" stroke="black" stroke-width="3.31616" stroke-miterlimit="10" stroke-linecap="round"/>
<path d="M67.1522 69.938C70.2108 69.938 72.6902 68.5498 72.6902 66.8374C72.6902 65.1249 70.2108 63.7368 67.1522 63.7368C64.0937 63.7368 61.6143 65.1249 61.6143 66.8374C61.6143 68.5498 64.0937 69.938 67.1522 69.938Z" fill="#FF75C3"/>
<path d="M25.7831 69.938C28.8416 69.938 31.3211 68.5498 31.3211 66.8374C31.3211 65.1249 28.8416 63.7368 25.7831 63.7368C22.7246 63.7368 20.2451 65.1249 20.2451 66.8374C20.2451 68.5498 22.7246 69.938 25.7831 69.938Z" fill="#FF75C3"/>
</g>
<mask id="mask3_82_6601" style="mask-type:alpha" maskUnits="userSpaceOnUse" x="8" y="32" width="31" height="30">
<path d="M23.6585 32.34C15.5587 32.34 8.98723 38.9115 8.98723 47.0113C8.98723 55.1111 15.5587 61.6826 23.6585 61.6826C31.7583 61.6826 38.3298 55.1111 38.3298 47.0113C38.3298 38.9115 31.7583 32.34 23.6585 32.34Z" fill="black"/>
</mask>
<g mask="url(#mask3_82_6601)">
<path d="M23.6585 61.6824C15.5558 61.6824 8.98722 55.1139 8.98722 47.0111C8.98722 38.9084 15.5558 32.3398 23.6585 32.3398C31.7613 32.3398 38.3298 38.9084 38.3298 47.0111C38.3298 55.1139 31.7613 61.6824 23.6585 61.6824Z" fill="white"/>
<path d="M29.5372 58.4526C23.2182 58.4526 18.0956 53.33 18.0956 47.011C18.0956 40.692 23.2182 35.5695 29.5372 35.5695C35.8562 35.5695 40.9788 40.692 40.9788 47.011C40.9788 53.33 35.8562 58.4526 29.5372 58.4526Z" fill="black"/>
<path d="M20.3676 47.7039C18.5726 47.7039 17.1175 46.2488 17.1175 44.4538C17.1175 42.6588 18.5726 41.2037 20.3676 41.2037C22.1626 41.2037 23.6177 42.6588 23.6177 44.4538C23.6177 46.2488 22.1626 47.7039 20.3676 47.7039Z" fill="white"/>
<path d="M26.5517 51.1069C25.3194 51.1069 24.3204 50.1079 24.3204 48.8756C24.3204 47.6433 25.3194 46.6444 26.5517 46.6444C27.784 46.6444 28.783 47.6433 28.783 48.8756C28.783 50.1079 27.784 51.1069 26.5517 51.1069Z" fill="white"/>
</g>
<mask id="mask4_82_6601" style="mask-type:alpha" maskUnits="userSpaceOnUse" x="54" y="32" width="30" height="30">
<path d="M68.7039 32.34C60.6042 32.34 54.0326 38.9115 54.0326 47.0113C54.0326 55.1111 60.6042 61.6826 68.7039 61.6826C76.8037 61.6826 83.3752 55.1111 83.3752 47.0113C83.3752 38.9115 76.8037 32.34 68.7039 32.34Z" fill="black"/>
</mask>
<g mask="url(#mask4_82_6601)">
<path d="M68.7039 61.6824C60.6012 61.6824 54.0326 55.1139 54.0326 47.0111C54.0326 38.9084 60.6012 32.3398 68.7039 32.3398C76.8067 32.3398 83.3752 38.9084 83.3752 47.0111C83.3752 55.1139 76.8067 61.6824 68.7039 61.6824Z" fill="white"/>
<path d="M74.5826 58.4526C68.2636 58.4526 63.141 53.33 63.141 47.011C63.141 40.692 68.2636 35.5695 74.5826 35.5695C80.9016 35.5695 86.0242 40.692 86.0242 47.011C86.0242 53.33 80.9016 58.4526 74.5826 58.4526Z" fill="black"/>
<path d="M65.413 47.7039C63.618 47.7039 62.1629 46.2488 62.1629 44.4538C62.1629 42.6588 63.618 41.2037 65.413 41.2037C67.208 41.2037 68.6631 42.6588 68.6631 44.4538C68.6631 46.2488 67.208 47.7039 65.413 47.7039Z" fill="white"/>
<path d="M71.5971 51.1069C70.3648 51.1069 69.3659 50.1079 69.3659 48.8756C69.3659 47.6433 70.3648 46.6444 71.5971 46.6444C72.8294 46.6444 73.8284 47.6433 73.8284 48.8756C73.8284 50.1079 72.8294 51.1069 71.5971 51.1069Z" fill="white"/>
</g>
<defs>
<filter id="filter0_d_82_6601" x="58.0045" y="28.0375" width="65.7611" height="49.4891" filterUnits="userSpaceOnUse" color-interpolation-filters="sRGB">
<feFlood flood-opacity="0" result="BackgroundImageFix"/>
<feColorMatrix in="SourceAlpha" type="matrix" values="0 0 0 0 0 0 0 0 0 0 0 0 0 0 0 0 0 0 127 0" result="hardAlpha"/>
<feOffset dy="2.31"/>
<feGaussianBlur stdDeviation="1.155"/>
<feComposite in2="hardAlpha" operator="out"/>
<feColorMatrix type="matrix" values="0 0 0 0 0 0 0 0 0 0 0 0 0 0 0 0 0 0 0.25 0"/>
<feBlend mode="normal" in2="BackgroundImageFix" result="effect1_dropShadow_82_6601"/>
<feBlend mode="normal" in="SourceGraphic" in2="effect1_dropShadow_82_6601" result="shape"/>
</filter>
<clipPath id="clip0_82_6601">
<rect width="93.247" height="99.9075" fill="white" transform="matrix(-1 0 0 1 231 0.182312)"/>
</clipPath>
<clipPath id="clip1_82_6601">
<rect width="93.247" height="99.9075" fill="white" transform="translate(0 0.182312)"/>
</clipPath>
</defs>
</svg>
