<svg width="264" height="51" viewBox="0 0 264 51" fill="none" xmlns="http://www.w3.org/2000/svg">
<path d="M160.498 17.9089C159.947 15.7033 157.935 15.2969 156.454 15.2969C154.212 15.3002 152.397 16.5259 152.4 18.7609L152.413 21.54V35.5565C152.413 35.6384 152.426 35.7204 152.446 35.7957V36.2218C152.449 38.2831 154.153 40.7345 156.152 40.8983C156.319 40.9114 156.49 40.9114 156.664 40.9049C158.889 40.8131 160.518 38.4404 160.511 36.2054L160.488 30.408V25.7217C160.527 25.4529 160.55 25.1908 160.55 24.9417L160.488 21.0353V20.003C160.488 19.9702 160.482 19.9374 160.478 19.9047C160.501 19.2263 160.642 18.4693 160.501 17.9089H160.498ZM189.272 17.8761C188.734 15.6705 186.771 15.2642 185.326 15.2674C183.589 15.2707 182.121 16.0474 181.587 17.4795C181.383 18.0072 180.613 18.2267 180.135 17.8302C178.48 16.4669 176.435 15.6116 174.157 15.6116C168.652 15.5657 163.424 20.2914 163.424 27.3078C163.424 34.3243 168.697 38.7747 174.157 38.7747C176.327 38.7747 178.329 37.9751 179.977 36.6707C180.453 36.2939 181.223 36.6085 181.223 37.2148C181.223 41.2981 179.066 42.3501 175.304 42.3501C175.183 42.3501 175.075 42.3534 174.977 42.3632C173.354 42.1863 171.437 41.8487 171.437 41.8487C168.488 41.5898 166.6 42.7827 166.253 44.5032H166.256C166.226 44.6474 166.207 44.7949 166.194 44.9456C166.046 46.8857 169.156 48.1573 170.539 48.6325C171.922 49.1077 174.377 49.6386 176.189 49.4485C176.274 49.4387 176.343 49.4256 176.402 49.4092C185.572 49.1896 189.295 45.2308 189.295 36.8969C189.295 34.3276 189.337 25.4726 189.34 19.1444C189.34 19.0165 189.334 18.8855 189.324 18.7544C189.34 18.4365 189.337 18.135 189.275 17.8728L189.272 17.8761ZM176.586 31.8533C174.062 31.8533 171.952 29.9263 171.952 27.3111C171.952 24.6959 174.016 22.6313 176.586 22.6313C179.155 22.6313 181.311 24.6959 181.311 27.3111C181.311 29.9263 179.109 31.8533 176.586 31.8533ZM121.998 29.8804V24.3747C121.998 19.0985 118.786 15.8901 114.247 15.8901C111.376 15.8901 109.436 17.201 108.227 18.5676C107.676 19.1935 106.496 19.1444 105.975 18.4988C104.619 16.8208 102.606 15.8901 100.303 15.8901C98.1462 15.8901 96.4715 16.775 95.2622 17.8564C94.7379 18.3251 93.7154 18.0629 93.5057 17.4402C93.4991 17.4206 93.4696 17.3812 93.4237 17.3354C93.2861 17.0437 93.1026 16.7848 92.8863 16.5521C92.8699 16.5128 92.847 16.4833 92.8076 16.4669C92.0604 15.7164 90.9298 15.3002 89.6648 15.3002C87.4232 15.3035 85.6077 16.5292 85.6109 18.7642L85.6208 21.0713V29.8739C85.6208 29.9427 85.6109 30.0082 85.6109 30.0771L85.6208 32.3842V32.5022C85.6208 32.5022 85.6208 32.5054 85.6208 32.5087L85.6371 36.2775C85.6371 38.3388 87.3577 40.7902 89.3666 40.9573C89.5337 40.9704 89.7074 40.9704 89.8811 40.9639C92.1194 40.8721 93.7613 38.4994 93.7547 36.2644L93.7383 32.1646V26.4492C93.7383 24.4763 94.8854 23.054 96.8124 23.054C98.6476 23.054 99.7028 24.2011 99.7028 26.8621V30.0541C99.7028 30.0541 99.7028 30.0672 99.7028 30.0771V30.3228V32.5022C99.7028 32.5349 99.7094 32.5677 99.7127 32.6005L99.729 36.2742C99.729 38.3356 101.45 40.7869 103.462 40.954C103.629 40.9671 103.803 40.9671 103.976 40.9606C106.215 40.8688 107.856 38.4961 107.85 36.2611L107.824 30.2049V26.8654C107.824 24.0208 109.338 23.0573 110.944 23.0573C112.779 23.0573 113.834 24.2043 113.834 26.8654V29.8509C113.831 29.9263 113.824 30.0017 113.824 30.0771L113.85 36.2742C113.85 38.3356 115.584 40.7902 117.613 40.954C117.783 40.9671 117.957 40.9671 118.13 40.9606C120.388 40.8688 122.04 38.4961 122.034 36.2611L122.007 30.0639C122.007 30.005 122.001 29.9492 121.998 29.8903V29.8804ZM217.714 34.4455C218.206 36.0612 216.164 37.49 215.109 38.1619C214.175 38.755 212.297 39.866 210.813 40.2462C209.466 40.6886 207.961 40.9639 206.274 40.9639C197.055 40.9639 191.825 35.6712 191.825 28.1763C191.825 20.6814 197.101 15.3887 204.943 15.3887C212.009 15.3887 217.373 20.7731 217.373 28.268V29.5593C217.373 30.1131 216.934 30.5621 216.39 30.5621H201.384C200.745 30.5621 200.27 31.1847 200.561 31.7648C201.545 33.7246 203.599 34.5897 206.503 34.5897C207.067 34.5897 207.598 34.616 208.099 34.6454C209.718 34.5766 211.973 33.2723 212.782 32.843C215.178 32.0499 216.97 32.6955 217.583 34.0818C217.636 34.1965 217.682 34.321 217.718 34.4455H217.714ZM199.922 25.643H207.801C208.453 25.643 208.928 25.0007 208.627 24.4108C207.824 22.8443 206.428 21.989 204.465 21.989C202.036 21.989 200.565 23.2998 199.922 25.6397V25.643ZM156.297 4.63298C153.783 4.63625 151.748 6.28796 151.751 8.31981L151.781 8.59182C151.781 10.4664 153.708 13.501 155.962 13.6485C156.149 13.6583 156.346 13.6616 156.539 13.6551C159.049 13.5699 160.888 10.6106 160.885 8.57871L160.855 8.3067C160.849 6.27485 158.81 4.63298 156.297 4.63298ZM262.969 19.613C262.903 18.0957 261.062 16.906 259.305 16.4767L259.312 16.4374C258.768 16.4374 258.328 15.9983 258.328 15.4542V9.99118C258.328 9.99118 258.325 9.96824 258.325 9.95513C258.332 9.88958 258.338 9.82076 258.338 9.75194C258.338 8.12973 256.519 6.81231 254.278 6.81231C252.036 6.81231 250.217 8.12973 250.217 9.75194C250.217 9.76177 250.217 9.77488 250.217 9.78471C250.208 9.83715 250.204 9.88958 250.204 9.94202V15.4542C250.204 15.9983 249.765 16.4374 249.221 16.4374V16.4603C247.471 16.8569 245.426 18.0989 245.305 19.5147H245.308C245.295 19.6589 245.292 19.8063 245.298 19.9538C245.367 21.5433 247.392 22.7788 249.221 23.1458V23.2277C249.765 23.2277 250.204 23.6669 250.204 24.2109V29.4216C250.175 29.615 250.155 29.8149 250.155 30.0181L250.181 36.2152C250.181 38.2766 251.912 40.7312 253.934 40.895C254.101 40.9082 254.278 40.9082 254.452 40.9016C256.703 40.8098 258.351 38.4372 258.348 36.2021L258.322 30.3196V23.2245C260.17 23.0573 262.815 21.6645 262.956 20.0489H262.953C262.966 19.9047 262.969 19.7572 262.962 19.6097L262.969 19.613ZM64.3649 4.05619C53.6289 4.05619 45.3278 12.1279 45.3278 22.2216C45.3278 32.3154 53.7239 40.4788 64.3649 40.4788C75.006 40.4788 83.3562 32.3154 83.3562 22.2216C83.3562 12.1738 75.0977 4.05619 64.3649 4.05619ZM64.3649 32.3121C58.584 32.3121 54.2712 27.8617 54.2712 22.2642C54.2712 16.6668 58.6757 12.2164 64.3649 12.2164C70.0541 12.2164 74.4095 16.6668 74.4095 22.2642C74.4095 27.8617 70.1426 32.3121 64.3649 32.3121ZM148.834 24.378C148.834 19.105 145.21 15.8934 140.717 15.8934C138.164 15.8934 136.155 16.8012 134.729 17.8925C134.31 18.2136 133.677 18.0957 133.356 17.7352C133.301 17.6532 133.248 17.568 133.196 17.4795C133.196 17.4795 133.196 17.4795 133.196 17.4763C132.616 16.5029 132.095 15.3068 129.496 15.3002C127.254 15.3035 125.439 16.5292 125.442 18.7642V19.3967V32.4989C125.442 32.548 125.448 32.5939 125.455 32.6398L125.471 36.2677C125.471 38.329 127.198 40.7836 129.217 40.9475C129.384 40.9606 129.558 40.9606 129.732 40.954C131.98 40.8623 133.625 38.4896 133.618 36.2545L133.602 32.4989C133.602 32.4989 133.602 32.4956 133.602 32.4923V26.4394C133.602 24.4665 135.391 23.0901 137.227 23.0901C139.245 23.0901 140.714 24.1453 140.714 26.8523V32.4923C140.714 32.5317 140.72 32.571 140.727 32.6103L140.743 36.2644C140.743 38.3257 142.46 40.7771 144.469 40.9442C144.636 40.9573 144.81 40.9573 144.984 40.9508C147.219 40.859 148.857 38.4863 148.854 36.2513L148.838 32.2597V24.3747L148.834 24.378ZM243.902 24.378C243.902 19.105 240.278 15.8934 235.785 15.8934C233.232 15.8934 231.223 16.8012 229.797 17.8925C229.217 18.3382 228.218 17.9515 228.218 17.2174C228.218 17.1289 228.067 16.8274 227.847 16.6275C227.107 15.782 225.914 15.3002 224.56 15.3002C222.319 15.3035 220.503 16.5292 220.506 18.7642V19.3967V32.4989C220.506 32.548 220.513 32.5939 220.52 32.6398L220.536 36.2677C220.536 38.329 222.263 40.7836 224.282 40.9475C224.449 40.9606 224.623 40.9606 224.796 40.954C227.044 40.8623 228.69 38.4896 228.683 36.2545L228.667 32.4989C228.667 32.4989 228.667 32.4956 228.667 32.4923V26.4394C228.667 24.4665 230.456 23.0901 232.291 23.0901C234.31 23.0901 235.778 24.1453 235.778 26.8523V32.4923C235.778 32.5317 235.785 32.571 235.791 32.6103L235.808 36.2644C235.808 38.3257 237.525 40.7771 239.534 40.9442C239.701 40.9573 239.875 40.9573 240.048 40.9508C242.283 40.859 243.922 38.4863 243.919 36.2513L243.902 32.2597V24.3747V24.378Z" fill="black"/>
<g clip-path="url(#clip0_206_7446)">
<path d="M37.0361 32.3774C36.5853 30.2172 36.887 27.9391 38.0139 26.039C38.8877 24.5653 39.3696 22.6374 39.3696 20.1201C39.3696 9.385 30.6664 0.685278 19.9348 0.685278C9.20319 0.685278 0.5 9.385 0.5 20.1201C0.5 22.6409 0.98197 24.5653 1.85576 26.039C2.95839 27.8975 3.27393 30.127 2.87517 32.2525C2.81969 32.5542 2.77462 32.7865 2.74341 32.9114C1.88003 36.7082 1.42233 38.5598 1.73093 39.6971C1.99792 40.6749 2.63939 41.4238 3.54092 41.8053C3.96047 41.9821 4.41123 42.0722 4.87587 42.0722C5.52774 42.0722 6.20388 41.8954 6.84189 41.5487C7.77809 41.039 9.59154 38.5459 11.3911 35.8066C11.6546 38.1437 12.0083 40.1478 12.4487 40.8586C12.9965 41.7498 13.8495 42.3115 14.8481 42.4398C14.9868 42.4571 15.1255 42.4675 15.2642 42.4675C16.2004 42.4675 17.1366 42.0757 17.8786 41.3545C18.4577 40.7928 19.1859 39.0244 19.9348 36.7602C20.6838 39.0209 21.4085 40.7928 21.991 41.3545C22.7365 42.0722 23.6692 42.4675 24.6054 42.4675C24.7441 42.4675 24.8828 42.4606 25.0215 42.4398C26.0201 42.315 26.8731 41.7532 27.4209 40.8586C27.8613 40.1444 28.215 38.1437 28.4785 35.8032C30.2781 38.5424 32.0915 41.0355 33.0277 41.5452C33.6623 41.8919 34.3384 42.0688 34.9938 42.0688C35.4584 42.0688 35.9092 41.9821 36.3287 41.8018C37.2268 41.4169 37.8717 40.6679 38.1387 39.6936C38.4508 38.5563 37.9272 36.2817 37.0638 32.4883C37.0569 32.4571 37.0465 32.419 37.0395 32.3739L37.0361 32.3774Z" fill="#F43BA6"/>
<path d="M17.5181 27.3498C18.8738 28.82 21.3704 28.7853 22.3516 27.2874" stroke="black" stroke-width="1.38696" stroke-miterlimit="10" stroke-linecap="round"/>
<path d="M28.586 29.8602C29.8652 29.8602 30.9022 29.2796 30.9022 28.5634C30.9022 27.8471 29.8652 27.2665 28.586 27.2665C27.3068 27.2665 26.2698 27.8471 26.2698 28.5634C26.2698 29.2796 27.3068 29.8602 28.586 29.8602Z" fill="#FF75C3"/>
<path d="M11.2836 29.8602C12.5629 29.8602 13.5999 29.2796 13.5999 28.5634C13.5999 27.8471 12.5629 27.2665 11.2836 27.2665C10.0044 27.2665 8.96741 27.8471 8.96741 28.5634C8.96741 29.2796 10.0044 29.8602 11.2836 29.8602Z" fill="#FF75C3"/>
<path d="M10.414 26.4688C13.838 26.4688 16.6137 23.693 16.6137 20.269C16.6137 16.845 13.838 14.0693 10.414 14.0693C6.98994 14.0693 4.21423 16.845 4.21423 20.269C4.21423 23.693 6.98994 26.4688 10.414 26.4688Z" fill="white"/>
<path d="M10.414 25.1026C13.0835 25.1026 15.2476 22.9385 15.2476 20.269C15.2476 17.5995 13.0835 15.4355 10.414 15.4355C7.7445 15.4355 5.58044 17.5995 5.58044 20.269C5.58044 22.9385 7.7445 25.1026 10.414 25.1026Z" fill="black"/>
<path d="M9.15137 20.1164C9.67025 20.1164 10.0917 20.537 10.0918 21.0559C10.0918 21.5748 9.67033 21.9953 9.15137 21.9953C8.63259 21.9951 8.21191 21.5747 8.21191 21.0559C8.21205 20.5372 8.63267 20.1166 9.15137 20.1164ZM6.53711 17.8176C7.29544 17.8176 7.91015 18.4323 7.91016 19.1906C7.91016 19.949 7.29545 20.5637 6.53711 20.5637C5.77888 20.5636 5.16406 19.9489 5.16406 19.1906C5.16407 18.4324 5.77889 17.8177 6.53711 17.8176Z" fill="white"/>
<path d="M29.3151 26.4688C32.7391 26.4688 35.5148 23.693 35.5148 20.269C35.5148 16.845 32.7391 14.0693 29.3151 14.0693C25.8911 14.0693 23.1154 16.845 23.1154 20.269C23.1154 23.693 25.8911 26.4688 29.3151 26.4688Z" fill="white"/>
<path d="M29.3151 25.1026C31.9846 25.1026 34.1487 22.9385 34.1487 20.269C34.1487 17.5995 31.9846 15.4355 29.3151 15.4355C26.6456 15.4355 24.4816 17.5995 24.4816 20.269C24.4816 22.9385 26.6456 25.1026 29.3151 25.1026Z" fill="black"/>
<path d="M28.0525 20.1164C28.5714 20.1164 28.9928 20.537 28.9929 21.0559C28.9929 21.5748 28.5715 21.9953 28.0525 21.9953C27.5337 21.9951 27.113 21.5747 27.113 21.0559C27.1132 20.5372 27.5338 20.1166 28.0525 20.1164ZM25.4382 17.8176C26.1966 17.8176 26.8113 18.4323 26.8113 19.1906C26.8113 19.949 26.1966 20.5637 25.4382 20.5637C24.68 20.5636 24.0652 19.9489 24.0652 19.1906C24.0652 18.4324 24.68 17.8177 25.4382 17.8176Z" fill="white"/>
</g>
<defs>
<clipPath id="clip0_206_7446">
<rect width="39" height="41.7857" fill="white" transform="translate(0.5 0.685278)"/>
</clipPath>
</defs>
</svg>
